GeezHandwritingOutlinesRules.ufo
<glyph name="dollar" format="2">
  <advance width="1434"/>
  <unicode hex="0024"/>
  <outline>
    <contour>
      <point x="1069" y="391" type="curve" smooth="yes"/>
      <point x="1069" y="304.996"/>
      <point x="1036.14" y="232.839"/>
      <point x="971" y="174" type="curve" smooth="yes"/>
      <point x="912.144" y="120.84"/>
      <point x="844" y="90"/>
      <point x="764" y="82" type="curve"/>
      <point x="764" y="51" type="line" smooth="yes"/>
      <point x="764" y="16"/>
      <point x="748" y="-2"/>
      <point x="713" y="-2" type="curve" smooth="yes"/>
      <point x="678" y="-2"/>
      <point x="662" y="16"/>
      <point x="662" y="51" type="curve" smooth="yes"/>
      <point x="662" y="84" type="line"/>
      <point x="578" y="92"/>
      <point x="504.808" y="119.783"/>
      <point x="446" y="172" type="curve" smooth="yes"/>
      <point x="388.808" y="222.783"/>
      <point x="360.687" y="283.007"/>
      <point x="362" y="350" type="curve" smooth="yes"/>
      <point x="362.686" y="385.008"/>
      <point x="379" y="401"/>
      <point x="414" y="401" type="curve" smooth="yes"/>
      <point x="449" y="401"/>
      <point x="465" y="385"/>
      <point x="465" y="350" type="curve" smooth="yes"/>
      <point x="465" y="315"/>
      <point x="481.052" y="282.051"/>
      <point x="512" y="252" type="curve" smooth="yes"/>
      <point x="550.05" y="215.053"/>
      <point x="600" y="193"/>
      <point x="662" y="186" type="curve"/>
      <point x="662" y="664" type="line"/>
      <point x="573" y="696"/>
      <point x="511.199" y="728.214"/>
      <point x="475" y="762" type="curve" smooth="yes"/>
      <point x="421.2" y="812.214"/>
      <point x="395" y="883" name=".hr01"/>
      <point x="395" y="971" type="curve" smooth="yes"/>
      <point x="395" y="1047"/>
      <point x="422.226" y="1109.76"/>
      <point x="475" y="1161" type="curve" smooth="yes"/>
      <point x="525.229" y="1209.77"/>
      <point x="586" y="1239"/>
      <point x="662" y="1249" type="curve"/>
      <point x="662" y="1284" type="line" smooth="yes"/>
      <point x="662" y="1319"/>
      <point x="678" y="1337"/>
      <point x="713" y="1337" type="curve" smooth="yes"/>
      <point x="748" y="1337"/>
      <point x="764" y="1319"/>
      <point x="764" y="1284" type="curve" smooth="yes"/>
      <point x="764" y="1249" type="line"/>
      <point x="836" y="1239"/>
      <point x="896.593" y="1212.56"/>
      <point x="948" y="1165" type="curve" smooth="yes"/>
      <point x="1003.6" y="1113.56"/>
      <point x="1029.32" y="1054.99"/>
      <point x="1028" y="987" type="curve" smooth="yes"/>
      <point x="1027.32" y="951.992"/>
      <point x="1012" y="936"/>
      <point x="977" y="936" type="curve" smooth="yes"/>
      <point x="942" y="936"/>
      <point x="926" y="952"/>
      <point x="926" y="987" type="curve" smooth="yes"/>
      <point x="926" y="1059"/>
      <point x="860" y="1128"/>
      <point x="764" y="1145" type="curve"/>
      <point x="764" y="733" type="line"/>
      <point x="868" y="694"/>
      <point x="938.353" y="661.404"/>
      <point x="973" y="631" type="curve" smooth="yes"/>
      <point x="1036.35" y="575.405"/>
      <point x="1069" y="496.004" name=".hr02"/>
    </contour>
    <contour>
      <point x="662" y="772" type="curve"/>
      <point x="662" y="1145" type="line"/>
      <point x="563" y="1128"/>
      <point x="498" y="1059"/>
      <point x="498" y="971" type="curve" smooth="yes"/>
      <point x="498" y="920"/>
      <point x="512.405" y="877.376"/>
      <point x="543" y="844" type="curve" smooth="yes"/>
      <point x="567.41" y="817.371"/>
      <point x="606" y="795"/>
    </contour>
    <contour>
      <point x="967" y="391" type="curve" smooth="yes"/>
      <point x="967" y="459"/>
      <point x="947.901" y="509.894"/>
      <point x="909" y="547" type="curve" smooth="yes"/>
      <point x="882.9" y="571.895"/>
      <point x="836" y="598"/>
      <point x="764" y="625" type="curve"/>
      <point x="764" y="186" type="line"/>
      <point x="879" y="201"/>
      <point x="967" y="287"/>
    </contour>
  </outline>
</glyph>
<glyph name="quotesingle" format="2">
  <advance width="307"/>
  <unicode hex="0027"/>
  <outline>
    <contour>
      <point x="205" y="1040" type="line" smooth="yes"/>
      <point x="205" y="1010"/>
      <point x="188" y="991"/>
      <point x="154" y="989" type="curve"/>
      <point x="119" y="991"/>
      <point x="102" y="1010"/>
      <point x="102" y="1040" type="curve" smooth="yes"/>
      <point x="102" y="1280" type="line" smooth="yes"/>
      <point x="102" y="1311"/>
      <point x="119" y="1329"/>
      <point x="154" y="1331" type="curve"/>
      <point x="188" y="1329"/>
      <point x="205" y="1311"/>
      <point x="205" y="1280" type="curve" smooth="yes"/>
    </contour>
  </outline>
</glyph>
<glyph name="hyphen" format="2">
  <advance width="1024"/>
  <unicode hex="002D"/>
  <outline>
    <contour>
      <point x="905" y="688" type="curve"/>
      <point x="903" y="653"/>
      <point x="885" y="637"/>
      <point x="854" y="637" type="curve" smooth="yes"/>
      <point x="172" y="637" type="line" smooth="yes"/>
      <point x="139" y="637"/>
      <point x="123" y="653"/>
      <point x="121" y="688" type="curve"/>
      <point x="123" y="723"/>
      <point x="139" y="739"/>
      <point x="172" y="739" type="curve" smooth="yes"/>
      <point x="854" y="739" type="line" smooth="yes"/>
      <point x="885" y="739"/>
      <point x="903" y="723"/>
    </contour>
  </outline>
</glyph>
<glyph name="eight" format="2">
  <advance width="1024"/>
  <unicode hex="0038"/>
  <outline>
    <contour>
      <point x="922" y="1292" type="curve" smooth="yes"/>
      <point x="922" y="1282"/>
      <point x="916.438" y="1270.63"/>
      <point x="907" y="1260" type="curve" smooth="yes"/>
      <point x="446" y="741" type="line"/>
      <point x="569" y="680"/>
      <point x="653.816" y="628.78"/>
      <point x="700" y="590" type="curve" smooth="yes"/>
      <point x="784.814" y="518.782"/>
      <point x="827" y="432"/>
      <point x="827" y="336" type="curve" smooth="yes"/>
      <point x="827" y="236"/>
      <point x="793.023" y="154.97"/>
      <point x="723" y="92" type="curve" smooth="yes"/>
      <point x="654.026" y="29.9735"/>
      <point x="567.004" y="0"/>
      <point x="467" y="0" type="curve" smooth="yes"/>
      <point x="359.996" y="0"/>
      <point x="272.009" y="35.0052"/>
      <point x="205" y="104" type="curve" smooth="yes"/>
      <point x="137.007" y="174.008"/>
      <point x="102" y="261.996"/>
      <point x="102" y="369" type="curve" smooth="yes"/>
      <point x="102" y="481.004"/>
      <point x="162" y="598"/>
      <point x="283" y="719" type="curve"/>
      <point x="184" y="807"/>
      <point x="139.521" y="903.03"/>
      <point x="147" y="1004" type="curve" smooth="yes" name=".hr01"/>
      <point x="161.521" y="1200.04"/>
      <point x="281" y="1331"/>
      <point x="475" y="1331" type="curve" smooth="yes"/>
      <point x="559" y="1331"/>
      <point x="643" y="1290"/>
      <point x="727" y="1208" type="curve"/>
      <point x="831" y="1329" type="line" smooth="yes"/>
      <point x="840.69" y="1340.27"/>
      <point x="852" y="1346"/>
      <point x="866" y="1346" type="curve" smooth="yes"/>
      <point x="903" y="1346"/>
      <point x="922" y="1327"/>
    </contour>
    <contour>
      <point x="659" y="1133" type="line"/>
      <point x="625" y="1182"/>
      <point x="535" y="1229"/>
      <point x="475" y="1229" type="curve" smooth="yes"/>
      <point x="414" y="1229"/>
      <point x="361.011" y="1205.99"/>
      <point x="315" y="1161" type="curve" smooth="yes"/>
      <point x="271.011" y="1117.99"/>
      <point x="248" y="1065"/>
      <point x="248" y="1004" type="curve" smooth="yes"/>
      <point x="248" y="920"/>
      <point x="283" y="848"/>
      <point x="354" y="793" type="curve"/>
    </contour>
    <contour>
      <point x="725" y="336" type="curve" smooth="yes"/>
      <point x="725" y="412"/>
      <point x="682.106" y="481.156"/>
      <point x="598" y="541" type="curve" smooth="yes"/>
      <point x="578.108" y="555.153"/>
      <point x="502" y="596"/>
      <point x="373" y="664" type="curve"/>
      <point x="260" y="561"/>
      <point x="205" y="463"/>
      <point x="205" y="369" type="curve" smooth="yes"/>
      <point x="205" y="213"/>
      <point x="311" y="102"/>
      <point x="467" y="102" type="curve" smooth="yes"/>
      <point x="535" y="102"/>
      <point x="595.789" y="124.247"/>
      <point x="647" y="168" type="curve" smooth="yes"/>
      <point x="698.789" y="212.246"/>
      <point x="725" y="268"/>
    </contour>
  </outline>
</glyph>
<glyph name="semicolon" format="2">
  <advance width="307"/>
  <unicode hex="003B"/>
  <outline>
    <contour>
      <point x="170" y="618" type="curve" smooth="yes"/>
      <point x="170" y="580"/>
      <point x="150" y="559"/>
      <point x="111" y="559" type="curve" smooth="yes"/>
      <point x="72" y="559"/>
      <point x="51" y="580"/>
      <point x="51" y="618" type="curve" smooth="yes"/>
      <point x="51" y="657"/>
      <point x="72" y="678"/>
      <point x="111" y="678" type="curve" smooth="yes"/>
      <point x="150" y="678"/>
      <point x="170" y="657"/>
    </contour>
    <contour>
      <point x="176" y="61" type="curve" smooth="yes"/>
      <point x="176" y="2" name=".hr01"/>
      <point x="125" y="-74"/>
      <point x="76" y="-90" type="curve"/>
      <point x="55" y="-80"/>
      <point x="45" y="-68"/>
      <point x="45" y="-51" type="curve"/>
      <point x="86" y="4" type="line"/>
      <point x="63" y="18"/>
      <point x="51" y="37"/>
      <point x="51" y="59" type="curve" smooth="yes"/>
      <point x="51" y="102"/>
      <point x="70" y="125"/>
      <point x="109" y="125" type="curve" smooth="yes"/>
      <point x="131" y="125"/>
      <point x="145" y="121"/>
      <point x="156" y="113" type="curve"/>
      <point x="170" y="98"/>
      <point x="176" y="82" name=".hr02"/>
    </contour>
  </outline>
</glyph>
<glyph name="H" format="2">
  <advance width="1229"/>
  <unicode hex="0048"/>
  <outline>
    <contour>
      <point x="1157" y="51" type="line" smooth="yes"/>
      <point x="1157" y="20"/>
      <point x="1141" y="2"/>
      <point x="1106" y="0" type="curve"/>
      <point x="1071" y="2"/>
      <point x="1055" y="20"/>
      <point x="1055" y="51" type="curve" smooth="yes"/>
      <point x="1055" y="629" type="line"/>
      <point x="205" y="629" type="line"/>
      <point x="205" y="51" type="line" smooth="yes"/>
      <point x="205" y="20"/>
      <point x="188" y="2"/>
      <point x="154" y="0" type="curve"/>
      <point x="119" y="2"/>
      <point x="102" y="20"/>
      <point x="102" y="51" type="curve" smooth="yes"/>
      <point x="102" y="1280" type="line" smooth="yes"/>
      <point x="102" y="1311"/>
      <point x="119" y="1329"/>
      <point x="154" y="1331" type="curve"/>
      <point x="188" y="1329"/>
      <point x="205" y="1311"/>
      <point x="205" y="1280" type="curve" smooth="yes"/>
      <point x="205" y="731" type="line"/>
      <point x="1055" y="731" type="line"/>
      <point x="1055" y="1280" type="line" smooth="yes"/>
      <point x="1055" y="1311"/>
      <point x="1071" y="1329"/>
      <point x="1106" y="1331" type="curve"/>
      <point x="1141" y="1329"/>
      <point x="1157" y="1311"/>
      <point x="1157" y="1280" type="curve" smooth="yes"/>
    </contour>
  </outline>
</glyph>
<glyph name="R" format="2">
  <advance width="1229"/>
  <unicode hex="0052"/>
  <outline>
    <contour>
      <point x="1163" y="51" type="curve" smooth="yes"/>
      <point x="1163" y="16"/>
      <point x="1147" y="-2"/>
      <point x="1112" y="-2" type="curve" smooth="yes"/>
      <point x="1102" y="-2"/>
      <point x="1092" y="2"/>
      <point x="1081" y="8" type="curve"/>
      <point x="205" y="647" type="line"/>
      <point x="205" y="51" type="line" smooth="yes"/>
      <point x="205" y="20"/>
      <point x="188" y="2"/>
      <point x="154" y="0" type="curve"/>
      <point x="119" y="2"/>
      <point x="102" y="20"/>
      <point x="102" y="51" type="curve" smooth="yes"/>
      <point x="102" y="1280" type="line" smooth="yes"/>
      <point x="102" y="1315"/>
      <point x="119" y="1331"/>
      <point x="154" y="1331" type="curve" smooth="yes"/>
      <point x="758" y="1331" type="line" smooth="yes"/>
      <point x="856" y="1331"/>
      <point x="935.982" y="1297.99"/>
      <point x="997" y="1233" type="curve" smooth="yes"/>
      <point x="1058.98" y="1166.98"/>
      <point x="1090" y="1085"/>
      <point x="1090" y="985" type="curve" smooth="yes"/>
      <point x="1090" y="897"/>
      <point x="1054.05" y="825.943"/>
      <point x="985" y="770" type="curve" smooth="yes"/>
      <point x="917.047" y="714.944"/>
      <point x="838" y="688"/>
      <point x="748" y="688" type="curve" smooth="yes"/>
      <point x="324" y="688" type="line"/>
      <point x="1141" y="90" type="line" smooth="yes"/>
      <point x="1154.88" y="79.8378"/>
      <point x="1163" y="66"/>
    </contour>
    <contour>
      <point x="987" y="985" type="curve" smooth="yes"/>
      <point x="987" y="1126"/>
      <point x="897.002" y="1229"/>
      <point x="758" y="1229" type="curve" smooth="yes"/>
      <point x="205" y="1229" type="line"/>
      <point x="205" y="791" type="line"/>
      <point x="748" y="791" type="line" smooth="yes"/>
      <point x="809.002" y="791"/>
      <point x="863.83" y="809.233"/>
      <point x="913" y="844" type="curve" smooth="yes"/>
      <point x="962.836" y="879.238"/>
      <point x="987" y="926"/>
    </contour>
  </outline>
</glyph>
<glyph name="U" format="2">
  <advance width="1229"/>
  <unicode hex="0055"/>
  <outline>
    <contour>
      <point x="1065" y="479" type="line" smooth="yes"/>
      <point x="1065" y="345.991"/>
      <point x="1017.51" y="231.501"/>
      <point x="924" y="139" type="curve" smooth="yes"/>
      <point x="831.506" y="47.501"/>
      <point x="717" y="0"/>
      <point x="584" y="0" type="curve" smooth="yes"/>
      <point x="449" y="0"/>
      <point x="334" y="47"/>
      <point x="242" y="139" type="curve" smooth="yes"/>
      <point x="150" y="231"/>
      <point x="102" y="345.996"/>
      <point x="102" y="481" type="curve" smooth="yes"/>
      <point x="102" y="1280" type="line" smooth="yes"/>
      <point x="102" y="1311"/>
      <point x="119" y="1329"/>
      <point x="154" y="1331" type="curve"/>
      <point x="188" y="1329"/>
      <point x="205" y="1311"/>
      <point x="205" y="1280" type="curve" smooth="yes"/>
      <point x="205" y="481" type="line" smooth="yes"/>
      <point x="205" y="374.997"/>
      <point x="240.749" y="283.75"/>
      <point x="313" y="211" type="curve" smooth="yes"/>
      <point x="385.748" y="137.75"/>
      <point x="476.996" y="102"/>
      <point x="584" y="102" type="curve" smooth="yes"/>
      <point x="690.004" y="102"/>
      <point x="780.002" y="139.001"/>
      <point x="852" y="211" type="curve" smooth="yes"/>
      <point x="925.998" y="284.998"/>
      <point x="963" y="374.993"/>
      <point x="963" y="479" type="curve" smooth="yes"/>
      <point x="963" y="1282" type="line" smooth="yes"/>
      <point x="963" y="1313"/>
      <point x="979" y="1331"/>
      <point x="1014" y="1333" type="curve"/>
      <point x="1049" y="1331"/>
      <point x="1065" y="1313"/>
      <point x="1065" y="1282" type="curve" smooth="yes"/>
    </contour>
  </outline>
</glyph>
<glyph name="V" format="2">
  <advance width="1229"/>
  <unicode hex="0056"/>
  <outline>
    <contour>
      <point x="1098" y="1282" type="curve" smooth="yes"/>
      <point x="1098" y="1276"/>
      <point x="1096" y="1270"/>
      <point x="1094" y="1262" type="curve"/>
      <point x="647" y="33" type="line" smooth="yes"/>
      <point x="638.677" y="10.1147"/>
      <point x="623" y="-2"/>
      <point x="598" y="0" type="curve"/>
      <point x="573" y="-2"/>
      <point x="557.323" y="10.1147"/>
      <point x="549" y="33" type="curve" smooth="yes"/>
      <point x="102" y="1262" type="line"/>
      <point x="100" y="1270"/>
      <point x="98" y="1276"/>
      <point x="98" y="1282" type="curve" smooth="yes"/>
      <point x="98" y="1303"/>
      <point x="111" y="1317"/>
      <point x="133" y="1327" type="curve"/>
      <point x="166" y="1337"/>
      <point x="188.415" y="1327.16"/>
      <point x="199" y="1298" type="curve" smooth="yes"/>
      <point x="598" y="199" type="line"/>
      <point x="997" y="1298" type="line" smooth="yes"/>
      <point x="1007.59" y="1327.16"/>
      <point x="1030" y="1337"/>
      <point x="1063" y="1327" type="curve"/>
      <point x="1085" y="1317"/>
      <point x="1098" y="1303"/>
    </contour>
  </outline>
</glyph>
<glyph name="W" format="2">
  <advance width="2048"/>
  <unicode hex="0057"/>
  <outline>
    <contour>
      <point x="1972" y="1282" type="curve" smooth="yes"/>
      <point x="1972" y="1276"/>
      <point x="1970" y="1270"/>
      <point x="1968" y="1262" type="curve"/>
      <point x="1522" y="33" type="line" smooth="yes"/>
      <point x="1513.69" y="10.1092"/>
      <point x="1497" y="-2"/>
      <point x="1473" y="0" type="curve"/>
      <point x="1448" y="-2"/>
      <point x="1431.3" y="10.107"/>
      <point x="1423" y="33" type="curve" smooth="yes"/>
      <point x="1024" y="1133" type="line"/>
      <point x="625" y="33" type="line" smooth="yes"/>
      <point x="616.696" y="10.107"/>
      <point x="600" y="-2"/>
      <point x="575" y="0" type="curve"/>
      <point x="551" y="-2"/>
      <point x="534.307" y="10.1093"/>
      <point x="526" y="33" type="curve" smooth="yes"/>
      <point x="80" y="1262" type="line"/>
      <point x="78" y="1270"/>
      <point x="76" y="1276"/>
      <point x="76" y="1282" type="curve" smooth="yes"/>
      <point x="76" y="1303"/>
      <point x="88" y="1317"/>
      <point x="111" y="1327" type="curve"/>
      <point x="143" y="1337"/>
      <point x="165.531" y="1326.84"/>
      <point x="176" y="1298" type="curve" smooth="yes"/>
      <point x="575" y="199" type="line"/>
      <point x="975" y="1298" type="line" smooth="yes"/>
      <point x="983.329" y="1320.88"/>
      <point x="999" y="1333"/>
      <point x="1024" y="1331" type="curve"/>
      <point x="1049" y="1333"/>
      <point x="1064.67" y="1320.88"/>
      <point x="1073" y="1298" type="curve" smooth="yes"/>
      <point x="1473" y="199" type="line"/>
      <point x="1872" y="1298" type="line" smooth="yes"/>
      <point x="1882.47" y="1326.83"/>
      <point x="1905" y="1337"/>
      <point x="1937" y="1327" type="curve"/>
      <point x="1960" y="1317"/>
      <point x="1972" y="1303"/>
    </contour>
  </outline>
</glyph>
<glyph name="Y" format="2">
  <advance width="1331"/>
  <unicode hex="0059"/>
  <outline>
    <contour>
      <point x="1198" y="1249" type="curve" smooth="yes"/>
      <point x="707" y="610" type="line"/>
      <point x="707" y="51" type="line" smooth="yes"/>
      <point x="707" y="19.9988"/>
      <point x="690" y="2"/>
      <point x="655" y="0" type="curve"/>
      <point x="621" y="2"/>
      <point x="604" y="19.9988"/>
      <point x="604" y="51" type="curve" smooth="yes"/>
      <point x="604" y="606" type="line"/>
      <point x="106" y="1249" type="line" smooth="yes"/>
      <point x="85.055" y="1276.04"/>
      <point x="89.9448" y="1300.07"/>
      <point x="117" y="1321" type="curve" smooth="yes"/>
      <point x="142.946" y="1341.07"/>
      <point x="167.948" y="1338.96"/>
      <point x="188" y="1313" type="curve" smooth="yes"/>
      <point x="653" y="711" type="line"/>
      <point x="1116" y="1311" type="line" smooth="yes"/>
      <point x="1136.04" y="1336.97"/>
      <point x="1160.94" y="1341.93"/>
      <point x="1188" y="1321" type="curve" smooth="yes"/>
      <point x="1213.95" y="1300.93"/>
      <point x="1218.84" y="1276.12"/>
    </contour>
  </outline>
</glyph>
<glyph name="bracketleft" format="2">
  <advance width="717"/>
  <unicode hex="005B"/>
  <outline>
    <contour>
      <point x="520" y="1280" type="curve"/>
      <point x="518" y="1245"/>
      <point x="500.001" y="1229"/>
      <point x="469" y="1229" type="curve" smooth="yes"/>
      <point x="272" y="1229" type="line"/>
      <point x="272" y="102" type="line"/>
      <point x="467" y="102" type="line" smooth="yes"/>
      <point x="498.001" y="102"/>
      <point x="516" y="86"/>
      <point x="518" y="51" type="curve"/>
      <point x="516" y="16"/>
      <point x="498" y="0"/>
      <point x="467" y="0" type="curve" smooth="yes"/>
      <point x="219" y="0" type="line" smooth="yes"/>
      <point x="184" y="0"/>
      <point x="168" y="16"/>
      <point x="168" y="51" type="curve" smooth="yes"/>
      <point x="168" y="1280" type="line" smooth="yes"/>
      <point x="168" y="1311"/>
      <point x="184" y="1331"/>
      <point x="219" y="1331" type="curve" smooth="yes"/>
      <point x="469" y="1331" type="line" smooth="yes"/>
      <point x="500" y="1331"/>
      <point x="518" y="1315"/>
    </contour>
  </outline>
</glyph>
<glyph name="i" format="2">
  <advance width="307"/>
  <unicode hex="0069"/>
  <outline>
    <contour>
      <point x="213" y="1004" type="curve" smooth="yes"/>
      <point x="213" y="965"/>
      <point x="193" y="944"/>
      <point x="154" y="944" type="curve" smooth="yes"/>
      <point x="115" y="944"/>
      <point x="94" y="965"/>
      <point x="94" y="1004" type="curve" smooth="yes"/>
      <point x="94" y="1042"/>
      <point x="115" y="1063"/>
      <point x="154" y="1063" type="curve" smooth="yes"/>
      <point x="193" y="1063"/>
      <point x="213" y="1042"/>
    </contour>
    <contour>
      <point x="205" y="51" type="line" smooth="yes"/>
      <point x="205" y="20"/>
      <point x="188" y="2"/>
      <point x="154" y="0" type="curve"/>
      <point x="119" y="2"/>
      <point x="102" y="20"/>
      <point x="102" y="51" type="curve" smooth="yes" name=".hr01"/>
      <point x="102" y="633" type="line" smooth="yes"/>
      <point x="102" y="664"/>
      <point x="119" y="682"/>
      <point x="154" y="684" type="curve"/>
      <point x="188" y="682"/>
      <point x="205" y="664"/>
      <point x="205" y="633" type="curve" smooth="yes"/>
    </contour>
  </outline>
</glyph>
<glyph name="j" format="2">
  <advance width="410"/>
  <unicode hex="006A"/>
  <outline>
    <contour>
      <point x="313" y="1004" type="curve" smooth="yes"/>
      <point x="313" y="965"/>
      <point x="293" y="944"/>
      <point x="254" y="944" type="curve" smooth="yes"/>
      <point x="215" y="944"/>
      <point x="195" y="965"/>
      <point x="195" y="1004" type="curve" smooth="yes"/>
      <point x="195" y="1042"/>
      <point x="215" y="1063"/>
      <point x="254" y="1063" type="curve" smooth="yes"/>
      <point x="293" y="1063"/>
      <point x="313" y="1042"/>
    </contour>
    <contour>
      <point x="305" y="-268" type="line" smooth="yes"/>
      <point x="305" y="-369" name=".hr01"/>
      <point x="280.798" y="-458.87"/>
      <point x="229" y="-541" type="curve" smooth="yes"/>
      <point x="169.798" y="-634.87"/>
      <point x="94" y="-682"/>
      <point x="0" y="-682" type="curve" smooth="yes"/>
      <point x="-98" y="-682"/>
      <point x="-184" y="-633"/>
      <point x="-256" y="-535" type="curve"/>
      <point x="-266" y="-524"/>
      <point x="-272" y="-514"/>
      <point x="-272" y="-500" type="curve" smooth="yes"/>
      <point x="-272" y="-465"/>
      <point x="-256" y="-449"/>
      <point x="-221" y="-449" type="curve" smooth="yes"/>
      <point x="-207" y="-449"/>
      <point x="-194.239" y="-452.222"/>
      <point x="-184" y="-463" type="curve" smooth="yes"/>
      <point x="-137.236" y="-512.226"/>
      <point x="-109.352" y="-539.437"/>
      <point x="-102" y="-545" type="curve" smooth="yes"/>
      <point x="-72.3347" y="-567.449"/>
      <point x="-37" y="-580"/>
      <point x="2" y="-580" type="curve" smooth="yes"/>
      <point x="61" y="-580"/>
      <point x="112.33" y="-542.188"/>
      <point x="152" y="-471" type="curve" smooth="yes"/>
      <point x="185.334" y="-411.182"/>
      <point x="203" y="-348"/>
      <point x="203" y="-281" type="curve" smooth="yes"/>
      <point x="203" y="633" type="line" smooth="yes"/>
      <point x="203" y="664"/>
      <point x="219" y="682"/>
      <point x="254" y="684" type="curve"/>
      <point x="289" y="682"/>
      <point x="305" y="664"/>
      <point x="305" y="633" type="curve" smooth="yes"/>
    </contour>
  </outline>
</glyph>
<glyph name="copyright" format="2">
  <advance width="1024"/>
  <unicode hex="00A9"/>
  <outline>
    <contour>
      <point x="899" y="651" type="curve" smooth="yes"/>
      <point x="899" y="532"/>
      <point x="856" y="430"/>
      <point x="772" y="346" type="curve" smooth="yes"/>
      <point x="688" y="262"/>
      <point x="588" y="221"/>
      <point x="471" y="221" type="curve" smooth="yes"/>
      <point x="352" y="221"/>
      <point x="250" y="262"/>
      <point x="166" y="346" type="curve" smooth="yes"/>
      <point x="82" y="430"/>
      <point x="41" y="532"/>
      <point x="41" y="651" type="curve" smooth="yes"/>
      <point x="41" y="770"/>
      <point x="82" y="870"/>
      <point x="166" y="954" type="curve" smooth="yes"/>
      <point x="250" y="1038"/>
      <point x="352" y="1081"/>
      <point x="471" y="1081" type="curve" smooth="yes"/>
      <point x="588" y="1081"/>
      <point x="688" y="1038"/>
      <point x="772" y="954" type="curve" smooth="yes"/>
      <point x="856" y="870"/>
      <point x="899" y="770"/>
    </contour>
    <contour>
      <point x="848" y="651" type="curve" smooth="yes"/>
      <point x="848" y="756.004"/>
      <point x="810.998" y="846.002"/>
      <point x="737" y="920" type="curve" smooth="yes"/>
      <point x="664" y="993"/>
      <point x="575" y="1030"/>
      <point x="471" y="1030" type="curve" smooth="yes"/>
      <point x="367" y="1030"/>
      <point x="276" y="993"/>
      <point x="203" y="920" type="curve" smooth="yes"/>
      <point x="129.002" y="846.002"/>
      <point x="92" y="756.004"/>
      <point x="92" y="651" type="curve" smooth="yes"/>
      <point x="92" y="546.996"/>
      <point x="129.003" y="458.004"/>
      <point x="203" y="383" type="curve" smooth="yes"/>
      <point x="276.003" y="309.004"/>
      <point x="367" y="272"/>
      <point x="471" y="272" type="curve" smooth="yes"/>
      <point x="575" y="272"/>
      <point x="663.747" y="309.252"/>
      <point x="737" y="383" type="curve" smooth="yes"/>
      <point x="811.747" y="458.252"/>
      <point x="848" y="546.996"/>
    </contour>
    <contour>
      <point x="627" y="573" type="curve" smooth="yes"/>
      <point x="593" y="505"/>
      <point x="543" y="471"/>
      <point x="475" y="471" type="curve" smooth="yes"/>
      <point x="424" y="471"/>
      <point x="383.909" y="491.925"/>
      <point x="350" y="532" type="curve" smooth="yes"/>
      <point x="317.911" y="569.924"/>
      <point x="301" y="612"/>
      <point x="301" y="664" type="curve" smooth="yes"/>
      <point x="301" y="764"/>
      <point x="375" y="856"/>
      <point x="475" y="856" type="curve" smooth="yes"/>
      <point x="530" y="856"/>
      <point x="576.793" y="830.855"/>
      <point x="612" y="780" type="curve" smooth="yes"/>
      <point x="621.792" y="765.855"/>
      <point x="621.034" y="751.96"/>
      <point x="606" y="739" type="curve" smooth="yes"/>
      <point x="592.034" y="726.96"/>
      <point x="576.553" y="728.629"/>
      <point x="565" y="743" type="curve" smooth="yes"/>
      <point x="535.545" y="779.639"/>
      <point x="506" y="799"/>
      <point x="475" y="799" type="curve" smooth="yes"/>
      <point x="410" y="799"/>
      <point x="358" y="731"/>
      <point x="358" y="664" type="curve" smooth="yes"/>
      <point x="358" y="598"/>
      <point x="410" y="530"/>
      <point x="475" y="530" type="curve" smooth="yes"/>
      <point x="522" y="530"/>
      <point x="554.758" y="553.096"/>
      <point x="573" y="598" type="curve" smooth="yes"/>
      <point x="580.759" y="617.1"/>
      <point x="594.102" y="620.224"/>
      <point x="612" y="612" type="curve" smooth="yes"/>
      <point x="631.103" y="603.223"/>
      <point x="636" y="591"/>
    </contour>
  </outline>
</glyph>
<glyph name="paragraph" format="2">
  <advance width="1024"/>
  <unicode hex="00B6"/>
  <outline>
    <contour>
      <point x="784" y="55" type="line" smooth="yes"/>
      <point x="784" y="18"/>
      <point x="766" y="0"/>
      <point x="731" y="0" type="curve" smooth="yes"/>
      <point x="698" y="0"/>
      <point x="682" y="18"/>
      <point x="682" y="55" type="curve" smooth="yes"/>
      <point x="682" y="721" type="line"/>
      <point x="512" y="721" type="line"/>
      <point x="512" y="51" type="line" smooth="yes"/>
      <point x="512" y="20"/>
      <point x="496" y="2"/>
      <point x="461" y="0" type="curve"/>
      <point x="426" y="2"/>
      <point x="410" y="20"/>
      <point x="410" y="51" type="curve" smooth="yes"/>
      <point x="410" y="721" type="line"/>
      <point x="336" y="721" type="line" smooth="yes"/>
      <point x="252" y="721"/>
      <point x="178.247" y="750.251"/>
      <point x="119" y="809" type="curve" smooth="yes"/>
      <point x="59.2472" y="868.25"/>
      <point x="31" y="942"/>
      <point x="31" y="1026" type="curve" smooth="yes"/>
      <point x="31" y="1110"/>
      <point x="59.2472" y="1181.75"/>
      <point x="119" y="1241" type="curve" smooth="yes"/>
      <point x="178.247" y="1299.75"/>
      <point x="249.995" y="1331"/>
      <point x="334" y="1331" type="curve" smooth="yes"/>
      <point x="733" y="1331" type="line" smooth="yes"/>
      <point x="768.002" y="1331"/>
      <point x="784" y="1315"/>
      <point x="784" y="1280" type="curve" smooth="yes"/>
    </contour>
    <contour>
      <point x="682" y="823" type="line"/>
      <point x="682" y="1229" type="line"/>
      <point x="512" y="1229" type="line"/>
      <point x="512" y="823" type="line"/>
    </contour>
    <contour>
      <point x="410" y="823" type="line"/>
      <point x="410" y="1229" type="line"/>
      <point x="332" y="1229" type="line" smooth="yes"/>
      <point x="219" y="1229"/>
      <point x="129" y="1139"/>
      <point x="129" y="1026" type="curve" smooth="yes"/>
      <point x="129" y="917.996"/>
      <point x="221" y="823"/>
      <point x="336" y="823" type="curve" smooth="yes"/>
    </contour>
  </outline>
</glyph>
<glyph name="Aacute" format="2">
  <advance width="1331"/>
  <unicode hex="00C1"/>
  <outline>
    <contour>
      <point x="864" y="1313" type="curve" smooth="yes"/>
      <point x="864" y="1300"/>
      <point x="858.103" y="1287.9"/>
      <point x="848" y="1278" type="curve" smooth="yes"/>
      <point x="702" y="1135" type="line" smooth="yes"/>
      <point x="691.38" y="1124.6"/>
      <point x="680" y="1118"/>
      <point x="668" y="1118" type="curve" smooth="yes"/>
      <point x="643" y="1118"/>
      <point x="614" y="1147"/>
      <point x="614" y="1171" type="curve" smooth="yes"/>
      <point x="614" y="1184"/>
      <point x="620.452" y="1195.52"/>
      <point x="631" y="1206" type="curve" smooth="yes"/>
      <point x="776" y="1350" type="line" smooth="yes"/>
      <point x="786.548" y="1360.48"/>
      <point x="799" y="1366"/>
      <point x="811" y="1366" type="curve" smooth="yes"/>
      <point x="836" y="1366"/>
      <point x="864" y="1339"/>
    </contour>
    <contour>
      <point x="1192" y="51" type="curve" smooth="yes"/>
      <point x="1192" y="33"/>
      <point x="1182" y="18"/>
      <point x="1163" y="6" type="curve"/>
      <point x="1153" y="2"/>
      <point x="1145" y="0"/>
      <point x="1137" y="0" type="curve" smooth="yes"/>
      <point x="1118" y="0"/>
      <point x="1104.02" y="10.0098"/>
      <point x="1094" y="29" type="curve" smooth="yes"/>
      <point x="864" y="465" type="line"/>
      <point x="428" y="465" type="line"/>
      <point x="201" y="29" type="line" smooth="yes"/>
      <point x="191.085" y="9.95525"/>
      <point x="176" y="0"/>
      <point x="158" y="0" type="curve" smooth="yes"/>
      <point x="150" y="0"/>
      <point x="141" y="2"/>
      <point x="131" y="6" type="curve"/>
      <point x="113" y="18"/>
      <point x="102" y="33"/>
      <point x="102" y="51" type="curve" smooth="yes"/>
      <point x="102" y="59"/>
      <point x="104" y="68"/>
      <point x="111" y="76" type="curve"/>
      <point x="592" y="999" type="line" smooth="yes"/>
      <point x="609.156" y="1031.92"/>
      <point x="627" y="1049"/>
      <point x="645" y="1049" type="curve" smooth="yes"/>
      <point x="664" y="1049"/>
      <point x="681.774" y="1031.88"/>
      <point x="698" y="1001" type="curve" smooth="yes"/>
      <point x="1184" y="76" type="line"/>
      <point x="1190" y="68"/>
      <point x="1192" y="59"/>
    </contour>
    <contour>
      <point x="811" y="567" type="line"/>
      <point x="645" y="881" type="line"/>
      <point x="481" y="567" type="line"/>
    </contour>
  </outline>
</glyph>
<glyph name="Adieresis" format="2">
  <advance width="1331"/>
  <unicode hex="00C4"/>
  <outline>
    <contour>
      <point x="868" y="1174" type="curve" smooth="yes"/>
      <point x="868" y="1130"/>
      <point x="848" y="1110"/>
      <point x="805" y="1110" type="curve" smooth="yes"/>
      <point x="764" y="1110"/>
      <point x="743" y="1130"/>
      <point x="743" y="1174" type="curve" smooth="yes"/>
      <point x="743" y="1214"/>
      <point x="764" y="1235"/>
      <point x="805" y="1235" type="curve" smooth="yes"/>
      <point x="848" y="1235"/>
      <point x="868" y="1214"/>
    </contour>
    <contour>
      <point x="551" y="1174" type="curve" smooth="yes"/>
      <point x="551" y="1130"/>
      <point x="530" y="1110"/>
      <point x="487" y="1110" type="curve" smooth="yes"/>
      <point x="446" y="1110"/>
      <point x="426" y="1130"/>
      <point x="426" y="1174" type="curve" smooth="yes"/>
      <point x="426" y="1214"/>
      <point x="446" y="1235"/>
      <point x="487" y="1235" type="curve" smooth="yes"/>
      <point x="530" y="1235"/>
      <point x="551" y="1214"/>
    </contour>
    <contour>
      <point x="1192" y="51" type="curve" smooth="yes"/>
      <point x="1192" y="33"/>
      <point x="1182" y="18"/>
      <point x="1163" y="6" type="curve"/>
      <point x="1153" y="2"/>
      <point x="1145" y="0"/>
      <point x="1137" y="0" type="curve" smooth="yes"/>
      <point x="1118" y="0"/>
      <point x="1104.02" y="10.0098"/>
      <point x="1094" y="29" type="curve" smooth="yes"/>
      <point x="864" y="465" type="line"/>
      <point x="428" y="465" type="line"/>
      <point x="201" y="29" type="line" smooth="yes"/>
      <point x="191.085" y="9.95525"/>
      <point x="176" y="0"/>
      <point x="158" y="0" type="curve" smooth="yes"/>
      <point x="150" y="0"/>
      <point x="141" y="2"/>
      <point x="131" y="6" type="curve"/>
      <point x="113" y="18"/>
      <point x="102" y="33"/>
      <point x="102" y="51" type="curve" smooth="yes"/>
      <point x="102" y="59"/>
      <point x="104" y="68"/>
      <point x="111" y="76" type="curve"/>
      <point x="592" y="999" type="line" smooth="yes"/>
      <point x="609.156" y="1031.92"/>
      <point x="627" y="1049"/>
      <point x="645" y="1049" type="curve" smooth="yes"/>
      <point x="664" y="1049"/>
      <point x="681.774" y="1031.88"/>
      <point x="698" y="1001" type="curve" smooth="yes"/>
      <point x="1184" y="76" type="line"/>
      <point x="1190" y="68"/>
      <point x="1192" y="59"/>
    </contour>
    <contour>
      <point x="811" y="567" type="line"/>
      <point x="645" y="881" type="line"/>
      <point x="483" y="567" type="line"/>
    </contour>
  </outline>
</glyph>
<glyph name="Iacute" format="2">
  <advance width="717"/>
  <unicode hex="00CD"/>
  <outline>
    <contour>
      <point x="426" y="1313" type="curve" smooth="yes"/>
      <point x="426" y="1300"/>
      <point x="420.103" y="1287.9"/>
      <point x="410" y="1278" type="curve" smooth="yes"/>
      <point x="264" y="1135" type="line" smooth="yes"/>
      <point x="253.38" y="1124.6"/>
      <point x="242" y="1118"/>
      <point x="229" y="1118" type="curve" smooth="yes"/>
      <point x="205" y="1118"/>
      <point x="176" y="1147"/>
      <point x="176" y="1171" type="curve" smooth="yes"/>
      <point x="176" y="1184"/>
      <point x="182.452" y="1195.52"/>
      <point x="193" y="1206" type="curve" smooth="yes"/>
      <point x="338" y="1350" type="line" smooth="yes"/>
      <point x="348.035" y="1359.97"/>
      <point x="360" y="1366"/>
      <point x="373" y="1366" type="curve" smooth="yes"/>
      <point x="399" y="1366"/>
      <point x="426" y="1339"/>
    </contour>
    <contour>
      <point x="489" y="51" type="curve"/>
      <point x="487" y="16"/>
      <point x="469" y="0"/>
      <point x="438" y="0" type="curve" smooth="yes"/>
      <point x="164" y="0" type="line" smooth="yes"/>
      <point x="133" y="0"/>
      <point x="115" y="16"/>
      <point x="113" y="51" type="curve"/>
      <point x="115" y="86"/>
      <point x="133" y="102"/>
      <point x="164" y="102" type="curve" smooth="yes"/>
      <point x="250" y="102" type="line"/>
      <point x="250" y="1006" type="line"/>
      <point x="154" y="1006" type="line" smooth="yes"/>
      <point x="123" y="1006"/>
      <point x="104" y="1022"/>
      <point x="102" y="1057" type="curve"/>
      <point x="104" y="1092"/>
      <point x="123" y="1108"/>
      <point x="154" y="1108" type="curve" smooth="yes"/>
      <point x="428" y="1108" type="line" smooth="yes"/>
      <point x="459" y="1108"/>
      <point x="477" y="1092"/>
      <point x="479" y="1057" type="curve"/>
      <point x="477" y="1022"/>
      <point x="459" y="1006"/>
      <point x="428" y="1006" type="curve" smooth="yes"/>
      <point x="352" y="1006" type="line"/>
      <point x="352" y="102" type="line"/>
      <point x="438" y="102" type="line" smooth="yes"/>
      <point x="469" y="102"/>
      <point x="487" y="86"/>
    </contour>
  </outline>
</glyph>
<glyph name="Ugrave" format="2">
  <advance width="1229"/>
  <unicode hex="00D9"/>
  <outline>
    <contour>
      <point x="709" y="1161" type="curve" smooth="yes"/>
      <point x="709" y="1137"/>
      <point x="680" y="1108"/>
      <point x="655" y="1108" type="curve" smooth="yes"/>
      <point x="643" y="1108"/>
      <point x="631.068" y="1114.07"/>
      <point x="621" y="1124" type="curve" smooth="yes"/>
      <point x="475" y="1268" type="line" smooth="yes"/>
      <point x="464.932" y="1277.93"/>
      <point x="459" y="1290"/>
      <point x="459" y="1303" type="curve" smooth="yes"/>
      <point x="459" y="1329"/>
      <point x="485" y="1356"/>
      <point x="512" y="1356" type="curve" smooth="yes"/>
      <point x="524" y="1356"/>
      <point x="536.415" y="1349.44"/>
      <point x="547" y="1339" type="curve" smooth="yes"/>
      <point x="692" y="1196" type="line" smooth="yes"/>
      <point x="702.585" y="1185.56"/>
      <point x="709" y="1174"/>
    </contour>
    <contour>
      <point x="1065" y="479" type="line" smooth="yes"/>
      <point x="1065" y="345.998"/>
      <point x="1017.51" y="231.5"/>
      <point x="924" y="139" type="curve" smooth="yes"/>
      <point x="831.506" y="47.501"/>
      <point x="717" y="0"/>
      <point x="584" y="0" type="curve" smooth="yes"/>
      <point x="449" y="0"/>
      <point x="334" y="47"/>
      <point x="242" y="139" type="curve" smooth="yes"/>
      <point x="150" y="231"/>
      <point x="102" y="345.996"/>
      <point x="102" y="481" type="curve" smooth="yes"/>
      <point x="102" y="1047" type="line" smooth="yes"/>
      <point x="102" y="1077"/>
      <point x="119" y="1096"/>
      <point x="154" y="1098" type="curve"/>
      <point x="188" y="1096"/>
      <point x="205" y="1077"/>
      <point x="205" y="1047" type="curve" smooth="yes"/>
      <point x="205" y="481" type="line" smooth="yes"/>
      <point x="205" y="374.997"/>
      <point x="240.749" y="283.75"/>
      <point x="313" y="211" type="curve" smooth="yes"/>
      <point x="385.748" y="137.75"/>
      <point x="476.996" y="102"/>
      <point x="584" y="102" type="curve" smooth="yes"/>
      <point x="690.004" y="102"/>
      <point x="780.002" y="139.001"/>
      <point x="852" y="211" type="curve" smooth="yes"/>
      <point x="925.998" y="284.998"/>
      <point x="963" y="374.999"/>
      <point x="963" y="479" type="curve" smooth="yes"/>
      <point x="963" y="1044" type="line" smooth="yes"/>
      <point x="963" y="1075"/>
      <point x="979" y="1094"/>
      <point x="1014" y="1096" type="curve"/>
      <point x="1049" y="1094"/>
      <point x="1065" y="1075"/>
      <point x="1065" y="1044" type="curve" smooth="yes"/>
    </contour>
  </outline>
</glyph>
<glyph name="Uacute" format="2">
  <advance width="1229"/>
  <unicode hex="00DA"/>
  <outline>
    <contour>
      <point x="709" y="1313" type="curve" smooth="yes"/>
      <point x="709" y="1300"/>
      <point x="702.585" y="1288.44"/>
      <point x="692" y="1278" type="curve" smooth="yes"/>
      <point x="547" y="1135" type="line" smooth="yes"/>
      <point x="536.415" y="1124.56"/>
      <point x="524" y="1118"/>
      <point x="512" y="1118" type="curve" smooth="yes"/>
      <point x="487" y="1118"/>
      <point x="459" y="1147"/>
      <point x="459" y="1171" type="curve" smooth="yes"/>
      <point x="459" y="1184"/>
      <point x="464.931" y="1196.07"/>
      <point x="475" y="1206" type="curve" smooth="yes"/>
      <point x="621" y="1350" type="line" smooth="yes"/>
      <point x="631.068" y="1359.93"/>
      <point x="643" y="1366"/>
      <point x="655" y="1366" type="curve" smooth="yes"/>
      <point x="682" y="1366"/>
      <point x="709" y="1339"/>
    </contour>
    <contour>
      <point x="1065" y="479" type="line" smooth="yes"/>
      <point x="1065" y="345.998"/>
      <point x="1017.51" y="231.5"/>
      <point x="924" y="139" type="curve" smooth="yes"/>
      <point x="831.506" y="47.501"/>
      <point x="717" y="0"/>
      <point x="584" y="0" type="curve" smooth="yes"/>
      <point x="449" y="0"/>
      <point x="334" y="47"/>
      <point x="242" y="139" type="curve" smooth="yes"/>
      <point x="150" y="231"/>
      <point x="102" y="345.996"/>
      <point x="102" y="481" type="curve" smooth="yes"/>
      <point x="102" y="1047" type="line" smooth="yes"/>
      <point x="102" y="1077"/>
      <point x="119" y="1096"/>
      <point x="154" y="1098" type="curve"/>
      <point x="188" y="1096"/>
      <point x="205" y="1077"/>
      <point x="205" y="1047" type="curve" smooth="yes"/>
      <point x="205" y="481" type="line" smooth="yes"/>
      <point x="205" y="374.997"/>
      <point x="240.749" y="283.75"/>
      <point x="313" y="211" type="curve" smooth="yes"/>
      <point x="385.748" y="137.75"/>
      <point x="476.996" y="102"/>
      <point x="584" y="102" type="curve" smooth="yes"/>
      <point x="690.004" y="102"/>
      <point x="780.002" y="139.001"/>
      <point x="852" y="211" type="curve" smooth="yes"/>
      <point x="925.998" y="284.998"/>
      <point x="963" y="374.999"/>
      <point x="963" y="479" type="curve" smooth="yes"/>
      <point x="963" y="1044" type="line" smooth="yes"/>
      <point x="963" y="1075"/>
      <point x="979" y="1094"/>
      <point x="1014" y="1096" type="curve"/>
      <point x="1049" y="1094"/>
      <point x="1065" y="1075"/>
      <point x="1065" y="1044" type="curve" smooth="yes"/>
    </contour>
  </outline>
</glyph>
<glyph name="acircumflex" format="2">
  <advance width="819"/>
  <unicode hex="00E2"/>
  <outline>
    <contour>
      <point x="713" y="825" type="curve" smooth="yes"/>
      <point x="713" y="801"/>
      <point x="684" y="772"/>
      <point x="659" y="772" type="curve" smooth="yes"/>
      <point x="647" y="772"/>
      <point x="635" y="778"/>
      <point x="625" y="788" type="curve" smooth="yes"/>
      <point x="426" y="987" type="line"/>
      <point x="229" y="788" type="line" smooth="yes"/>
      <point x="219.05" y="777.949"/>
      <point x="207" y="772"/>
      <point x="195" y="772" type="curve" smooth="yes"/>
      <point x="170" y="772"/>
      <point x="141" y="801"/>
      <point x="141" y="825" type="curve" smooth="yes"/>
      <point x="141" y="838"/>
      <point x="147.511" y="849.465"/>
      <point x="158" y="860" type="curve" smooth="yes"/>
      <point x="391" y="1094" type="line" smooth="yes"/>
      <point x="400.979" y="1104.02"/>
      <point x="414" y="1110"/>
      <point x="426" y="1110" type="curve" smooth="yes"/>
      <point x="428" y="1110" type="line" smooth="yes"/>
      <point x="440" y="1110"/>
      <point x="453.021" y="1104.02"/>
      <point x="463" y="1094" type="curve" smooth="yes"/>
      <point x="696" y="860" type="line" smooth="yes"/>
      <point x="706.489" y="849.465"/>
      <point x="713" y="838"/>
    </contour>
    <contour>
      <point x="719" y="51" type="line" smooth="yes"/>
      <point x="719" y="20"/>
      <point x="702" y="2"/>
      <point x="668" y="0" type="curve"/>
      <point x="633" y="2"/>
      <point x="616" y="20"/>
      <point x="616" y="51" type="curve" smooth="yes"/>
      <point x="616" y="92" type="line"/>
      <point x="557" y="31"/>
      <point x="489" y="0"/>
      <point x="410" y="0" type="curve" smooth="yes"/>
      <point x="322" y="0"/>
      <point x="247.863" y="34.8812"/>
      <point x="188" y="106" type="curve" smooth="yes"/>
      <point x="130.86" y="173.884"/>
      <point x="102" y="252"/>
      <point x="102" y="342" type="curve" smooth="yes"/>
      <point x="102" y="432"/>
      <point x="130.451" y="512.614"/>
      <point x="188" y="580" type="curve" smooth="yes"/>
      <point x="247.451" y="649.613"/>
      <point x="322" y="684"/>
      <point x="410" y="684" type="curve" smooth="yes"/>
      <point x="489" y="684"/>
      <point x="557" y="653"/>
      <point x="616" y="592" type="curve"/>
      <point x="616" y="633" type="line" smooth="yes"/>
      <point x="616" y="664"/>
      <point x="633" y="682"/>
      <point x="668" y="684" type="curve"/>
      <point x="702" y="682"/>
      <point x="719" y="664"/>
      <point x="719" y="633" type="curve" smooth="yes"/>
    </contour>
    <contour>
      <point x="614" y="342" type="curve" smooth="yes"/>
      <point x="614" y="401"/>
      <point x="596.251" y="457.197"/>
      <point x="559" y="504" type="curve" smooth="yes"/>
      <point x="518.249" y="555.2"/>
      <point x="469" y="582"/>
      <point x="410" y="582" type="curve" smooth="yes"/>
      <point x="352" y="582"/>
      <point x="303" y="557"/>
      <point x="264" y="506" type="curve" smooth="yes"/>
      <point x="225" y="455"/>
      <point x="205" y="401"/>
      <point x="205" y="342" type="curve" smooth="yes"/>
      <point x="205" y="283"/>
      <point x="225" y="229"/>
      <point x="264" y="178" type="curve" smooth="yes"/>
      <point x="303" y="127"/>
      <point x="352" y="102"/>
      <point x="410" y="102" type="curve" smooth="yes"/>
      <point x="467" y="102"/>
      <point x="516" y="127"/>
      <point x="555" y="178" type="curve" smooth="yes"/>
      <point x="594" y="229"/>
      <point x="614" y="283"/>
    </contour>
  </outline>
</glyph>
<glyph name="otilde" format="2">
  <advance width="819"/>
  <unicode hex="00F5"/>
  <outline>
    <contour>
      <point x="711" y="887" type="curve" smooth="yes"/>
      <point x="711" y="872"/>
      <point x="705" y="860"/>
      <point x="694" y="848" type="curve"/>
      <point x="600" y="791"/>
      <point x="532" y="762"/>
      <point x="494" y="762" type="curve" smooth="yes"/>
      <point x="471" y="762"/>
      <point x="433.891" y="776.847"/>
      <point x="387" y="809" type="curve" smooth="yes"/>
      <point x="363.893" y="824.844"/>
      <point x="342" y="834" name=".hr01"/>
      <point x="324" y="834" type="curve" smooth="yes"/>
      <point x="289" y="834"/>
      <point x="248.024" y="813.971"/>
      <point x="197" y="772" type="curve" smooth="yes"/>
      <point x="186.024" y="762.971" name=".hr02"/>
      <point x="174" y="758"/>
      <point x="162" y="758" type="curve" smooth="yes"/>
      <point x="127" y="758"/>
      <point x="109" y="776"/>
      <point x="109" y="811" type="curve" smooth="yes"/>
      <point x="109" y="823"/>
      <point x="115" y="836"/>
      <point x="125" y="848" type="curve"/>
      <point x="215" y="907"/>
      <point x="281" y="936" name=".hr03"/>
      <point x="324" y="936" type="curve" smooth="yes"/>
      <point x="356" y="936"/>
      <point x="388.925" y="922.892"/>
      <point x="424" y="899" type="curve" smooth="yes"/>
      <point x="457.926" y="875.891"/>
      <point x="483" y="864" name=".hr04"/>
      <point x="494" y="864" type="curve" smooth="yes"/>
      <point x="518" y="864"/>
      <point x="561" y="885"/>
      <point x="625" y="924" type="curve"/>
      <point x="635" y="934"/>
      <point x="645" y="938"/>
      <point x="659" y="938" type="curve" smooth="yes"/>
      <point x="694" y="938"/>
      <point x="711" y="922"/>
    </contour>
    <contour>
      <point x="717" y="342" type="curve" smooth="yes"/>
      <point x="717" y="252"/>
      <point x="688.14" y="173.884"/>
      <point x="631" y="106" type="curve" smooth="yes"/>
      <point x="571.138" y="34.8812"/>
      <point x="498" y="0"/>
      <point x="410" y="0" type="curve" smooth="yes"/>
      <point x="322" y="0"/>
      <point x="247.863" y="34.8812"/>
      <point x="188" y="106" type="curve" smooth="yes"/>
      <point x="130.86" y="173.884"/>
      <point x="102" y="252"/>
      <point x="102" y="342" type="curve" smooth="yes"/>
      <point x="102" y="432"/>
      <point x="130.451" y="512.614"/>
      <point x="188" y="580" type="curve" smooth="yes"/>
      <point x="247.451" y="649.613"/>
      <point x="322" y="684"/>
      <point x="410" y="684" type="curve" smooth="yes"/>
      <point x="500" y="684"/>
      <point x="573.234" y="649.199"/>
      <point x="633" y="578" type="curve" smooth="yes"/>
      <point x="688.236" y="512.196"/>
      <point x="717" y="434"/>
    </contour>
    <contour>
      <point x="614" y="342" type="curve" smooth="yes"/>
      <point x="614" y="401"/>
      <point x="596.251" y="457.197"/>
      <point x="559" y="504" type="curve" smooth="yes"/>
      <point x="518.249" y="555.2"/>
      <point x="469" y="582"/>
      <point x="410" y="582" type="curve" smooth="yes"/>
      <point x="352" y="582"/>
      <point x="303" y="557"/>
      <point x="264" y="506" type="curve" smooth="yes"/>
      <point x="225" y="455"/>
      <point x="205" y="401"/>
      <point x="205" y="342" type="curve" smooth="yes"/>
      <point x="205" y="283"/>
      <point x="225" y="229"/>
      <point x="264" y="178" type="curve" smooth="yes"/>
      <point x="303" y="127"/>
      <point x="352" y="102"/>
      <point x="410" y="102" type="curve" smooth="yes"/>
      <point x="467" y="102"/>
      <point x="516" y="127"/>
      <point x="555" y="178" type="curve" smooth="yes"/>
      <point x="594" y="229"/>
      <point x="614" y="283"/>
    </contour>
  </outline>
</glyph>
<glyph name="oe" format="2">
  <advance width="1331"/>
  <unicode hex="0153"/>
  <outline>
    <contour>
      <point x="1229" y="342" type="curve"/>
      <point x="717" y="342" type="line"/>
      <point x="717" y="326" type="line" smooth="yes"/>
      <point x="717" y="270"/>
      <point x="741" y="219"/>
      <point x="780" y="172" type="curve" smooth="yes"/>
      <point x="819" y="125"/>
      <point x="866" y="102"/>
      <point x="922" y="102" type="curve" smooth="yes"/>
      <point x="989" y="102"/>
      <point x="1042" y="131"/>
      <point x="1079" y="186" type="curve"/>
      <point x="1094" y="217"/>
      <point x="1116" y="225"/>
      <point x="1147" y="211" type="curve" smooth="yes"/>
      <point x="1178" y="197"/>
      <point x="1188" y="174"/>
      <point x="1174" y="143" type="curve"/>
      <point x="1106" y="47"/>
      <point x="1022" y="0"/>
      <point x="922" y="0" type="curve" smooth="yes"/>
      <point x="810.989" y="0"/>
      <point x="725" y="51"/>
      <point x="666" y="154" type="curve"/>
      <point x="604" y="51"/>
      <point x="518" y="0"/>
      <point x="410" y="0" type="curve" smooth="yes"/>
      <point x="322" y="0"/>
      <point x="247.86" y="34.8833"/>
      <point x="188" y="106" type="curve" smooth="yes"/>
      <point x="130.86" y="173.885"/>
      <point x="102" y="252"/>
      <point x="102" y="342" type="curve" smooth="yes"/>
      <point x="102" y="432"/>
      <point x="130.449" y="512.611"/>
      <point x="188" y="580" type="curve" smooth="yes"/>
      <point x="247.452" y="649.616"/>
      <point x="322" y="684"/>
      <point x="410" y="684" type="curve" smooth="yes"/>
      <point x="520" y="684"/>
      <point x="606" y="633"/>
      <point x="666" y="532" type="curve"/>
      <point x="725" y="633"/>
      <point x="810.984" y="684"/>
      <point x="922" y="684" type="curve" smooth="yes"/>
      <point x="1010.01" y="684"/>
      <point x="1082.64" y="648.682"/>
      <point x="1143" y="578" type="curve" smooth="yes"/>
      <point x="1199.63" y="511.689"/>
      <point x="1229" y="434"/>
    </contour>
    <contour>
      <point x="1104" y="444" type="line"/>
      <point x="1065" y="537"/>
      <point x="1004" y="582"/>
      <point x="922" y="582" type="curve" smooth="yes"/>
      <point x="840" y="582"/>
      <point x="778" y="537"/>
      <point x="739" y="444" type="curve"/>
    </contour>
    <contour>
      <point x="614" y="358" type="curve" smooth="yes"/>
      <point x="614" y="417"/>
      <point x="596.25" y="457.197"/>
      <point x="559" y="504" type="curve" smooth="yes"/>
      <point x="518.25" y="555.2"/>
      <point x="469" y="582"/>
      <point x="410" y="582" type="curve" smooth="yes"/>
      <point x="352" y="582"/>
      <point x="303" y="557"/>
      <point x="264" y="506" type="curve" smooth="yes"/>
      <point x="225" y="455"/>
      <point x="205" y="401"/>
      <point x="205" y="342" type="curve" smooth="yes"/>
      <point x="205" y="283"/>
      <point x="225" y="229"/>
      <point x="264" y="178" type="curve" smooth="yes"/>
      <point x="303" y="127"/>
      <point x="352" y="102"/>
      <point x="410" y="102" type="curve" smooth="yes"/>
      <point x="467" y="102"/>
      <point x="516" y="127"/>
      <point x="555" y="178" type="curve" smooth="yes"/>
      <point x="594" y="229"/>
      <point x="614" y="299"/>
    </contour>
  </outline>
</glyph>
<glyph name="uni1200" format="2">
  <advance width="900"/>
  <unicode hex="1200"/>
  <outline>
    <component base="bar"/>
    <contour>
      <point x="788.711" y="1175.08" type="curve" smooth="yes"/>
      <point x="901.015" y="970.442"/>
      <point x="804.193" y="572.941"/>
      <point x="733.646" y="405.824" type="curve" smooth="yes"/>
      <point x="640.867" y="186.042"/>
      <point x="477.47" y="-38"/>
      <point x="310.962" y="-38" type="curve"/>
      <point x="93.6753" y="-38"/>
      <point x="-22.5982" y="126.199"/>
      <point x="14.5805" y="323.941" type="curve"/>
      <point x="14.5805" y="323.941"/>
      <point x="148.613" y="1036.67"/>
      <point x="160.126" y="1098.05" type="curve" smooth="yes"/>
      <point x="178.476" y="1195.86"/>
      <point x="325.869" y="1168.01"/>
      <point x="307.58" y="1070.53" type="curve" smooth="yes"/>
      <point x="255.546" y="793.177"/>
      <point x="163.108" y="300.995"/>
      <point x="163.108" y="300.995" type="curve"/>
      <point x="141.789" y="187.434"/>
      <point x="203.549" y="112"/>
      <point x="310.962" y="112" type="curve"/>
      <point x="367.06" y="112"/>
      <point x="496.843" y="230.561"/>
      <point x="595.455" y="464.16" type="curve" smooth="yes"/>
      <point x="657.16" y="610.331"/>
      <point x="741.997" y="948.412"/>
      <point x="657.212" y="1102.92" type="curve" smooth="yes"/>
      <point x="609.419" y="1190.01"/>
      <point x="740.911" y="1262.18"/>
    </contour>
    <contour>
      <point x="753.645" y="1155.84" type="curve" smooth="yes"/>
      <point x="731.207" y="1196.73"/>
      <point x="669.843" y="1163.05"/>
      <point x="692.279" y="1122.16" type="curve" smooth="yes"/>
      <point x="784.246" y="954.567"/>
      <point x="699.721" y="608.301"/>
      <point x="632.306" y="448.604" type="curve" smooth="yes"/>
      <point x="535.264" y="218.726"/>
      <point x="396.484" y="72"/>
      <point x="310.962" y="72" type="curve"/>
      <point x="172.558" y="72"/>
      <point x="98.6133" y="168.96"/>
      <point x="124.37" y="306.956" type="curve"/>
      <point x="124.37" y="306.956"/>
      <point x="221.179" y="826.92"/>
      <point x="268.266" y="1077.9" type="curve" smooth="yes"/>
      <point x="276.836" y="1123.58"/>
      <point x="208.075" y="1136.7"/>
      <point x="199.44" y="1090.67" type="curve" smooth="yes"/>
      <point x="54.5505" y="318.392" type="line" smooth="yes"/>
      <point x="22.139" y="145.634"/>
      <point x="126.825" y="2"/>
      <point x="310.962" y="2" type="curve"/>
      <point x="448.016" y="2"/>
      <point x="602.456" y="197.902"/>
      <point x="696.795" y="421.38" type="curve" smooth="yes"/>
      <point x="767.515" y="588.908"/>
      <point x="855.91" y="969.489"/>
    </contour>
    <contour>
      <point x="252" y="1080" type="curve" smooth="yes"/>
      <point x="252" y="1066.19"/>
      <point x="240.807" y="1055"/>
      <point x="227" y="1055" type="curve" smooth="yes"/>
      <point x="213.193" y="1055"/>
      <point x="202" y="1066.19"/>
      <point x="202" y="1080" type="curve" smooth="yes"/>
      <point x="202" y="1093.81"/>
      <point x="213.193" y="1105"/>
      <point x="227" y="1105" type="curve" smooth="yes"/>
      <point x="240.807" y="1105"/>
      <point x="252" y="1093.81"/>
    </contour>
  </outline>
</glyph>
<glyph name="uni1202" format="2">
  <advance width="900"/>
  <unicode hex="1202"/>
  <outline>
    <component base="bar"/>
    <contour>
      <point x="839.922" y="35" type="curve" smooth="yes"/>
      <point x="839.922" y="-6.222"/>
      <point x="806.849" y="-41.097"/>
      <point x="764.83" y="-41" type="curve" smooth="yes"/>
      <point x="331.83" y="-40" type="line" smooth="yes"/>
      <point x="292.656" y="-39.9098"/>
      <point x="255.922" y="-8.8848"/>
      <point x="255.922" y="37.4512" type="curve" smooth="yes"/>
      <point x="255.922" y="39.9025" type="line"/>
      <point x="434.389" y="757.006" type="line"/>
      <point x="388.378" y="738.078"/>
      <point x="336.726" y="728"/>
      <point x="279.922" y="728" type="curve"/>
      <point x="67.4155" y="728"/>
      <point x="7.48249" y="903.891"/>
      <point x="9.93079" y="1080" type="curve"/>
      <point x="9.93079" y="1080"/>
      <point x="12.5133" y="1262.34"/>
      <point x="13.3915" y="1328.93" type="curve" smooth="yes"/>
      <point x="14.7012" y="1428.24"/>
      <point x="164.692" y="1426.55"/>
      <point x="163.381" y="1327.21" type="curve" smooth="yes"/>
      <point x="160.044" y="1074.47" type="line" smooth="yes"/>
      <point x="158.474" y="955.499"/>
      <point x="195.186" y="878"/>
      <point x="279.922" y="878" type="curve"/>
      <point x="399.261" y="878"/>
      <point x="458.825" y="918.268"/>
      <point x="503.087" y="1033.03" type="curve"/>
      <point x="528.348" y="1134.53"/>
      <point x="583.146" y="1371.02"/>
      <point x="583.146" y="1371.02" type="curve"/>
      <point x="595.342" y="1422.51"/>
      <point x="635.443" y="1447.7"/>
      <point x="679.464" y="1438.08" type="curve" smooth="yes"/>
      <point x="707.199" y="1432.02"/>
      <point x="745.003" y="1400.92"/>
      <point x="735.759" y="1363.43" type="curve" smooth="yes"/>
      <point x="426.951" y="110.87" type="line"/>
      <point x="765.025" y="110" type="line" smooth="yes"/>
      <point x="805.936" y="109.895"/>
      <point x="839.922" y="76.19"/>
    </contour>
    <contour>
      <point x="799.922" y="35" type="curve" smooth="yes"/>
      <point x="799.922" y="53.9923"/>
      <point x="783.928" y="69.9515"/>
      <point x="764.922" y="70" type="curve" smooth="yes"/>
      <point x="375.927" y="70.9965" type="line"/>
      <point x="696.922" y="1373" type="line" smooth="yes"/>
      <point x="702.204" y="1394.43"/>
      <point x="640.452" y="1419.32"/>
      <point x="628.922" y="1373" type="curve" smooth="yes"/>
      <point x="541.303" y="1020.98" type="line"/>
      <point x="491.634" y="891.364"/>
      <point x="419.356" y="838"/>
      <point x="279.922" y="838" type="curve"/>
      <point x="155.511" y="838"/>
      <point x="118.484" y="956.427"/>
      <point x="120.048" y="1075" type="curve" smooth="yes"/>
      <point x="120.874" y="1137.67"/>
      <point x="126.532" y="1318.99"/>
      <point x="126.532" y="1318.99" type="curve"/>
      <point x="127.252" y="1346.09"/>
      <point x="109.553" y="1362.86"/>
      <point x="88.8482" y="1363.06" type="curve" smooth="yes"/>
      <point x="69.5785" y="1363.24"/>
      <point x="51.5085" y="1349.34"/>
      <point x="51.379" y="1325" type="curve"/>
      <point x="51.379" y="1325"/>
      <point x="50.8875" y="1139.05"/>
      <point x="50.0515" y="1075.67" type="curve" smooth="yes"/>
      <point x="47.9197" y="914.082"/>
      <point x="111.67" y="768"/>
      <point x="279.922" y="768" type="curve"/>
      <point x="369.891" y="768"/>
      <point x="419.853" y="791.6"/>
      <point x="494.746" y="833.931" type="curve"/>
      <point x="295.977" y="35.2255" type="line"/>
      <point x="297.069" y="13.6172"/>
      <point x="314.001" y="0.0412464"/>
      <point x="331.923" y="0" type="curve" smooth="yes"/>
      <point x="764.923" y="-1" type="line" smooth="yes"/>
      <point x="783.876" y="-1.0437"/>
      <point x="799.922" y="14.9526"/>
    </contour>
    <contour>
      <point x="112" y="1323" type="curve" smooth="yes"/>
      <point x="112" y="1309.19"/>
      <point x="100.807" y="1298"/>
      <point x="87" y="1298" type="curve" smooth="yes"/>
      <point x="73.193" y="1298"/>
      <point x="62" y="1309.19"/>
      <point x="62" y="1323" type="curve" smooth="yes"/>
      <point x="62" y="1336.81"/>
      <point x="73.193" y="1348"/>
      <point x="87" y="1348" type="curve" smooth="yes"/>
      <point x="100.807" y="1348"/>
      <point x="112" y="1336.81"/>
    </contour>
  </outline>
</glyph>
<glyph name="uni1203" format="2">
  <advance width="799"/>
  <unicode hex="1203"/>
  <outline>
    <component base="bar"/>
    <contour>
      <point x="736.556" y="1350.53" type="curve" smooth="yes"/>
      <point x="403.556" y="12.527" type="line" smooth="yes"/>
      <point x="391.823" y="-34.617"/>
      <point x="348.263" y="-50.9698"/>
      <point x="314.557" y="-44.6953" type="curve" smooth="yes"/>
      <point x="279.931" y="-38.2493"/>
      <point x="244.716" y="-5.12702"/>
      <point x="257.107" y="44.66" type="curve" smooth="yes"/>
      <point x="434.389" y="757.006" type="line"/>
      <point x="388.378" y="738.078"/>
      <point x="336.726" y="728"/>
      <point x="279.923" y="728" type="curve"/>
      <point x="67.4155" y="728"/>
      <point x="7.48253" y="903.891"/>
      <point x="9.93083" y="1080" type="curve"/>
      <point x="9.93083" y="1080"/>
      <point x="12.5133" y="1262.34"/>
      <point x="13.3915" y="1328.93" type="curve" smooth="yes"/>
      <point x="14.7015" y="1428.24"/>
      <point x="164.692" y="1426.55"/>
      <point x="163.381" y="1327.21" type="curve" smooth="yes"/>
      <point x="160.044" y="1074.47" type="line" smooth="yes"/>
      <point x="158.474" y="955.499"/>
      <point x="195.186" y="878"/>
      <point x="279.922" y="878" type="curve"/>
      <point x="399.262" y="878"/>
      <point x="458.825" y="918.268"/>
      <point x="503.087" y="1033.03" type="curve"/>
      <point x="528.504" y="1135.15"/>
      <point x="586.893" y="1378.99"/>
      <point x="586.893" y="1378.99" type="curve"/>
      <point x="598.264" y="1425.94"/>
      <point x="637.808" y="1447.57"/>
      <point x="679.106" y="1439.88" type="curve" smooth="yes"/>
      <point x="713.73" y="1433.44"/>
      <point x="748.947" y="1400.31"/>
    </contour>
    <contour>
      <point x="697.74" y="1360.19" type="line" smooth="yes"/>
      <point x="709.078" y="1405.75"/>
      <point x="640.098" y="1417.9"/>
      <point x="628.922" y="1373" type="curve" smooth="yes"/>
      <point x="541.303" y="1020.98" type="line"/>
      <point x="491.635" y="891.364"/>
      <point x="419.355" y="838"/>
      <point x="279.922" y="838" type="curve"/>
      <point x="155.511" y="838"/>
      <point x="118.484" y="956.429"/>
      <point x="120.048" y="1075" type="curve" smooth="yes"/>
      <point x="120.874" y="1137.67"/>
      <point x="126.532" y="1318.99"/>
      <point x="126.532" y="1318.99" type="curve"/>
      <point x="127.252" y="1346.1"/>
      <point x="109.553" y="1362.86"/>
      <point x="88.8483" y="1363.06" type="curve" smooth="yes"/>
      <point x="69.579" y="1363.24"/>
      <point x="51.5085" y="1349.34"/>
      <point x="51.379" y="1325" type="curve"/>
      <point x="51.379" y="1325"/>
      <point x="50.8878" y="1139.05"/>
      <point x="50.0516" y="1075.67" type="curve" smooth="yes"/>
      <point x="47.9198" y="914.082"/>
      <point x="111.67" y="768"/>
      <point x="279.923" y="768" type="curve"/>
      <point x="369.891" y="768"/>
      <point x="419.853" y="791.6"/>
      <point x="494.746" y="833.931" type="curve"/>
      <point x="295.923" y="35" type="line" smooth="yes"/>
      <point x="290.354" y="12.6227"/>
      <point x="304.355" y="-2.10925"/>
      <point x="321.878" y="-5.37075" type="curve" smooth="yes"/>
      <point x="339.284" y="-8.61055"/>
      <point x="359.149" y="-0.278301"/>
      <point x="364.74" y="22.1874" type="curve" smooth="yes"/>
    </contour>
    <contour>
      <point x="112" y="1323" type="curve" smooth="yes"/>
      <point x="112" y="1309.19"/>
      <point x="100.807" y="1298"/>
      <point x="87" y="1298" type="curve" smooth="yes"/>
      <point x="73.193" y="1298"/>
      <point x="62" y="1309.19"/>
      <point x="62" y="1323" type="curve" smooth="yes"/>
      <point x="62" y="1336.81"/>
      <point x="73.193" y="1348"/>
      <point x="87" y="1348" type="curve" smooth="yes"/>
      <point x="100.807" y="1348"/>
      <point x="112" y="1336.81"/>
    </contour>
  </outline>
</glyph>
<glyph name="uni1204" format="2">
  <advance width="799"/>
  <unicode hex="1204"/>
  <outline>
    <component base="bar"/>
    <contour>
      <point x="736.565" y="1350.56" type="curve" smooth="yes"/>
      <point x="496.664" y="382.632" type="line"/>
      <point x="504.633" y="383.536"/>
      <point x="512.727" y="384"/>
      <point x="520.922" y="384" type="curve" smooth="yes"/>
      <point x="638.008" y="384"/>
      <point x="732.922" y="289.092"/>
      <point x="732.922" y="172" type="curve" smooth="yes"/>
      <point x="732.922" y="54.9082"/>
      <point x="638.017" y="-40"/>
      <point x="520.922" y="-40" type="curve" smooth="yes"/>
      <point x="449.41" y="-40"/>
      <point x="385.127" y="-4.2475"/>
      <point x="346.685" y="50.8395" type="curve"/>
      <point x="309.311" y="91.8857"/>
      <point x="288.62" y="167.688"/>
      <point x="309.247" y="251.059" type="curve"/>
      <point x="309.247" y="251.059"/>
      <point x="412.258" y="667.771"/>
      <point x="434.438" y="757.039" type="curve"/>
      <point x="388.413" y="738.098"/>
      <point x="336.736" y="728"/>
      <point x="279.922" y="728" type="curve" smooth="yes"/>
      <point x="67.419" y="728"/>
      <point x="7.4825" y="903.891"/>
      <point x="9.9308" y="1080" type="curve"/>
      <point x="9.9308" y="1080"/>
      <point x="12.5131" y="1262.34"/>
      <point x="13.3916" y="1328.93" type="curve" smooth="yes"/>
      <point x="14.7018" y="1428.24"/>
      <point x="164.692" y="1426.55"/>
      <point x="163.381" y="1327.21" type="curve" smooth="yes"/>
      <point x="160.044" y="1074.47" type="line" smooth="yes"/>
      <point x="158.474" y="955.498"/>
      <point x="195.183" y="878"/>
      <point x="279.923" y="878" type="curve" smooth="yes"/>
      <point x="399.263" y="878"/>
      <point x="458.825" y="918.268"/>
      <point x="503.087" y="1033.03" type="curve"/>
      <point x="528.997" y="1137.13"/>
      <point x="589.495" y="1384"/>
      <point x="589.495" y="1384" type="curve"/>
      <point x="600.361" y="1428.14"/>
      <point x="639.414" y="1447.27"/>
      <point x="679.085" y="1439.9" type="curve" smooth="yes"/>
      <point x="713.737" y="1433.45"/>
      <point x="748.911" y="1400.37"/>
    </contour>
    <contour>
      <point x="697.74" y="1360.19" type="line" smooth="yes"/>
      <point x="709.04" y="1405.78"/>
      <point x="640.088" y="1417.86"/>
      <point x="628.922" y="1373" type="curve" smooth="yes"/>
      <point x="541.303" y="1020.98" type="line"/>
      <point x="491.635" y="891.366"/>
      <point x="419.346" y="838"/>
      <point x="279.922" y="838" type="curve" smooth="yes"/>
      <point x="155.514" y="838"/>
      <point x="118.483" y="956.429"/>
      <point x="120.048" y="1075" type="curve" smooth="yes"/>
      <point x="120.874" y="1137.67"/>
      <point x="126.532" y="1318.99"/>
      <point x="126.532" y="1318.99" type="curve"/>
      <point x="127.252" y="1346.11"/>
      <point x="109.553" y="1362.86"/>
      <point x="88.8481" y="1363.06" type="curve" smooth="yes"/>
      <point x="69.5786" y="1363.24"/>
      <point x="51.5084" y="1349.34"/>
      <point x="51.3789" y="1325" type="curve"/>
      <point x="51.3789" y="1325"/>
      <point x="50.8877" y="1139.05"/>
      <point x="50.0515" y="1075.67" type="curve" smooth="yes"/>
      <point x="47.9192" y="914.082"/>
      <point x="111.667" y="768"/>
      <point x="279.922" y="768" type="curve" smooth="yes"/>
      <point x="369.89" y="768"/>
      <point x="419.867" y="791.602"/>
      <point x="494.759" y="833.941" type="curve"/>
      <point x="445.84" y="637.05"/>
      <point x="348.729" y="243.089"/>
      <point x="348.729" y="243.089" type="curve"/>
      <point x="336.995" y="195.612"/>
      <point x="342.483" y="113.786"/>
      <point x="377.957" y="75.9493" type="curve"/>
      <point x="410.538" y="28.5563"/>
      <point x="463.052" y="0"/>
      <point x="520.922" y="0" type="curve" smooth="yes"/>
      <point x="615.919" y="0"/>
      <point x="692.922" y="77"/>
      <point x="692.922" y="172" type="curve" smooth="yes"/>
      <point x="692.922" y="267"/>
      <point x="615.916" y="344"/>
      <point x="520.922" y="344" type="curve" smooth="yes"/>
      <point x="492.452" y="344"/>
      <point x="469.296" y="336.206"/>
      <point x="442.066" y="328.612" type="curve"/>
    </contour>
    <contour>
      <point x="112" y="1323" type="curve" smooth="yes"/>
      <point x="112" y="1309.19"/>
      <point x="100.807" y="1298"/>
      <point x="87" y="1298" type="curve" smooth="yes"/>
      <point x="73.193" y="1298"/>
      <point x="62" y="1309.19"/>
      <point x="62" y="1323" type="curve" smooth="yes"/>
      <point x="62" y="1336.81"/>
      <point x="73.193" y="1348"/>
      <point x="87" y="1348" type="curve" smooth="yes"/>
      <point x="100.807" y="1348"/>
      <point x="112" y="1336.81"/>
    </contour>
    <contour>
      <point x="622.922" y="172" type="curve" smooth="yes"/>
      <point x="622.922" y="116.019"/>
      <point x="576.942" y="71"/>
      <point x="520.922" y="71" type="curve" smooth="yes"/>
      <point x="464.903" y="71"/>
      <point x="418.922" y="116.019"/>
      <point x="418.922" y="172" type="curve" smooth="yes"/>
      <point x="418.922" y="228.989"/>
      <point x="464.913" y="274"/>
      <point x="520.922" y="274" type="curve" smooth="yes"/>
      <point x="576.932" y="274"/>
      <point x="622.922" y="228.989"/>
    </contour>
    <contour>
      <point x="582.922" y="172" type="curve" smooth="yes"/>
      <point x="582.922" y="206.663"/>
      <point x="555.077" y="234"/>
      <point x="520.922" y="234" type="curve" smooth="yes"/>
      <point x="486.767" y="234"/>
      <point x="458.922" y="206.663"/>
      <point x="458.922" y="172" type="curve" smooth="yes"/>
      <point x="458.922" y="138.583"/>
      <point x="486.518" y="111"/>
      <point x="520.922" y="111" type="curve" smooth="yes"/>
      <point x="555.327" y="111"/>
      <point x="582.922" y="138.583"/>
    </contour>
  </outline>
</glyph>
<glyph name="uni1206" format="2">
  <advance width="1184"/>
  <unicode hex="1206"/>
  <outline>
    <component base="bar"/>
    <contour>
      <point x="1123.97" y="1118" type="curve" smooth="yes"/>
      <point x="1123.97" y="1000.91"/>
      <point x="1029.05" y="906"/>
      <point x="911.966" y="906" type="curve" smooth="yes"/>
      <point x="886.464" y="906"/>
      <point x="862.112" y="911.835"/>
      <point x="840.041" y="920.781" type="curve"/>
      <point x="839.092" y="733.336"/>
      <point x="782.253" y="521.05"/>
      <point x="733.612" y="405.824" type="curve" smooth="yes"/>
      <point x="640.854" y="186.087"/>
      <point x="477.436" y="-38"/>
      <point x="310.928" y="-38" type="curve"/>
      <point x="93.6415" y="-38"/>
      <point x="-22.632" y="126.199"/>
      <point x="14.5467" y="323.941" type="curve"/>
      <point x="14.5467" y="323.941"/>
      <point x="148.579" y="1036.67"/>
      <point x="160.093" y="1098.05" type="curve" smooth="yes"/>
      <point x="178.442" y="1195.86"/>
      <point x="325.835" y="1168.01"/>
      <point x="307.546" y="1070.53" type="curve" smooth="yes"/>
      <point x="255.507" y="793.146"/>
      <point x="163.075" y="300.995"/>
      <point x="163.075" y="300.995" type="curve"/>
      <point x="141.755" y="187.434"/>
      <point x="203.516" y="112"/>
      <point x="310.928" y="112" type="curve"/>
      <point x="367.039" y="112"/>
      <point x="496.884" y="230.733"/>
      <point x="595.421" y="464.16" type="curve" smooth="yes"/>
      <point x="650.499" y="594.634"/>
      <point x="689.597" y="788.485"/>
      <point x="689.777" y="949.025" type="curve" smooth="yes"/>
      <point x="689.966" y="1118.04" type="line" smooth="yes"/>
      <point x="690.101" y="1237.95"/>
      <point x="797.844" y="1330"/>
      <point x="911.966" y="1330" type="curve" smooth="yes"/>
      <point x="1029.06" y="1330"/>
      <point x="1123.97" y="1235.09"/>
    </contour>
    <contour>
      <point x="1083.97" y="1118" type="curve" smooth="yes"/>
      <point x="1083.97" y="1213"/>
      <point x="1006.96" y="1290"/>
      <point x="911.966" y="1290" type="curve" smooth="yes"/>
      <point x="816.921" y="1290"/>
      <point x="730.073" y="1212.95"/>
      <point x="729.966" y="1118" type="curve" smooth="yes"/>
      <point x="729.777" y="948.98" type="line" smooth="yes"/>
      <point x="729.591" y="783.448"/>
      <point x="689.552" y="584.296"/>
      <point x="632.272" y="448.604" type="curve" smooth="yes"/>
      <point x="535.26" y="218.79"/>
      <point x="396.467" y="72"/>
      <point x="310.928" y="72" type="curve"/>
      <point x="172.524" y="72"/>
      <point x="98.5795" y="168.96"/>
      <point x="124.336" y="306.956" type="curve"/>
      <point x="124.336" y="306.956"/>
      <point x="221.147" y="826.929"/>
      <point x="268.232" y="1077.9" type="curve" smooth="yes"/>
      <point x="276.802" y="1123.58"/>
      <point x="208.045" y="1136.71"/>
      <point x="199.407" y="1090.67" type="curve" smooth="yes"/>
      <point x="54.5168" y="318.392" type="line" smooth="yes"/>
      <point x="22.0993" y="145.603"/>
      <point x="126.791" y="2"/>
      <point x="310.928" y="2" type="curve"/>
      <point x="447.971" y="2"/>
      <point x="602.428" y="197.913"/>
      <point x="696.761" y="421.38" type="curve" smooth="yes"/>
      <point x="768.794" y="592.02"/>
      <point x="804.326" y="805.228"/>
      <point x="798.491" y="988.331" type="curve"/>
      <point x="829.63" y="970.342" type="line" smooth="yes"/>
      <point x="854.606" y="955.914"/>
      <point x="883.051" y="946"/>
      <point x="911.966" y="946" type="curve" smooth="yes"/>
      <point x="1006.96" y="946"/>
      <point x="1083.97" y="1023"/>
    </contour>
    <contour>
      <point x="1013.97" y="1118" type="curve" smooth="yes"/>
      <point x="1013.97" y="1062"/>
      <point x="967.966" y="1016"/>
      <point x="911.966" y="1016" type="curve" smooth="yes"/>
      <point x="855.966" y="1016"/>
      <point x="809.966" y="1062"/>
      <point x="809.966" y="1118" type="curve" smooth="yes"/>
      <point x="809.966" y="1174"/>
      <point x="855.966" y="1220"/>
      <point x="911.966" y="1220" type="curve" smooth="yes"/>
      <point x="967.966" y="1220"/>
      <point x="1013.97" y="1174"/>
    </contour>
    <contour>
      <point x="252" y="1080" type="curve" smooth="yes"/>
      <point x="252" y="1066.19"/>
      <point x="240.807" y="1055"/>
      <point x="227" y="1055" type="curve" smooth="yes"/>
      <point x="213.193" y="1055"/>
      <point x="202" y="1066.19"/>
      <point x="202" y="1080" type="curve" smooth="yes"/>
      <point x="202" y="1093.81"/>
      <point x="213.193" y="1105"/>
      <point x="227" y="1105" type="curve" smooth="yes"/>
      <point x="240.807" y="1105"/>
      <point x="252" y="1093.81"/>
    </contour>
    <contour>
      <point x="973.966" y="1118" type="curve" smooth="yes"/>
      <point x="973.966" y="1151.91"/>
      <point x="945.875" y="1180"/>
      <point x="911.966" y="1180" type="curve" smooth="yes"/>
      <point x="878.058" y="1180"/>
      <point x="849.966" y="1151.91"/>
      <point x="849.966" y="1118" type="curve" smooth="yes"/>
      <point x="849.966" y="1084.09"/>
      <point x="878.058" y="1056"/>
      <point x="911.966" y="1056" type="curve" smooth="yes"/>
      <point x="945.875" y="1056"/>
      <point x="973.966" y="1084.09"/>
    </contour>
  </outline>
</glyph>
<glyph name="uni1207" format="2">
  <advance width="1810"/>
  <unicode hex="1207"/>
  <outline>
    <contour>
      <point x="1848" y="1077" type="curve" smooth="yes"/>
      <point x="1848" y="906.986"/>
      <point x="1675.65" y="767"/>
      <point x="1416" y="767" type="curve" smooth="yes"/>
      <point x="1403.22" y="767"/>
      <point x="1390.44" y="767.264"/>
      <point x="1377.26" y="767.934" type="curve"/>
      <point x="1350.84" y="477.378" type="line" smooth="yes"/>
      <point x="1326.8" y="213.037"/>
      <point x="1145.77" y="-40"/>
      <point x="782" y="-40" type="curve" smooth="yes"/>
      <point x="490.362" y="-40"/>
      <point x="449" y="216.322"/>
      <point x="449" y="348" type="curve" smooth="yes"/>
      <point x="449" y="383.509"/>
      <point x="460.507" y="503.681"/>
      <point x="474.268" y="625.607" type="curve"/>
      <point x="444.777" y="621.134" type="line"/>
      <point x="416.38" y="396.222"/>
      <point x="266.046" y="323"/>
      <point x="141" y="323" type="curve" smooth="yes"/>
      <point x="75.5088" y="323"/>
      <point x="40.0457" y="343.08"/>
      <point x="-10.9255" y="382.059" type="curve"/>
      <point x="49.6285" y="428.195"/>
      <point x="69" y="450.91"/>
      <point x="69" y="537" type="curve" smooth="yes"/>
      <point x="69" y="606.642"/>
      <point x="45.1968" y="656.288"/>
      <point x="17.043" y="717.287" type="curve"/>
      <point x="491.356" y="782.353" type="line"/>
      <point x="497.789" y="845.794"/>
      <point x="503" y="895.644"/>
      <point x="503" y="915" type="curve" smooth="yes"/>
      <point x="503" y="963.632"/>
      <point x="484.282" y="972.494"/>
      <point x="445" y="984.133" type="curve"/>
      <point x="445" y="1067.97" type="line"/>
      <point x="509.593" y="1086.88"/>
      <point x="695.238" y="1142"/>
      <point x="751" y="1142" type="curve" smooth="yes"/>
      <point x="835.608" y="1142"/>
      <point x="853" y="1072.41"/>
      <point x="853" y="1010" type="curve" smooth="yes"/>
      <point x="853" y="950"/>
      <point x="791" y="383"/>
      <point x="791" y="240" type="curve" smooth="yes"/>
      <point x="791" y="142.776"/>
      <point x="835.338" y="122"/>
      <point x="878" y="122" type="curve" smooth="yes"/>
      <point x="924.16" y="122"/>
      <point x="975.68" y="169.67"/>
      <point x="990.167" y="327.653" type="curve" smooth="yes"/>
      <point x="1007.17" y="513.036"/>
      <point x="1024.96" y="698.407"/>
      <point x="1039.12" y="884.042" type="curve" smooth="yes"/>
      <point x="1042.89" y="933.502"/>
      <point x="1047" y="969.364"/>
      <point x="1047" y="981" type="curve" smooth="yes"/>
      <point x="1047" y="1047.71"/>
      <point x="1037.5" y="1074.21"/>
      <point x="982" y="1097.33" type="curve"/>
      <point x="982" y="1189.24" type="line"/>
      <point x="1177.54" y="1231.72"/>
      <point x="1372.94" y="1274.98"/>
      <point x="1569.16" y="1314.22" type="curve" smooth="yes"/>
      <point x="1591.81" y="1318.75"/>
      <point x="1617.88" y="1322"/>
      <point x="1636" y="1322" type="curve" smooth="yes"/>
      <point x="1738.29" y="1322"/>
      <point x="1848" y="1260.86"/>
    </contour>
    <contour>
      <point x="1808" y="1077" type="curve" smooth="yes"/>
      <point x="1808" y="1236.97" name=".hr01"/>
      <point x="1718.04" y="1282"/>
      <point x="1636" y="1282" type="curve" smooth="yes"/>
      <point x="1604.55" y="1282"/>
      <point x="1572.63" y="1274.12"/>
      <point x="1542" y="1268" type="curve" smooth="yes"/>
      <point x="1368.2" y="1233.24"/>
      <point x="1195.17" y="1194.62"/>
      <point x="1022" y="1157.01" type="curve"/>
      <point x="1022" y="1123.63" type="line"/>
      <point x="1074.71" y="1098.07"/>
      <point x="1087" y="1034.68"/>
      <point x="1087" y="981" type="curve" smooth="yes"/>
      <point x="1087" y="969"/>
      <point x="1082.89" y="932.006"/>
      <point x="1079" y="881" type="curve" smooth="yes"/>
      <point x="1064.83" y="695.168"/>
      <point x="1047.02" y="509.588"/>
      <point x="1030" y="324" type="curve" smooth="yes"/>
      <point x="1015.59" y="166.815"/>
      <point x="960.881" y="82"/>
      <point x="878" y="82" type="curve" smooth="yes"/>
      <point x="811.059" y="82"/>
      <point x="751" y="122.941"/>
      <point x="751" y="240" type="curve" smooth="yes" name=".hr02"/>
      <point x="751" y="383.012"/>
      <point x="813" y="949.999"/>
      <point x="813" y="1010" type="curve" smooth="yes"/>
      <point x="813" y="1070.52"/>
      <point x="797.68" y="1102"/>
      <point x="751" y="1102" type="curve" smooth="yes"/>
      <point x="705.24" y="1102"/>
      <point x="541.113" y="1054.27"/>
      <point x="485" y="1037.98" type="curve"/>
      <point x="485" y="1013.17" type="line"/>
      <point x="517.519" y="999.489"/>
      <point x="543" y="972.179"/>
      <point x="543" y="915" type="curve" smooth="yes"/>
      <point x="543" y="859.717"/>
      <point x="533.509" y="801.719"/>
      <point x="527.993" y="747" type="curve"/>
      <point x="75.7267" y="684.966" type="line"/>
      <point x="96.0472" y="638.25"/>
      <point x="109" y="588.339"/>
      <point x="109" y="537" type="curve" smooth="yes"/>
      <point x="109" y="454.337"/>
      <point x="85.8783" y="413.069"/>
      <point x="55.2467" y="383.894" type="curve"/>
      <point x="85.989" y="366.415" name=".hr03"/>
      <point x="114.405" y="363"/>
      <point x="141" y="363" type="curve" smooth="yes"/>
      <point x="313.882" y="363"/>
      <point x="392.378" y="494.904"/>
      <point x="408.225" y="656.039" type="curve"/>
      <point x="519.971" y="672.997" type="line"/>
      <point x="509.168" y="579.265"/>
      <point x="489" y="444.675"/>
      <point x="489" y="348" type="curve" smooth="yes" name=".hr04"/>
      <point x="489" y="216.844"/>
      <point x="529.095" y="0"/>
      <point x="782" y="0" type="curve" smooth="yes"/>
      <point x="1120.99" y="0"/>
      <point x="1288.45" y="232.964"/>
      <point x="1311" y="481" type="curve" smooth="yes"/>
      <point x="1340.98" y="810.689" type="line"/>
      <point x="1360.7" y="809.104" type="line" smooth="yes"/>
      <point x="1379.98" y="807.554"/>
      <point x="1397.99" y="807"/>
      <point x="1416" y="807" type="curve" smooth="yes"/>
      <point x="1665.09" y="807"/>
      <point x="1808" y="939.07"/>
    </contour>
    <contour>
      <point x="1524" y="1059" type="curve" smooth="yes" name=".hr05"/>
      <point x="1524" y="944.488"/>
      <point x="1456.26" y="880.571" name=".hr06"/>
      <point x="1344.86" y="870.606" type="curve"/>
      <point x="1347.56" y="899.583"/>
      <point x="1358.35" y="1084.27"/>
      <point x="1380.07" y="1127.65" type="curve" smooth="yes"/>
      <point x="1394.01" y="1155.49"/>
      <point x="1416.05" y="1161"/>
      <point x="1440" y="1161" type="curve" smooth="yes"/>
      <point x="1498.61" y="1161"/>
      <point x="1524" y="1112.52"/>
    </contour>
    <contour>
      <point x="1484" y="1059" type="curve" smooth="yes"/>
      <point x="1484" y="1102.38"/>
      <point x="1466.23" y="1121"/>
      <point x="1440" y="1121" type="curve" smooth="yes"/>
      <point x="1423.92" y="1121"/>
      <point x="1420.26" y="1118.58"/>
      <point x="1415.84" y="1109.74" type="curve" smooth="yes"/>
      <point x="1400.49" y="1079.09"/>
      <point x="1392.12" y="946.845"/>
      <point x="1389.33" y="916.832" type="curve"/>
      <point x="1452.91" y="934.052"/>
      <point x="1484" y="994.428"/>
    </contour>
  </outline>
</glyph>
<glyph name="uni1208" format="2">
  <advance width="822"/>
  <unicode hex="1208"/>
  <outline>
    <component base="bar"/>
    <contour>
      <point x="762.001" y="35" type="line" smooth="yes"/>
      <point x="762.001" y="-6.088"/>
      <point x="728.092" y="-40"/>
      <point x="687.001" y="-40" type="curve" smooth="yes"/>
      <point x="644.126" y="-40"/>
      <point x="612.001" y="-5.29825"/>
      <point x="612.001" y="35" type="curve" smooth="yes"/>
      <point x="612.001" y="800" type="line" smooth="yes"/>
      <point x="612.001" y="923.121"/>
      <point x="535.26" y="1047.1"/>
      <point x="497.09" y="1100.97" type="curve"/>
      <point x="212.004" y="936.051"/>
      <point x="178.069" y="764.718"/>
      <point x="165.92" y="466.591" type="curve" smooth="yes"/>
      <point x="161.059" y="347.315"/>
      <point x="161.496" y="205.949"/>
      <point x="160" y="34.6505" type="curve" smooth="yes"/>
      <point x="159.646" y="-5.83173"/>
      <point x="126.433" y="-40"/>
      <point x="85.0015" y="-40" type="curve" smooth="yes"/>
      <point x="44.24" y="-40"/>
      <point x="9.65175" y="-6.347"/>
      <point x="10.003" y="35.3375" type="curve" smooth="yes"/>
      <point x="11.943" y="265.453"/>
      <point x="-3.39595" y="567.544"/>
      <point x="54.933" y="790.059" type="curve" smooth="yes"/>
      <point x="103.445" y="975.125"/>
      <point x="205.945" y="1109.07"/>
      <point x="412.91" y="1220.97" type="curve"/>
      <point x="381.28" y="1270.77"/>
      <point x="297.29" y="1347.86"/>
      <point x="369.014" y="1405.24" type="curve" smooth="yes"/>
      <point x="401.462" y="1431.19"/>
      <point x="447.59" y="1426.08"/>
      <point x="474.156" y="1393.09" type="curve" smooth="yes"/>
      <point x="642.944" y="1183.49"/>
      <point x="762.002" y="960.488"/>
      <point x="762.002" y="835" type="curve" smooth="yes"/>
    </contour>
    <contour>
      <point x="722.001" y="35" type="curve" smooth="yes"/>
      <point x="722.001" y="835" type="line"/>
      <point x="722.001" y="916.008"/>
      <point x="595" y="1196"/>
      <point x="465.004" y="1352.64" type="curve"/>
      <point x="440.677" y="1381.96"/>
      <point x="412.414" y="1388.73"/>
      <point x="394.001" y="1374" type="curve"/>
      <point x="378.967" y="1361.97"/>
      <point x="376.122" y="1340.04"/>
      <point x="388.002" y="1325" type="curve" smooth="yes"/>
      <point x="418.305" y="1286.65"/>
      <point x="444.239" y="1247.06"/>
      <point x="469.239" y="1205.32" type="curve"/>
      <point x="119.459" y="1023.98"/>
      <point x="67.9633" y="815.066"/>
      <point x="54.8078" y="460.437" type="curve" smooth="yes"/>
      <point x="50.2565" y="337.745"/>
      <point x="51.3702" y="197.373"/>
      <point x="50.0012" y="35" type="curve" smooth="yes"/>
      <point x="49.8412" y="16.0225"/>
      <point x="65.9752" y="0"/>
      <point x="85.0012" y="0" type="curve" smooth="yes"/>
      <point x="103.978" y="0"/>
      <point x="119.835" y="15.9757"/>
      <point x="120.001" y="35" type="curve" smooth="yes"/>
      <point x="121.838" y="245.195"/>
      <point x="108.287" y="565.759"/>
      <point x="163.699" y="768.057" type="curve" smooth="yes"/>
      <point x="216.743" y="961.712"/>
      <point x="337.82" y="1057.43"/>
      <point x="508.211" y="1153.23" type="curve"/>
      <point x="582.205" y="1054.52"/>
      <point x="652.001" y="927.945"/>
      <point x="652.001" y="800" type="curve" smooth="yes"/>
      <point x="652.001" y="35" type="line" smooth="yes"/>
      <point x="652.001" y="15.959"/>
      <point x="667.042" y="0"/>
      <point x="687.001" y="0" type="curve" smooth="yes"/>
      <point x="706" y="0"/>
      <point x="722" y="16.002"/>
    </contour>
    <contour>
      <point x="447" y="1340" type="curve" smooth="yes"/>
      <point x="447" y="1326.19"/>
      <point x="435.807" y="1315"/>
      <point x="422" y="1315" type="curve" smooth="yes"/>
      <point x="408.193" y="1315"/>
      <point x="397" y="1326.19"/>
      <point x="397" y="1340" type="curve" smooth="yes"/>
      <point x="397" y="1353.81"/>
      <point x="408.193" y="1365"/>
      <point x="422" y="1365" type="curve" smooth="yes"/>
      <point x="435.807" y="1365"/>
      <point x="447" y="1353.81"/>
    </contour>
  </outline>
</glyph>
<glyph name="uni1209" format="2">
  <advance width="1254"/>
  <unicode hex="1209"/>
  <outline>
    <component base="bar"/>
    <contour>
      <point x="1193.9" y="714.353" type="curve" smooth="yes"/>
      <point x="1197.51" y="673.045"/>
      <point x="1174.52" y="636.543"/>
      <point x="1130" y="632.529" type="curve"/>
      <point x="1130" y="632.529"/>
      <point x="879.562" y="609.938"/>
      <point x="765.675" y="599.687" type="curve"/>
      <point x="762.001" y="34.7395" type="line" smooth="yes"/>
      <point x="761.737" y="-5.89573"/>
      <point x="728.344" y="-40"/>
      <point x="687.002" y="-40" type="curve" smooth="yes"/>
      <point x="644.128" y="-40"/>
      <point x="612.002" y="-5.29825"/>
      <point x="612.002" y="35" type="curve" smooth="yes"/>
      <point x="612.002" y="800" type="line" smooth="yes"/>
      <point x="612.002" y="923.121"/>
      <point x="535.261" y="1047.1"/>
      <point x="497.092" y="1100.97" type="curve"/>
      <point x="212.007" y="936.051"/>
      <point x="178.07" y="764.724"/>
      <point x="165.921" y="466.588" type="curve" smooth="yes"/>
      <point x="161.061" y="347.315"/>
      <point x="161.498" y="205.952"/>
      <point x="160" y="34.6505" type="curve" smooth="yes"/>
      <point x="159.646" y="-5.83249"/>
      <point x="126.43" y="-40"/>
      <point x="85.0015" y="-40" type="curve" smooth="yes"/>
      <point x="44.2453" y="-40"/>
      <point x="9.65175" y="-6.35025"/>
      <point x="10.0031" y="35.3375" type="curve" smooth="yes"/>
      <point x="11.9431" y="265.46"/>
      <point x="-3.39395" y="567.563"/>
      <point x="54.9331" y="790.068" type="curve" smooth="yes"/>
      <point x="103.445" y="975.13"/>
      <point x="205.945" y="1109.07"/>
      <point x="412.91" y="1220.97" type="curve"/>
      <point x="381.28" y="1270.77"/>
      <point x="297.289" y="1347.86"/>
      <point x="369.014" y="1405.24" type="curve" smooth="yes"/>
      <point x="401.462" y="1431.19"/>
      <point x="447.591" y="1426.08"/>
      <point x="474.156" y="1393.09" type="curve" smooth="yes"/>
      <point x="642.545" y="1183.99"/>
      <point x="764.232" y="960.443"/>
      <point x="761.995" y="834.289" type="curve" smooth="yes"/>
      <point x="760.513" y="750.715" type="line"/>
      <point x="868.8" y="760.19"/>
      <point x="1107.99" y="783.015"/>
      <point x="1107.99" y="783.015" type="curve"/>
      <point x="1156.97" y="787.568"/>
      <point x="1190.12" y="757.431"/>
    </contour>
    <contour>
      <point x="1122.32" y="671.95" type="line" smooth="yes"/>
      <point x="1167.64" y="676.03"/>
      <point x="1162.44" y="745.728"/>
      <point x="1116.22" y="741.684" type="curve" smooth="yes"/>
      <point x="719.722" y="706.998" type="line"/>
      <point x="722.001" y="835" type="line"/>
      <point x="722.001" y="916.008"/>
      <point x="595" y="1196"/>
      <point x="465.004" y="1352.64" type="curve"/>
      <point x="440.677" y="1381.96"/>
      <point x="412.414" y="1388.73"/>
      <point x="394.001" y="1374" type="curve"/>
      <point x="378.965" y="1361.97"/>
      <point x="376.122" y="1340.04"/>
      <point x="388.001" y="1325" type="curve" smooth="yes"/>
      <point x="418.303" y="1286.65"/>
      <point x="444.239" y="1247.06"/>
      <point x="469.239" y="1205.32" type="curve"/>
      <point x="119.462" y="1023.98"/>
      <point x="67.9625" y="815.067"/>
      <point x="54.8077" y="460.447" type="curve" smooth="yes"/>
      <point x="50.256" y="337.742"/>
      <point x="51.3695" y="197.369"/>
      <point x="50.0012" y="35" type="curve" smooth="yes"/>
      <point x="49.8415" y="16.024"/>
      <point x="65.9775" y="0"/>
      <point x="85.0012" y="0" type="curve" smooth="yes"/>
      <point x="103.978" y="0"/>
      <point x="119.835" y="15.977"/>
      <point x="120.001" y="35" type="curve" smooth="yes"/>
      <point x="121.838" y="245.192"/>
      <point x="108.287" y="565.755"/>
      <point x="163.699" y="768.053" type="curve" smooth="yes"/>
      <point x="216.743" y="961.71"/>
      <point x="337.819" y="1057.43"/>
      <point x="508.212" y="1153.23" type="curve"/>
      <point x="582.205" y="1054.52"/>
      <point x="652.001" y="927.945"/>
      <point x="652.001" y="800" type="curve" smooth="yes"/>
      <point x="652.001" y="35" type="line" smooth="yes"/>
      <point x="652.001" y="15.959"/>
      <point x="667.043" y="0"/>
      <point x="687.001" y="0" type="curve" smooth="yes"/>
      <point x="705.983" y="0"/>
      <point x="721.878" y="15.9808"/>
      <point x="722.001" y="35" type="curve" smooth="yes"/>
      <point x="725.918" y="636.263" type="line"/>
    </contour>
    <contour>
      <point x="447" y="1340" type="curve" smooth="yes"/>
      <point x="447" y="1326.19"/>
      <point x="435.807" y="1315"/>
      <point x="422" y="1315" type="curve" smooth="yes"/>
      <point x="408.193" y="1315"/>
      <point x="397" y="1326.19"/>
      <point x="397" y="1340" type="curve" smooth="yes"/>
      <point x="397" y="1353.81"/>
      <point x="408.193" y="1365"/>
      <point x="422" y="1365" type="curve" smooth="yes"/>
      <point x="435.807" y="1365"/>
      <point x="447" y="1353.81"/>
    </contour>
  </outline>
</glyph>
<glyph name="uni120A" format="2">
  <advance width="1254"/>
  <unicode hex="120A"/>
  <outline>
    <component base="bar"/>
    <contour>
      <point x="1194" y="35" type="curve" smooth="yes"/>
      <point x="1194" y="-5.2985"/>
      <point x="1161.88" y="-40"/>
      <point x="1119" y="-40" type="curve" smooth="yes"/>
      <point x="685.001" y="-40" type="line" smooth="yes"/>
      <point x="642.334" y="-40"/>
      <point x="611.001" y="-4.48025"/>
      <point x="611.001" y="35" type="curve" smooth="yes"/>
      <point x="611.001" y="800" type="line" smooth="yes"/>
      <point x="611.001" y="923.065"/>
      <point x="534.938" y="1046.95"/>
      <point x="496.992" y="1100.91" type="curve"/>
      <point x="211.982" y="935.996"/>
      <point x="178.065" y="764.657"/>
      <point x="165.92" y="466.597" type="curve" smooth="yes"/>
      <point x="161.06" y="347.322"/>
      <point x="161.496" y="205.946"/>
      <point x="160" y="34.6505" type="curve" smooth="yes"/>
      <point x="159.646" y="-5.82952"/>
      <point x="126.427" y="-40"/>
      <point x="85.0015" y="-40" type="curve" smooth="yes"/>
      <point x="44.2435" y="-40"/>
      <point x="9.65175" y="-6.352"/>
      <point x="10.003" y="35.3375" type="curve" smooth="yes"/>
      <point x="11.9428" y="265.459"/>
      <point x="-3.39065" y="567.572"/>
      <point x="54.9331" y="790.065" type="curve" smooth="yes"/>
      <point x="103.402" y="974.962"/>
      <point x="205.829" y="1108.9"/>
      <point x="412.533" y="1220.76" type="curve"/>
      <point x="380.485" y="1270.32"/>
      <point x="296.153" y="1347.75"/>
      <point x="368.014" y="1405.23" type="curve" smooth="yes"/>
      <point x="400.464" y="1431.19"/>
      <point x="446.59" y="1426.08"/>
      <point x="473.156" y="1393.09" type="curve" smooth="yes"/>
      <point x="641.943" y="1183.49"/>
      <point x="761.001" y="960.505"/>
      <point x="761.002" y="835" type="curve" smooth="yes"/>
      <point x="761.004" y="110.002" type="line"/>
      <point x="1119" y="110" type="line" smooth="yes"/>
      <point x="1160.1" y="110"/>
      <point x="1194" y="76.089"/>
    </contour>
    <contour>
      <point x="1154" y="35" type="curve" smooth="yes"/>
      <point x="1154" y="54"/>
      <point x="1138" y="70"/>
      <point x="1119" y="70" type="curve" smooth="yes"/>
      <point x="721" y="69.997" type="line"/>
      <point x="721.002" y="835" type="line"/>
      <point x="721.002" y="916.008"/>
      <point x="594" y="1196"/>
      <point x="464.004" y="1352.64" type="curve"/>
      <point x="439.677" y="1381.96"/>
      <point x="411.414" y="1388.73"/>
      <point x="393.001" y="1374" type="curve"/>
      <point x="377.968" y="1361.97"/>
      <point x="375.124" y="1340.03"/>
      <point x="387.001" y="1325" type="curve" smooth="yes"/>
      <point x="417.358" y="1286.58"/>
      <point x="443.731" y="1246.9"/>
      <point x="469.218" y="1205.31" type="curve"/>
      <point x="119.448" y="1023.89"/>
      <point x="67.9647" y="815.14"/>
      <point x="54.8074" y="460.444" type="curve" smooth="yes"/>
      <point x="50.2564" y="337.756"/>
      <point x="51.3694" y="197.364"/>
      <point x="50.0011" y="35" type="curve" smooth="yes"/>
      <point x="49.8414" y="16.0228"/>
      <point x="65.9769" y="0"/>
      <point x="85.0012" y="0" type="curve" smooth="yes"/>
      <point x="103.976" y="0"/>
      <point x="119.835" y="15.9742"/>
      <point x="120.001" y="35" type="curve" smooth="yes"/>
      <point x="121.837" y="245.201"/>
      <point x="108.285" y="565.762"/>
      <point x="163.699" y="768.062" type="curve" smooth="yes"/>
      <point x="216.745" y="961.719"/>
      <point x="337.828" y="1057.42"/>
      <point x="508.216" y="1153.23" type="curve"/>
      <point x="581.84" y="1054.29"/>
      <point x="651.001" y="927.841"/>
      <point x="651.001" y="800" type="curve" smooth="yes"/>
      <point x="651.001" y="35" type="line" smooth="yes"/>
      <point x="651.001" y="15.916"/>
      <point x="666.083" y="0"/>
      <point x="685.001" y="0" type="curve" smooth="yes"/>
      <point x="1119" y="0" type="line" smooth="yes"/>
      <point x="1138.96" y="0"/>
      <point x="1154" y="15.9572"/>
    </contour>
    <contour>
      <point x="447" y="1340" type="curve" smooth="yes"/>
      <point x="447" y="1326.19"/>
      <point x="435.807" y="1315"/>
      <point x="422" y="1315" type="curve" smooth="yes"/>
      <point x="408.193" y="1315"/>
      <point x="397" y="1326.19"/>
      <point x="397" y="1340" type="curve" smooth="yes"/>
      <point x="397" y="1353.81"/>
      <point x="408.193" y="1365"/>
      <point x="422" y="1365" type="curve" smooth="yes"/>
      <point x="435.807" y="1365"/>
      <point x="447" y="1353.81"/>
    </contour>
  </outline>
</glyph>
<glyph name="uni120F" format="2">
  <advance width="1446"/>
  <unicode hex="120F"/>
  <outline>
    <contour>
      <point x="1887.43" y="1582.19" type="line"/>
      <point x="1539.01" y="1473.61" type="line"/>
      <point x="1773.94" y="1191.38" type="line"/>
      <point x="1449.25" y="1362.71" type="line"/>
      <point x="1415.19" y="999.556" type="line"/>
      <point x="1306.61" y="1347.99" type="line"/>
      <point x="1024.38" y="1113.05" type="line"/>
      <point x="1195.7" y="1437.76" type="line"/>
      <point x="832.528" y="1471.8" type="line"/>
      <point x="1180.99" y="1580.38" type="line"/>
      <point x="946.069" y="1862.61" type="line"/>
      <point x="1270.76" y="1691.3" type="line"/>
      <point x="1304.8" y="2054.46" type="line"/>
      <point x="1413.38" y="1706.02" type="line"/>
      <point x="1695.6" y="1940.91" type="line"/>
      <point x="1524.3" y="1616.25" type="line"/>
    </contour>
    <contour>
      <point x="1427.32" y="-81.9703" type="curve"/>
      <point x="1373.92" y="-126.464"/>
      <point x="1346.86" y="-144"/>
      <point x="1272" y="-144" type="curve" smooth="yes"/>
      <point x="1146.21" y="-144"/>
      <point x="1022.59" y="-81.4435"/>
      <point x="998.146" y="61.7185" type="curve"/>
      <point x="556.827" y="34.5703" type="line"/>
      <point x="551.064" y="-111.402"/>
      <point x="396.211" y="-204"/>
      <point x="256" y="-204" type="curve" smooth="yes"/>
      <point x="207.247" y="-204"/>
      <point x="158.281" y="-198.945"/>
      <point x="109.811" y="-195.355" type="curve"/>
      <point x="160.526" y="-100.265"/>
      <point x="181" y="-52.053"/>
      <point x="181" y="63" type="curve" smooth="yes"/>
      <point x="181" y="93.2453"/>
      <point x="162.936" y="142.623"/>
      <point x="156.867" y="163.862" type="curve"/>
      <point x="592.052" y="190.693" type="line"/>
      <point x="574.749" y="261.444"/>
      <point x="574" y="354.776"/>
      <point x="574" y="450" type="curve" smooth="yes"/>
      <point x="574" y="504" type="line" smooth="yes"/>
      <point x="574" y="665.12"/>
      <point x="569.094" y="820.814"/>
      <point x="517.652" y="926.695" type="curve"/>
      <point x="441.352" y="843.858"/>
      <point x="402" y="741.872"/>
      <point x="402" y="584" type="curve" smooth="yes"/>
      <point x="402" y="558.688"/>
      <point x="403.74" y="544.247"/>
      <point x="423" y="531.407" type="curve"/>
      <point x="423" y="448.976" type="line"/>
      <point x="229.415" y="417.518" type="line" smooth="yes"/>
      <point x="214.251" y="415.054"/>
      <point x="200.189" y="413"/>
      <point x="185" y="413" type="curve" smooth="yes"/>
      <point x="83.7028" y="413"/>
      <point x="56" y="491.092"/>
      <point x="56" y="594" type="curve" smooth="yes"/>
      <point x="56" y="793.529"/>
      <point x="108.5" y="1022.8"/>
      <point x="363.266" y="1182.96" type="curve"/>
      <point x="274.534" y="1332.96" type="line"/>
      <point x="600.331" y="1444.21" type="line"/>
      <point x="719.602" y="1202.37" type="line"/>
      <point x="1037.37" y="960.68"/>
      <point x="870.336" y="321.586"/>
      <point x="963.051" y="210.911" type="curve"/>
      <point x="1402.72" y="238.659" type="line"/>
      <point x="1384.46" y="183.89"/>
      <point x="1373" y="152.665"/>
      <point x="1373" y="94" type="curve" smooth="yes"/>
      <point x="1373" y="8.22675"/>
      <point x="1378.71" y="-19.4802"/>
    </contour>
    <contour>
      <point x="1685" y="1561" type="line"/>
      <point x="1461" y="1582.01" type="line"/>
      <point x="1566" y="1781.01" type="line"/>
      <point x="1392.99" y="1637" type="line"/>
      <point x="1326.01" y="1852" type="line"/>
      <point x="1305" y="1628" type="line"/>
      <point x="1106" y="1733" type="line"/>
      <point x="1250" y="1560" type="line"/>
      <point x="1035.01" y="1492.99" type="line"/>
      <point x="1259.01" y="1472" type="line"/>
      <point x="1154.01" y="1273" type="line"/>
      <point x="1326.99" y="1417.01" type="line"/>
      <point x="1394" y="1202" type="line"/>
      <point x="1415.01" y="1426.01" type="line"/>
      <point x="1613.99" y="1321.01" type="line"/>
      <point x="1470" y="1493.99" type="line"/>
    </contour>
    <contour>
      <point x="1372.09" y="-75.5137" type="curve"/>
      <point x="1337.58" y="-26.859"/>
      <point x="1333" y="36.248"/>
      <point x="1333" y="94" type="curve" smooth="yes"/>
      <point x="1333" y="127.982"/>
      <point x="1336.69" y="162.388"/>
      <point x="1346.42" y="195.019" type="curve"/>
      <point x="949.206" y="169.957" type="line"/>
      <point x="903.267" y="206.062"/>
      <point x="897.475" y="279.617"/>
      <point x="893.734" y="330.422" type="curve" smooth="yes"/>
      <point x="874.13" y="596.623"/>
      <point x="932.21" y="995.003"/>
      <point x="687.978" y="1176.06" type="curve"/>
      <point x="579.993" y="1395" type="line"/>
      <point x="334.004" y="1311" type="line"/>
      <point x="417.878" y="1169.21" type="line"/>
      <point x="186.256" y="1031.23"/>
      <point x="96" y="851.49"/>
      <point x="96" y="594.001" type="curve" smooth="yes"/>
      <point x="96" y="493.625"/>
      <point x="121.233" y="453.001"/>
      <point x="185" y="453.001" type="curve" smooth="yes"/>
      <point x="198" y="453.001"/>
      <point x="210.021" y="454.892"/>
      <point x="223" y="457.001" type="curve" smooth="yes"/>
      <point x="382.992" y="483.002" type="line"/>
      <point x="382.992" y="511.887" type="line"/>
      <point x="369.152" y="527.415"/>
      <point x="362" y="553.873"/>
      <point x="362" y="584.001" type="curve" smooth="yes"/>
      <point x="362" y="759.06"/>
      <point x="402.134" y="870.868"/>
      <point x="526.46" y="992.145" type="curve"/>
      <point x="614.76" y="844.68"/>
      <point x="614" y="668.505"/>
      <point x="614" y="504.001" type="curve" smooth="yes"/>
      <point x="614" y="450.001" type="line" smooth="yes"/>
      <point x="614" y="348.385"/>
      <point x="612.941" y="251.338"/>
      <point x="645.267" y="153.9" type="curve"/>
      <point x="208.994" y="126.994" type="line"/>
      <point x="215.13" y="105.548"/>
      <point x="221" y="85.605"/>
      <point x="221" y="63.0015" type="curve" smooth="yes"/>
      <point x="221" y="-15.8955"/>
      <point x="209.127" y="-89.8005"/>
      <point x="173.687" y="-159.972" type="curve"/>
      <point x="201.121" y="-162.008"/>
      <point x="228.468" y="-163.999"/>
      <point x="256" y="-163.999" type="curve" smooth="yes"/>
      <point x="388.128" y="-163.999"/>
      <point x="517" y="-75.9013"/>
      <point x="517" y="43.0015" type="curve" smooth="yes"/>
      <point x="517" y="52.662"/>
      <point x="515.971" y="62.5595"/>
      <point x="515.325" y="72.0905" type="curve"/>
      <point x="1033.33" y="103.962" type="line"/>
      <point x="1047.88" y="-35.2648"/>
      <point x="1135.71" y="-103.999"/>
      <point x="1272" y="-103.999" type="curve" smooth="yes"/>
      <point x="1308.92" y="-103.999"/>
      <point x="1342.79" y="-98.0315"/>
    </contour>
  </outline>
</glyph>
<glyph name="uni1212" format="2">
  <advance width="1551"/>
  <unicode hex="1212"/>
  <outline>
    <component base="bar"/>
    <contour>
      <point x="1491.18" y="35" type="curve" smooth="yes"/>
      <point x="1491.18" y="-6.09"/>
      <point x="1457.27" y="-40"/>
      <point x="1416.18" y="-40" type="curve" smooth="yes"/>
      <point x="982.179" y="-40" type="line" smooth="yes"/>
      <point x="937.714" y="-40"/>
      <point x="908.179" y="-3.6435"/>
      <point x="908.179" y="35" type="curve" smooth="yes"/>
      <point x="908.179" y="582" type="line" smooth="yes"/>
      <point x="908.179" y="712.357"/>
      <point x="870.896" y="738.431"/>
      <point x="697.202" y="734.013" type="curve" smooth="yes"/>
      <point x="640.139" y="732.561" type="line"/>
      <point x="578.758" y="30.9543" type="line" smooth="yes"/>
      <point x="570.103" y="-67.9762"/>
      <point x="419.815" y="-53.2125"/>
      <point x="428.332" y="44.1145" type="curve" smooth="yes"/>
      <point x="488.882" y="736.051" type="line"/>
      <point x="270.516" y="717.673"/>
      <point x="154.36" y="551.218"/>
      <point x="160.177" y="35.3705" type="curve" smooth="yes"/>
      <point x="161.296" y="-63.9047"/>
      <point x="11.3058" y="-65.5992"/>
      <point x="10.1866" y="33.679" type="curve" smooth="yes"/>
      <point x="4.09156" y="574.214"/>
      <point x="150.023" y="867.734"/>
      <point x="502.055" y="886.588" type="curve"/>
      <point x="544.601" y="1373.05" type="line" smooth="yes"/>
      <point x="553.256" y="1472.01"/>
      <point x="703.545" y="1457.24"/>
      <point x="695.027" y="1359.89" type="curve" smooth="yes"/>
      <point x="653.329" y="883.278" type="line"/>
      <point x="845.289" y="891.544"/>
      <point x="1058.18" y="880.403"/>
      <point x="1058.18" y="613" type="curve" smooth="yes"/>
      <point x="1058.18" y="110.003" type="line"/>
      <point x="1416.18" y="110" type="line" smooth="yes"/>
      <point x="1456.48" y="110"/>
      <point x="1491.18" y="77.8742"/>
    </contour>
    <contour>
      <point x="1451.18" y="35" type="curve" smooth="yes"/>
      <point x="1451.18" y="54.9592"/>
      <point x="1435.23" y="70"/>
      <point x="1416.18" y="70" type="curve" smooth="yes"/>
      <point x="1018.17" y="69.997" type="line"/>
      <point x="1018.18" y="613" type="line" smooth="yes"/>
      <point x="1018.18" y="873.797"/>
      <point x="784.822" y="848.893"/>
      <point x="609.513" y="841.363" type="curve"/>
      <point x="655.179" y="1363.37" type="line" smooth="yes"/>
      <point x="659.103" y="1408.22"/>
      <point x="588.516" y="1416.06"/>
      <point x="584.449" y="1369.56" type="curve" smooth="yes"/>
      <point x="538.807" y="847.79" type="line"/>
      <point x="78.0569" y="835.403"/>
      <point x="46.3949" y="370.17"/>
      <point x="50.1839" y="34.1297" type="curve" smooth="yes"/>
      <point x="50.7092" y="-12.4553"/>
      <point x="120.704" y="-11.6508"/>
      <point x="120.179" y="34.9192" type="curve" smooth="yes"/>
      <point x="116.809" y="333.818"/>
      <point x="117.986" y="762.59"/>
      <point x="532.72" y="778.257" type="curve"/>
      <point x="468.18" y="40.6277" type="line" smooth="yes"/>
      <point x="464.256" y="-4.2208"/>
      <point x="534.842" y="-12.0605"/>
      <point x="538.91" y="34.44" type="curve" smooth="yes"/>
      <point x="603.405" y="771.628" type="line"/>
      <point x="767.671" y="775.827"/>
      <point x="948.179" y="817.978"/>
      <point x="948.179" y="582" type="curve" smooth="yes"/>
      <point x="948.179" y="35" type="line" smooth="yes"/>
      <point x="948.179" y="15.8682"/>
      <point x="962.302" y="0"/>
      <point x="982.179" y="0" type="curve" smooth="yes"/>
      <point x="1416.18" y="0" type="line" smooth="yes"/>
      <point x="1435.18" y="0"/>
      <point x="1451.18" y="16"/>
    </contour>
    <contour>
      <point x="641" y="1362" type="curve" smooth="yes"/>
      <point x="641" y="1348.19"/>
      <point x="629.807" y="1337"/>
      <point x="616" y="1337" type="curve" smooth="yes"/>
      <point x="602.193" y="1337"/>
      <point x="591" y="1348.19"/>
      <point x="591" y="1362" type="curve" smooth="yes"/>
      <point x="591" y="1375.81"/>
      <point x="602.193" y="1387"/>
      <point x="616" y="1387" type="curve" smooth="yes"/>
      <point x="629.807" y="1387"/>
      <point x="641" y="1375.81"/>
    </contour>
  </outline>
</glyph>
<glyph name="uni1213" format="2">
  <advance width="1100"/>
  <unicode hex="1213"/>
  <outline>
    <component base="bar"/>
    <contour>
      <point x="1039.91" y="35" type="line" smooth="yes"/>
      <point x="1039.91" y="-6.093"/>
      <point x="1006" y="-40"/>
      <point x="964.91" y="-40" type="curve" smooth="yes"/>
      <point x="922.036" y="-40"/>
      <point x="889.91" y="-5.30175"/>
      <point x="889.91" y="35" type="curve" smooth="yes"/>
      <point x="889.91" y="582" type="line" smooth="yes"/>
      <point x="889.91" y="712.021"/>
      <point x="852.956" y="736.741"/>
      <point x="678.538" y="734.005" type="curve" smooth="yes"/>
      <point x="606.372" y="732.873" type="line"/>
      <point x="596.747" y="622.872"/>
      <point x="575.716" y="381.983"/>
      <point x="575.716" y="381.983" type="curve"/>
      <point x="571.799" y="337.148"/>
      <point x="536.047" y="313.493"/>
      <point x="494.715" y="317.101" type="curve" smooth="yes"/>
      <point x="453.378" y="320.709"/>
      <point x="421.952" y="349.307"/>
      <point x="425.694" y="393.005" type="curve"/>
      <point x="425.694" y="393.005"/>
      <point x="445.684" y="628.768"/>
      <point x="455.132" y="736.756" type="curve"/>
      <point x="103.438" y="707.659"/>
      <point x="227.116" y="320.235"/>
      <point x="66.8688" y="353.569" type="curve" smooth="yes"/>
      <point x="20.7488" y="363.163"/>
      <point x="2.4845" y="408.468"/>
      <point x="13.8178" y="456.33" type="curve" smooth="yes"/>
      <point x="78.4408" y="729.243"/>
      <point x="226.824" y="874.135"/>
      <point x="468.304" y="887.243" type="curve"/>
      <point x="510.861" y="1373.72" type="line" smooth="yes"/>
      <point x="519.516" y="1472.66"/>
      <point x="669.803" y="1457.92"/>
      <point x="661.287" y="1360.56" type="curve" smooth="yes"/>
      <point x="619.545" y="883.36" type="line"/>
      <point x="674.729" y="884.983" type="line" smooth="yes"/>
      <point x="854.308" y="890.263"/>
      <point x="1039.91" y="858.799"/>
      <point x="1039.91" y="613" type="curve" smooth="yes"/>
    </contour>
    <contour>
      <point x="999.91" y="35" type="curve" smooth="yes"/>
      <point x="999.91" y="613" type="line" smooth="yes"/>
      <point x="999.91" y="879.167"/>
      <point x="752.26" y="847.253"/>
      <point x="575.772" y="842.045" type="curve"/>
      <point x="621.439" y="1364.05" type="line" smooth="yes"/>
      <point x="625.362" y="1408.89"/>
      <point x="554.773" y="1416.69"/>
      <point x="550.708" y="1370.23" type="curve" smooth="yes"/>
      <point x="505.056" y="848.466" type="line"/>
      <point x="238.175" y="841.227"/>
      <point x="112.19" y="698.175"/>
      <point x="52.741" y="447.113" type="curve" smooth="yes"/>
      <point x="37.0032" y="380.65"/>
      <point x="106.278" y="376.851"/>
      <point x="115.24" y="421.982" type="curve" smooth="yes"/>
      <point x="160.917" y="652.001"/>
      <point x="261.307" y="770.022"/>
      <point x="498.968" y="778.922" type="curve"/>
      <point x="465.381" y="394.954" type="line" smooth="yes"/>
      <point x="461.453" y="350.053"/>
      <point x="532.042" y="342.263"/>
      <point x="536.111" y="388.766" type="curve" smooth="yes"/>
      <point x="569.67" y="772.296" type="line"/>
      <point x="677.908" y="774" type="line" smooth="yes"/>
      <point x="861.249" y="776.885"/>
      <point x="929.91" y="745.839"/>
      <point x="929.91" y="582" type="curve" smooth="yes"/>
      <point x="929.91" y="35" type="line" smooth="yes"/>
      <point x="929.91" y="15.9573"/>
      <point x="944.951" y="0"/>
      <point x="964.91" y="0" type="curve" smooth="yes"/>
      <point x="983.909" y="0"/>
      <point x="999.91" y="16"/>
    </contour>
    <contour>
      <point x="613" y="1362" type="curve" smooth="yes"/>
      <point x="613" y="1348.19"/>
      <point x="601.807" y="1337"/>
      <point x="588" y="1337" type="curve" smooth="yes"/>
      <point x="574.193" y="1337"/>
      <point x="563" y="1348.19"/>
      <point x="563" y="1362" type="curve" smooth="yes"/>
      <point x="563" y="1375.81"/>
      <point x="574.193" y="1387"/>
      <point x="588" y="1387" type="curve" smooth="yes"/>
      <point x="601.807" y="1387"/>
      <point x="613" y="1375.81"/>
    </contour>
  </outline>
</glyph>
<glyph name="uni1216" format="2">
  <advance width="1133"/>
  <unicode hex="1216"/>
  <outline>
    <component base="bar"/>
    <contour>
      <point x="1073.43" y="385" type="line" smooth="yes"/>
      <point x="1073.43" y="343.912"/>
      <point x="1039.52" y="310"/>
      <point x="998.432" y="310" type="curve" smooth="yes"/>
      <point x="955.558" y="310"/>
      <point x="923.432" y="344.699"/>
      <point x="923.432" y="385" type="curve" smooth="yes"/>
      <point x="923.432" y="582" type="line" smooth="yes"/>
      <point x="923.432" y="712.021"/>
      <point x="886.407" y="736.748"/>
      <point x="712.064" y="734.005" type="curve" smooth="yes"/>
      <point x="640.106" y="732.873" type="line"/>
      <point x="630.426" y="622.206"/>
      <point x="609.734" y="379.015"/>
      <point x="609.734" y="379.015" type="curve"/>
      <point x="605.788" y="333.041"/>
      <point x="569.898" y="308.454"/>
      <point x="528.019" y="312.11" type="curve" smooth="yes"/>
      <point x="487.104" y="315.682"/>
      <point x="455.497" y="343.784"/>
      <point x="459.169" y="387.012" type="curve"/>
      <point x="459.169" y="387.012"/>
      <point x="479.26" y="626.774"/>
      <point x="488.882" y="736.707" type="curve"/>
      <point x="270.515" y="718.329"/>
      <point x="154.36" y="551.882"/>
      <point x="160.177" y="36.0354" type="curve" smooth="yes"/>
      <point x="161.296" y="-63.2396"/>
      <point x="11.3058" y="-64.9343"/>
      <point x="10.1866" y="34.3439" type="curve" smooth="yes"/>
      <point x="4.0916" y="574.879"/>
      <point x="150.023" y="868.406"/>
      <point x="502.055" y="887.259" type="curve"/>
      <point x="544.601" y="1373.71" type="line" smooth="yes"/>
      <point x="553.26" y="1472.72"/>
      <point x="703.545" y="1457.91"/>
      <point x="695.027" y="1360.55" type="curve" smooth="yes"/>
      <point x="653.279" y="883.343" type="line"/>
      <point x="846.703" y="889.112"/>
      <point x="1073.43" y="889.16"/>
      <point x="1073.43" y="613" type="curve" smooth="yes"/>
    </contour>
    <contour>
      <point x="1033.43" y="385" type="curve" smooth="yes"/>
      <point x="1033.43" y="613" type="line" smooth="yes"/>
      <point x="1033.43" y="879.4"/>
      <point x="786.273" y="847.29"/>
      <point x="609.506" y="842.022" type="curve"/>
      <point x="655.179" y="1364.04" type="line" smooth="yes"/>
      <point x="659.105" y="1408.91"/>
      <point x="588.513" y="1416.68"/>
      <point x="584.449" y="1370.22" type="curve" smooth="yes"/>
      <point x="538.807" y="848.462" type="line"/>
      <point x="78.0565" y="836.076"/>
      <point x="46.3947" y="370.848"/>
      <point x="50.184" y="34.7948" type="curve" smooth="yes"/>
      <point x="50.7093" y="-11.7897"/>
      <point x="120.705" y="-10.9864"/>
      <point x="120.18" y="35.5843" type="curve" smooth="yes"/>
      <point x="116.809" y="334.506"/>
      <point x="117.986" y="763.246"/>
      <point x="532.721" y="778.913" type="curve"/>
      <point x="498.685" y="389.963" type="line" smooth="yes"/>
      <point x="494.759" y="345.094"/>
      <point x="565.348" y="337.275"/>
      <point x="569.416" y="383.775" type="curve" smooth="yes"/>
      <point x="603.405" y="772.296" type="line"/>
      <point x="711.433" y="774" type="line" smooth="yes"/>
      <point x="894.754" y="776.892"/>
      <point x="963.432" y="745.839"/>
      <point x="963.432" y="582" type="curve" smooth="yes"/>
      <point x="963.432" y="385" type="line" smooth="yes"/>
      <point x="963.432" y="365.957"/>
      <point x="978.473" y="350"/>
      <point x="998.432" y="350" type="curve" smooth="yes"/>
      <point x="1017.43" y="350"/>
      <point x="1033.43" y="366.002"/>
    </contour>
    <contour>
      <point x="641" y="1362" type="curve" smooth="yes"/>
      <point x="641" y="1348.19"/>
      <point x="629.807" y="1337"/>
      <point x="616" y="1337" type="curve" smooth="yes"/>
      <point x="602.193" y="1337"/>
      <point x="591" y="1348.19"/>
      <point x="591" y="1362" type="curve" smooth="yes"/>
      <point x="591" y="1375.81"/>
      <point x="602.193" y="1387"/>
      <point x="616" y="1387" type="curve" smooth="yes"/>
      <point x="629.807" y="1387"/>
      <point x="641" y="1375.81"/>
    </contour>
  </outline>
</glyph>
<glyph name="uni1217" format="2">
  <advance width="1997"/>
  <unicode hex="1217"/>
  <outline>
    <contour>
      <point x="1887.43" y="1582.19" type="line"/>
      <point x="1539.01" y="1473.61" type="line"/>
      <point x="1773.94" y="1191.38" type="line"/>
      <point x="1449.25" y="1362.71" type="line"/>
      <point x="1415.19" y="999.556" type="line"/>
      <point x="1306.61" y="1347.99" type="line"/>
      <point x="1024.38" y="1113.05" type="line"/>
      <point x="1195.7" y="1437.76" type="line"/>
      <point x="832.528" y="1471.8" type="line"/>
      <point x="1180.99" y="1580.38" type="line"/>
      <point x="946.069" y="1862.61" type="line"/>
      <point x="1270.76" y="1691.3" type="line"/>
      <point x="1304.8" y="2054.46" type="line"/>
      <point x="1413.38" y="1706.02" type="line"/>
      <point x="1695.6" y="1940.91" type="line"/>
      <point x="1524.3" y="1616.25" type="line"/>
    </contour>
    <contour>
      <point x="1968.15" y="-37.3315" type="curve"/>
      <point x="1911.47" y="-77.8172"/>
      <point x="1885.59" y="-97"/>
      <point x="1810" y="-97" type="curve" smooth="yes"/>
      <point x="1683.86" y="-97"/>
      <point x="1561.3" y="-34.1715"/>
      <point x="1537.1" y="109.642" type="curve"/>
      <point x="1095.04" y="81.576" type="line"/>
      <point x="1088.88" y="-63.164"/>
      <point x="936.657" y="-157"/>
      <point x="795" y="-157" type="curve" smooth="yes"/>
      <point x="746.248" y="-157"/>
      <point x="697.281" y="-151.945"/>
      <point x="648.811" y="-148.355" type="curve"/>
      <point x="699.768" y="-52.8092"/>
      <point x="720" y="-4.64949"/>
      <point x="720" y="111" type="curve" smooth="yes"/>
      <point x="720" y="139.772"/>
      <point x="700.945" y="193.089"/>
      <point x="695.881" y="210.813" type="curve"/>
      <point x="1128.23" y="237.901" type="line"/>
      <point x="1109.53" y="219.385" type="line"/>
      <point x="1109.81" y="223.185"/>
      <point x="1110" y="228.276"/>
      <point x="1110" y="235" type="curve" smooth="yes"/>
      <point x="1110" y="363.571"/>
      <point x="1091.99" y="544.81"/>
      <point x="1086.08" y="640.534" type="curve" smooth="yes"/>
      <point x="1080.16" y="736.37"/>
      <point x="1043.38" y="770"/>
      <point x="973" y="770" type="curve" smooth="yes"/>
      <point x="970.516" y="770"/>
      <point x="968.032" y="769.956"/>
      <point x="965.542" y="769.884" type="curve"/>
      <point x="960.848" y="733.572"/>
      <point x="941" y="605.228"/>
      <point x="941" y="547" type="curve" smooth="yes"/>
      <point x="941" y="508.428"/>
      <point x="975.826" y="516.352"/>
      <point x="1007" y="513.452" type="curve"/>
      <point x="1007" y="410.681" type="line"/>
      <point x="935.579" y="397.555"/>
      <point x="839.779" y="377.87"/>
      <point x="757.883" y="364.89" type="curve" smooth="yes"/>
      <point x="744.086" y="362.703"/>
      <point x="728.688" y="361"/>
      <point x="713" y="361" type="curve" smooth="yes"/>
      <point x="611.282" y="361"/>
      <point x="572" y="402.021"/>
      <point x="572" y="471" type="curve" smooth="yes"/>
      <point x="572" y="516.222"/>
      <point x="600.025" y="681.163"/>
      <point x="604.193" y="711.377" type="curve"/>
      <point x="501.859" y="685.726"/>
      <point x="450" y="594.014"/>
      <point x="450" y="555" type="curve" smooth="yes"/>
      <point x="450" y="543.811"/>
      <point x="449.264" y="497.519"/>
      <point x="454.334" y="488.082" type="curve"/>
      <point x="463.562" y="485.748"/>
      <point x="477.1" y="485.161"/>
      <point x="486" y="483.958" type="curve"/>
      <point x="486" y="382.51" type="line"/>
      <point x="257.031" y="341.623" type="line" smooth="yes"/>
      <point x="233.347" y="337.394"/>
      <point x="212.007" y="335"/>
      <point x="194" y="335" type="curve" smooth="yes"/>
      <point x="100.938" y="335"/>
      <point x="56" y="392.381"/>
      <point x="56" y="496" type="curve" smooth="yes"/>
      <point x="56" y="701.446"/>
      <point x="320.746" y="865.622"/>
      <point x="626.688" y="877.33" type="curve"/>
      <point x="665.32" y="1181.05" type="line" smooth="yes"/>
      <point x="667.559" y="1198.65"/>
      <point x="671" y="1229.35"/>
      <point x="671" y="1247" type="curve" smooth="yes"/>
      <point x="671" y="1281.82"/>
      <point x="642.124" y="1285.09"/>
      <point x="615" y="1293.03" type="curve"/>
      <point x="615" y="1392.85" type="line"/>
      <point x="873.517" y="1428.62" type="line" smooth="yes"/>
      <point x="904.042" y="1432.85"/>
      <point x="918.207" y="1435"/>
      <point x="940" y="1435" type="curve" smooth="yes"/>
      <point x="1016.12" y="1435"/>
      <point x="1044" y="1391.05"/>
      <point x="1044" y="1343" type="curve" smooth="yes"/>
      <point x="1044" y="1292.19"/>
      <point x="1029.53" y="1237.16"/>
      <point x="1022.63" y="1186.59" type="curve" smooth="yes"/>
      <point x="987.021" y="925.68" type="line"/>
      <point x="1058.98" y="938.059"/>
      <point x="1141.85" y="958"/>
      <point x="1217" y="958" type="curve" smooth="yes"/>
      <point x="1339.29" y="958"/>
      <point x="1430.93" y="881.334"/>
      <point x="1446.85" y="697.451" type="curve" smooth="yes"/>
      <point x="1459.83" y="547.537"/>
      <point x="1474.16" y="408.631"/>
      <point x="1482.59" y="262.456" type="curve" smooth="yes"/>
      <point x="1482.8" y="258.851" type="line"/>
      <point x="1933.38" y="284.924" type="line"/>
      <point x="1922.9" y="232.552"/>
      <point x="1912" y="192.807"/>
      <point x="1912" y="141" type="curve" smooth="yes"/>
      <point x="1912" y="52.5878"/>
      <point x="1918.24" y="26.8433"/>
    </contour>
    <contour>
      <point x="1685" y="1561" type="line"/>
      <point x="1461" y="1582.01" type="line"/>
      <point x="1566" y="1781.01" type="line"/>
      <point x="1392.99" y="1637" type="line"/>
      <point x="1326.01" y="1852" type="line"/>
      <point x="1305" y="1628" type="line"/>
      <point x="1106" y="1733" type="line"/>
      <point x="1250" y="1560" type="line"/>
      <point x="1035.01" y="1492.99" type="line"/>
      <point x="1259.01" y="1472" type="line"/>
      <point x="1154.01" y="1273" type="line"/>
      <point x="1326.99" y="1417.01" type="line"/>
      <point x="1394" y="1202" type="line"/>
      <point x="1415.01" y="1426.01" type="line"/>
      <point x="1613.99" y="1321.01" type="line"/>
      <point x="1470" y="1493.99" type="line"/>
    </contour>
    <contour>
      <point x="1911.23" y="-28.6555" type="curve"/>
      <point x="1876.61" y="20.1318"/>
      <point x="1872" y="83.0087"/>
      <point x="1872" y="141" type="curve" smooth="yes"/>
      <point x="1872" y="176.242"/>
      <point x="1877.14" y="207.712"/>
      <point x="1884" y="242.008" type="curve"/>
      <point x="1446.32" y="216.675" type="line"/>
      <point x="1441.13" y="256.224"/>
      <point x="1441.44" y="296.248"/>
      <point x="1438" y="336" type="curve" smooth="yes"/>
      <point x="1407" y="694" type="line" smooth="yes"/>
      <point x="1392.44" y="862.104"/>
      <point x="1313.94" y="918"/>
      <point x="1217" y="918" type="curve" smooth="yes"/>
      <point x="1143.2" y="918"/>
      <point x="985.483" y="884.82"/>
      <point x="940.003" y="876.994" type="curve"/>
      <point x="958.175" y="1010.13"/>
      <point x="975.52" y="1141"/>
      <point x="995.085" y="1273.11" type="curve" smooth="yes"/>
      <point x="999.802" y="1304.96"/>
      <point x="1004" y="1335"/>
      <point x="1004" y="1343" type="curve" smooth="yes"/>
      <point x="1004" y="1370.04"/>
      <point x="992.958" y="1395"/>
      <point x="940" y="1395" type="curve" smooth="yes"/>
      <point x="920" y="1395"/>
      <point x="907.012" y="1392.88"/>
      <point x="879" y="1389" type="curve" smooth="yes"/>
      <point x="655" y="1358" type="line"/>
      <point x="655" y="1322.39" type="line"/>
      <point x="696.344" y="1306.54"/>
      <point x="711" y="1281.41"/>
      <point x="711" y="1247" type="curve" smooth="yes"/>
      <point x="711" y="1228"/>
      <point x="707.411" y="1194.95"/>
      <point x="705" y="1176" type="curve" smooth="yes"/>
      <point x="662.026" y="838.171" type="line"/>
      <point x="515.34" y="835.338"/>
      <point x="96" y="757.974"/>
      <point x="96" y="496" type="curve" smooth="yes"/>
      <point x="96" y="407.834"/>
      <point x="129.129" y="375"/>
      <point x="194" y="375" type="curve" smooth="yes"/>
      <point x="210.001" y="375"/>
      <point x="228.951" y="377.241"/>
      <point x="250" y="381" type="curve" smooth="yes"/>
      <point x="446.005" y="416.006" type="line"/>
      <point x="446.005" y="449.79" type="line"/>
      <point x="402.06" y="461.091"/>
      <point x="410" y="520.239"/>
      <point x="410" y="555" type="curve" smooth="yes" name=".hr01"/>
      <point x="410" y="673.795"/>
      <point x="556.786" y="747.257"/>
      <point x="651.165" y="759.248" type="curve"/>
      <point x="640.493" y="681.853"/>
      <point x="629.906" y="605.872"/>
      <point x="618.725" y="529.005" type="curve" smooth="yes"/>
      <point x="615.234" y="505.005"/>
      <point x="612" y="480.5"/>
      <point x="612" y="471" type="curve" smooth="yes"/>
      <point x="612" y="430.168"/>
      <point x="626.795" y="401"/>
      <point x="713" y="401" type="curve" smooth="yes"/>
      <point x="736.411" y="401"/>
      <point x="759.113" y="405.793"/>
      <point x="782" y="410" type="curve" smooth="yes"/>
      <point x="967" y="444.007" type="line"/>
      <point x="967" y="477.348" type="line"/>
      <point x="923.15" y="483.447"/>
      <point x="901" y="498.779"/>
      <point x="901" y="547" type="curve" smooth="yes"/>
      <point x="901" y="612.578"/>
      <point x="926.145" y="777.116"/>
      <point x="930.057" y="807.383" type="curve"/>
      <point x="944.367" y="808.645"/>
      <point x="958.619" y="810"/>
      <point x="973" y="810" type="curve" smooth="yes"/>
      <point x="1069.9" y="810"/>
      <point x="1119.14" y="754.1"/>
      <point x="1126" y="643" type="curve" smooth="yes"/>
      <point x="1132.13" y="543.814"/>
      <point x="1150" y="364.619"/>
      <point x="1150" y="235" type="curve" smooth="yes"/>
      <point x="1150" y="222.953"/>
      <point x="1149.04" y="211.092"/>
      <point x="1148.17" y="199.071" type="curve"/>
      <point x="747.995" y="173.998" type="line"/>
      <point x="753.956" y="153.152"/>
      <point x="760" y="132.939"/>
      <point x="760" y="111" type="curve" smooth="yes"/>
      <point x="760" y="32.276"/>
      <point x="748.123" y="-42.8213"/>
      <point x="712.687" y="-112.984" type="curve"/>
      <point x="740.121" y="-115.009"/>
      <point x="767.469" y="-117"/>
      <point x="795" y="-117" type="curve" smooth="yes"/>
      <point x="931.206" y="-117"/>
      <point x="1061.33" y="-30.6165"/>
      <point x="1054.07" y="119.064" type="curve"/>
      <point x="1572.34" y="151.955" type="line"/>
      <point x="1586.7" y="12.5387"/>
      <point x="1672.97" y="-57"/>
      <point x="1810" y="-57" type="curve" smooth="yes"/>
      <point x="1849.71" y="-57"/>
      <point x="1879.37" y="-50.4865"/>
    </contour>
  </outline>
</glyph>
<glyph name="uni1219" format="2">
  <advance width="1754"/>
  <unicode hex="1219"/>
  <outline>
    <component base="bar"/>
    <contour>
      <point x="1693.74" y="802.992" type="curve" smooth="yes"/>
      <point x="1693.74" y="761.964"/>
      <point x="1659.98" y="727.992"/>
      <point x="1618.74" y="727.992" type="curve" smooth="yes"/>
      <point x="1251.13" y="727.99" type="line"/>
      <point x="1225.33" y="564.841"/>
      <point x="1143.79" y="408.892"/>
      <point x="975.004" y="398.676" type="curve" smooth="yes"/>
      <point x="865.132" y="392.027"/>
      <point x="715.744" y="406.966"/>
      <point x="712.996" y="553.761" type="curve" smooth="yes"/>
      <point x="704.791" y="992.1" type="line"/>
      <point x="686.539" y="990.691" type="line"/>
      <point x="570.034" y="465.34" type="line" smooth="yes"/>
      <point x="534.444" y="304.853"/>
      <point x="10" y="285.307"/>
      <point x="10" y="604.158" type="curve" smooth="yes"/>
      <point x="10" y="1103.81"/>
      <point x="463.544" y="1135.72"/>
      <point x="828.479" y="1145.78" type="curve" smooth="yes"/>
      <point x="919.201" y="1148.28"/>
      <point x="1012.7" y="1160.17"/>
      <point x="1100.54" y="1129.2" type="curve" smooth="yes"/>
      <point x="1192.28" y="1096.86"/>
      <point x="1255.3" y="1021.47"/>
      <point x="1260.62" y="878.592" type="curve"/>
      <point x="1618.78" y="877.992" type="line" smooth="yes"/>
      <point x="1659.02" y="877.925"/>
      <point x="1693.74" y="845.895"/>
    </contour>
    <contour>
      <point x="1653.74" y="802.992" type="curve" smooth="yes"/>
      <point x="1653.74" y="822.921"/>
      <point x="1637.81" y="837.961"/>
      <point x="1618.71" y="837.992" type="curve" smooth="yes"/>
      <point x="1220.98" y="838.65" type="line"/>
      <point x="1220.98" y="858.617" type="line" smooth="yes"/>
      <point x="1220.98" y="1136.14"/>
      <point x="1019.66" y="1111.03"/>
      <point x="829.581" y="1105.79" type="curve" smooth="yes"/>
      <point x="487.685" y="1096.37"/>
      <point x="50" y="1074.69"/>
      <point x="50" y="604.158" type="curve" smooth="yes"/>
      <point x="50" y="331.323"/>
      <point x="506.286" y="362.635"/>
      <point x="530.983" y="474" type="curve" smooth="yes"/>
      <point x="653.903" y="1028.28" type="line"/>
      <point x="743.985" y="1035.26" type="line"/>
      <point x="752.989" y="554.51" type="line" smooth="yes"/>
      <point x="755.195" y="436.74"/>
      <point x="887.587" y="433.459"/>
      <point x="972.588" y="438.603" type="curve" smooth="yes"/>
      <point x="1145.85" y="449.09"/>
      <point x="1198.78" y="636.829"/>
      <point x="1216.35" y="767.996" type="curve"/>
      <point x="1618.74" y="767.992" type="line" smooth="yes"/>
      <point x="1637.82" y="767.992"/>
      <point x="1653.74" y="783.989"/>
    </contour>
    <contour>
      <point x="1150.98" y="858.617" type="curve" smooth="yes"/>
      <point x="1150.98" y="669.174"/>
      <point x="1110.77" y="489.122"/>
      <point x="888.527" y="507.706" type="curve" smooth="yes"/>
      <point x="864.768" y="509.693"/>
      <point x="822.382" y="506.492"/>
      <point x="821.98" y="542.617" type="curve" smooth="yes"/>
      <point x="816.43" y="1040.26" type="line"/>
      <point x="889.214" y="1036.88"/>
      <point x="969.614" y="1046.18"/>
      <point x="1040.41" y="1028.71" type="curve" smooth="yes"/>
      <point x="1105.11" y="1012.73"/>
      <point x="1150.98" y="970.403"/>
    </contour>
    <contour>
      <point x="642" y="1055" type="curve" smooth="yes"/>
      <point x="642" y="1041.19"/>
      <point x="630.807" y="1030"/>
      <point x="617" y="1030" type="curve" smooth="yes"/>
      <point x="603.193" y="1030"/>
      <point x="592" y="1041.19"/>
      <point x="592" y="1055" type="curve" smooth="yes"/>
      <point x="592" y="1068.81"/>
      <point x="603.193" y="1080"/>
      <point x="617" y="1080" type="curve" smooth="yes"/>
      <point x="630.807" y="1080"/>
      <point x="642" y="1068.81"/>
    </contour>
    <contour>
      <point x="579.768" y="1025.72" type="curve"/>
      <point x="467.997" y="514.617" type="line" smooth="yes"/>
      <point x="456.01" y="459.803"/>
      <point x="368.701" y="463.858"/>
      <point x="327.639" y="462.589" type="curve" smooth="yes"/>
      <point x="204.507" y="458.782"/>
      <point x="119.937" y="517.766"/>
      <point x="119.937" y="602.636" type="curve" smooth="yes"/>
      <point x="119.937" y="903.024"/>
      <point x="318.371" y="1002.78"/>
    </contour>
    <contour>
      <point x="1110.98" y="858.617" type="curve" smooth="yes"/>
      <point x="1110.98" y="993.767"/>
      <point x="1036.27" y="997.77"/>
      <point x="932.3" y="998.291" type="curve" smooth="yes"/>
      <point x="907.433" y="998.416"/>
      <point x="882.009" y="998.077"/>
      <point x="856.899" y="998.621" type="curve"/>
      <point x="861.897" y="549.634" type="line"/>
      <point x="1068.37" y="516.955"/>
      <point x="1110.98" y="661.729"/>
    </contour>
    <contour>
      <point x="528.974" y="980.697" type="line"/>
      <point x="300.96" y="953.575"/>
      <point x="159.937" y="842.396"/>
      <point x="159.937" y="602.636" type="curve" smooth="yes"/>
      <point x="159.937" y="475.236"/>
      <point x="422.61" y="494.303"/>
      <point x="428.921" y="523.163" type="curve" smooth="yes"/>
    </contour>
  </outline>
</glyph>
<glyph name="uni121A" format="2">
  <advance width="1662"/>
  <unicode hex="121A"/>
  <outline>
    <component base="bar"/>
    <contour>
      <point x="1601.66" y="36.9512" type="curve" smooth="yes"/>
      <point x="1601.66" y="-4.07775"/>
      <point x="1567.89" y="-38.0493"/>
      <point x="1526.66" y="-38.0493" type="curve" smooth="yes"/>
      <point x="1092.66" y="-38.0493" type="line" smooth="yes"/>
      <point x="1053.56" y="-38.0493"/>
      <point x="1013.44" y="-6.03375"/>
      <point x="1017.83" y="40.6972" type="curve" smooth="yes"/>
      <point x="1078.05" y="680.772" type="line"/>
      <point x="970.098" y="622.477"/>
      <point x="716.301" y="630.403"/>
      <point x="712.996" y="806.971" type="curve" smooth="yes"/>
      <point x="704.79" y="1245.3" type="line"/>
      <point x="686.539" y="1243.89" type="line"/>
      <point x="570.034" y="718.55" type="line" smooth="yes"/>
      <point x="534.434" y="558.025"/>
      <point x="10" y="538.517"/>
      <point x="10" y="857.368" type="curve" smooth="yes"/>
      <point x="10" y="1357.02"/>
      <point x="463.545" y="1388.93"/>
      <point x="828.479" y="1398.99" type="curve" smooth="yes"/>
      <point x="919.073" y="1401.48"/>
      <point x="1012.32" y="1413.29"/>
      <point x="1100.1" y="1382.64" type="curve" smooth="yes"/>
      <point x="1195.95" y="1349.17"/>
      <point x="1260.78" y="1267.08"/>
      <point x="1261.39" y="1112.27" type="curve"/>
      <point x="1172.37" y="111.952" type="line"/>
      <point x="1526.66" y="111.951" type="line" smooth="yes"/>
      <point x="1566.96" y="111.951"/>
      <point x="1601.66" y="79.8241"/>
    </contour>
    <contour>
      <point x="1561.66" y="36.9512" type="curve" smooth="yes"/>
      <point x="1561.66" y="56.9102"/>
      <point x="1545.71" y="71.9515"/>
      <point x="1526.66" y="71.9515" type="curve" smooth="yes"/>
      <point x="1128.66" y="71.9467" type="line"/>
      <point x="1221.43" y="1113.95" type="line"/>
      <point x="1219.85" y="1389.56"/>
      <point x="1018.59" y="1364.21"/>
      <point x="829.581" y="1359" type="curve" smooth="yes"/>
      <point x="487.685" y="1349.58"/>
      <point x="50" y="1327.9"/>
      <point x="50" y="857.367" type="curve" smooth="yes"/>
      <point x="50" y="584.532"/>
      <point x="506.28" y="615.817"/>
      <point x="530.983" y="727.209" type="curve" smooth="yes"/>
      <point x="653.903" y="1281.48" type="line"/>
      <point x="743.985" y="1288.45" type="line"/>
      <point x="752.989" y="807.719" type="line" smooth="yes"/>
      <point x="755.194" y="689.983"/>
      <point x="887.625" y="686.671"/>
      <point x="972.588" y="691.812" type="curve" smooth="yes"/>
      <point x="1041.92" y="696.007"/>
      <point x="1075.22" y="724.784"/>
      <point x="1126.15" y="765.081" type="curve"/>
      <point x="1057.66" y="36.9498" type="line" smooth="yes"/>
      <point x="1055.9" y="18.264"/>
      <point x="1072.26" y="1.94976"/>
      <point x="1092.66" y="1.94976" type="curve" smooth="yes"/>
      <point x="1526.66" y="1.94976" type="line" smooth="yes"/>
      <point x="1545.74" y="1.94976"/>
      <point x="1561.66" y="17.9473"/>
    </contour>
    <contour>
      <point x="1150.98" y="1111.83" type="curve" smooth="yes"/>
      <point x="1150.98" y="991.785"/>
      <point x="1131.69" y="771.567"/>
      <point x="968.354" y="761.685" type="curve" smooth="yes"/>
      <point x="946.09" y="760.339"/>
      <point x="856.686" y="754.91"/>
      <point x="834.491" y="771.243" type="curve" smooth="yes"/>
      <point x="826.827" y="776.882"/>
      <point x="822.095" y="785.486"/>
      <point x="821.98" y="795.827" type="curve" smooth="yes"/>
      <point x="816.43" y="1293.47" type="line"/>
      <point x="855.187" y="1291.67"/>
      <point x="893.716" y="1291.7"/>
      <point x="932.501" y="1291.5" type="curve" smooth="yes"/>
      <point x="1058.26" y="1290.87"/>
      <point x="1150.98" y="1272.99"/>
    </contour>
    <contour>
      <point x="647" y="1315" type="curve" smooth="yes"/>
      <point x="647" y="1301.19"/>
      <point x="635.807" y="1290"/>
      <point x="622" y="1290" type="curve" smooth="yes"/>
      <point x="608.193" y="1290"/>
      <point x="597" y="1301.19"/>
      <point x="597" y="1315" type="curve" smooth="yes"/>
      <point x="597" y="1328.81"/>
      <point x="608.193" y="1340"/>
      <point x="622" y="1340" type="curve" smooth="yes"/>
      <point x="635.807" y="1340"/>
      <point x="647" y="1328.81"/>
    </contour>
    <contour>
      <point x="579.768" y="1278.94" type="curve"/>
      <point x="467.997" y="767.827" type="line" smooth="yes"/>
      <point x="456.009" y="713.008"/>
      <point x="368.705" y="717.068"/>
      <point x="327.639" y="715.799" type="curve" smooth="yes"/>
      <point x="204.508" y="711.992"/>
      <point x="119.937" y="770.982"/>
      <point x="119.937" y="855.846" type="curve" smooth="yes"/>
      <point x="119.937" y="1156.23"/>
      <point x="318.369" y="1255.99"/>
    </contour>
    <contour>
      <point x="1110.98" y="1111.83" type="curve" smooth="yes"/>
      <point x="1110.98" y="1246.98"/>
      <point x="1036.27" y="1250.98"/>
      <point x="932.3" y="1251.5" type="curve" smooth="yes"/>
      <point x="907.433" y="1251.63"/>
      <point x="882.009" y="1251.29"/>
      <point x="856.899" y="1251.84" type="curve"/>
      <point x="861.897" y="802.849" type="line"/>
      <point x="895.612" y="797.513"/>
      <point x="932.101" y="799.565"/>
      <point x="965.938" y="801.612" type="curve" smooth="yes"/>
      <point x="1099.4" y="809.687"/>
      <point x="1110.98" y="1016.79"/>
    </contour>
    <contour>
      <point x="528.974" y="1233.91" type="line"/>
      <point x="300.96" y="1206.79"/>
      <point x="159.937" y="1095.62"/>
      <point x="159.937" y="855.846" type="curve" smooth="yes"/>
      <point x="159.937" y="805.24"/>
      <point x="212.117" y="752.246"/>
      <point x="326.402" y="755.78" type="curve" smooth="yes"/>
      <point x="342.879" y="756.289"/>
      <point x="424.246" y="754.994"/>
      <point x="428.92" y="776.373" type="curve" smooth="yes"/>
    </contour>
  </outline>
</glyph>
<glyph name="uni121B" format="2">
  <advance width="1321"/>
  <unicode hex="121B"/>
  <outline>
    <component base="bar"/>
    <contour>
      <point x="1260.89" y="1110.11" type="curve"/>
      <point x="1260.89" y="1110.11"/>
      <point x="1253.54" y="1018.19"/>
      <point x="1249.82" y="973.903" type="curve" smooth="yes"/>
      <point x="1170.43" y="30.4137" type="line" smooth="yes"/>
      <point x="1162.16" y="-67.9036"/>
      <point x="1012.1" y="-54.9206"/>
      <point x="1021" y="43.4732" type="curve" smooth="yes"/>
      <point x="1078.71" y="681.148" type="line"/>
      <point x="970.78" y="622.403"/>
      <point x="716.306" y="630.171"/>
      <point x="712.996" y="806.971" type="curve" smooth="yes"/>
      <point x="704.79" y="1245.3" type="line"/>
      <point x="686.539" y="1243.89" type="line"/>
      <point x="570.034" y="718.55" type="line" smooth="yes"/>
      <point x="534.434" y="558.025"/>
      <point x="10" y="538.487"/>
      <point x="10" y="857.368" type="curve" smooth="yes"/>
      <point x="10" y="1357.04"/>
      <point x="463.532" y="1388.93"/>
      <point x="828.479" y="1398.99" type="curve" smooth="yes"/>
      <point x="919.156" y="1401.48"/>
      <point x="1012.58" y="1413.35"/>
      <point x="1100.39" y="1382.47" type="curve" smooth="yes"/>
      <point x="1194.86" y="1349.26"/>
      <point x="1273.71" y="1267.89"/>
    </contour>
    <contour>
      <point x="1221.02" y="1113.32" type="curve" smooth="yes"/>
      <point x="1236.07" y="1300.67"/>
      <point x="1114.39" y="1361.23"/>
      <point x="960.349" y="1363.43" type="curve" smooth="yes"/>
      <point x="915.938" y="1364.07"/>
      <point x="870.904" y="1360.14"/>
      <point x="829.581" y="1359" type="curve" smooth="yes"/>
      <point x="487.638" y="1349.58"/>
      <point x="50" y="1327.9"/>
      <point x="50" y="857.367" type="curve" smooth="yes"/>
      <point x="50" y="584.531"/>
      <point x="506.28" y="615.817"/>
      <point x="530.983" y="727.209" type="curve" smooth="yes"/>
      <point x="653.903" y="1281.48" type="line"/>
      <point x="743.985" y="1288.45" type="line"/>
      <point x="752.989" y="807.719" type="line" smooth="yes"/>
      <point x="755.194" y="690.015"/>
      <point x="887.627" y="686.671"/>
      <point x="972.588" y="691.812" type="curve" smooth="yes"/>
      <point x="1042.16" y="696.022"/>
      <point x="1075.56" y="725.009"/>
      <point x="1126.51" y="765.566" type="curve"/>
      <point x="1060.84" y="39.8673" type="line" smooth="yes"/>
      <point x="1056.7" y="-5.91099"/>
      <point x="1126.73" y="-11.94"/>
      <point x="1130.57" y="33.7663" type="curve" smooth="yes"/>
      <point x="1160.84" y="393.549"/>
      <point x="1192.09" y="753.382"/>
    </contour>
    <contour>
      <point x="1150.98" y="1111.83" type="curve" smooth="yes"/>
      <point x="1150.98" y="922.384"/>
      <point x="1110.78" y="742.333"/>
      <point x="888.527" y="760.916" type="curve" smooth="yes"/>
      <point x="864.768" y="762.903"/>
      <point x="822.382" y="759.702"/>
      <point x="821.98" y="795.827" type="curve" smooth="yes"/>
      <point x="816.43" y="1293.47" type="line"/>
      <point x="855.187" y="1291.67"/>
      <point x="893.716" y="1291.69"/>
      <point x="932.501" y="1291.5" type="curve" smooth="yes"/>
      <point x="1058.26" y="1290.87"/>
      <point x="1150.98" y="1272.99"/>
    </contour>
    <contour>
      <point x="647" y="1315" type="curve" smooth="yes"/>
      <point x="647" y="1301.19"/>
      <point x="635.807" y="1290"/>
      <point x="622" y="1290" type="curve" smooth="yes"/>
      <point x="608.193" y="1290"/>
      <point x="597" y="1301.19"/>
      <point x="597" y="1315" type="curve" smooth="yes"/>
      <point x="597" y="1328.81"/>
      <point x="608.193" y="1340"/>
      <point x="622" y="1340" type="curve" smooth="yes"/>
      <point x="635.807" y="1340"/>
      <point x="647" y="1328.81"/>
    </contour>
    <contour>
      <point x="579.768" y="1278.94" type="curve"/>
      <point x="467.997" y="767.827" type="line" smooth="yes"/>
      <point x="456.009" y="713.008"/>
      <point x="368.705" y="717.068"/>
      <point x="327.639" y="715.799" type="curve" smooth="yes"/>
      <point x="204.509" y="711.992"/>
      <point x="119.937" y="770.98"/>
      <point x="119.937" y="855.846" type="curve" smooth="yes"/>
      <point x="119.937" y="1156.24"/>
      <point x="318.367" y="1255.99"/>
    </contour>
    <contour>
      <point x="1110.98" y="1111.83" type="curve" smooth="yes"/>
      <point x="1110.98" y="1246.97"/>
      <point x="1036.27" y="1250.98"/>
      <point x="932.3" y="1251.5" type="curve" smooth="yes"/>
      <point x="907.433" y="1251.63"/>
      <point x="882.009" y="1251.29"/>
      <point x="856.899" y="1251.84" type="curve"/>
      <point x="861.897" y="802.849" type="line"/>
      <point x="1068.38" y="770.17"/>
      <point x="1110.98" y="914.915"/>
    </contour>
    <contour>
      <point x="528.974" y="1233.91" type="line"/>
      <point x="300.96" y="1206.79"/>
      <point x="159.937" y="1095.62"/>
      <point x="159.937" y="855.846" type="curve" smooth="yes"/>
      <point x="159.937" y="805.242"/>
      <point x="212.118" y="752.246"/>
      <point x="326.402" y="755.78" type="curve" smooth="yes"/>
      <point x="342.88" y="756.289"/>
      <point x="424.246" y="754.994"/>
      <point x="428.921" y="776.373" type="curve" smooth="yes"/>
    </contour>
  </outline>
</glyph>
<glyph name="uni121D" format="2">
  <advance width="1423"/>
  <unicode hex="121D"/>
  <outline>
    <component base="bar"/>
    <contour>
      <point x="1363.47" y="1111.83" type="curve" smooth="yes"/>
      <point x="1363.47" y="903.567"/>
      <point x="1289.2" y="664.699"/>
      <point x="1077.5" y="651.886" type="curve" smooth="yes"/>
      <point x="1035.45" y="649.341"/>
      <point x="972.419" y="648.225"/>
      <point x="918.932" y="666.811" type="curve" smooth="yes"/>
      <point x="863.587" y="686.044"/>
      <point x="816.978" y="727.322"/>
      <point x="815.488" y="806.971" type="curve" smooth="yes"/>
      <point x="807.289" y="1245.3" type="line"/>
      <point x="789.021" y="1243.89" type="line"/>
      <point x="672.526" y="718.55" type="line" smooth="yes"/>
      <point x="668.358" y="699.752"/>
      <point x="654.079" y="678.944"/>
      <point x="637.436" y="664.502" type="curve"/>
      <point x="145.235" y="-15.1145" type="line" smooth="yes"/>
      <point x="87.5037" y="-94.8278"/>
      <point x="-33.775" y="-6.99052"/>
      <point x="24.5238" y="72.9225" type="curve" smooth="yes"/>
      <point x="413.057" y="605.503" type="line"/>
      <point x="277.718" y="610.833"/>
      <point x="112.492" y="677.395"/>
      <point x="112.492" y="857.368" type="curve" smooth="yes"/>
      <point x="112.492" y="1357"/>
      <point x="566.037" y="1388.93"/>
      <point x="930.971" y="1398.99" type="curve" smooth="yes"/>
      <point x="1021.69" y="1401.49"/>
      <point x="1115.19" y="1413.37"/>
      <point x="1203.03" y="1382.41" type="curve" smooth="yes"/>
      <point x="1298.95" y="1348.59"/>
      <point x="1363.47" y="1267.7"/>
    </contour>
    <contour>
      <point x="1323.47" y="1111.83" type="curve" smooth="yes"/>
      <point x="1323.47" y="1389.35"/>
      <point x="1122.15" y="1364.24"/>
      <point x="932.073" y="1359" type="curve" smooth="yes"/>
      <point x="590.179" y="1349.58"/>
      <point x="152.492" y="1327.87"/>
      <point x="152.492" y="857.368" type="curve" smooth="yes"/>
      <point x="152.492" y="665.397"/>
      <point x="360.247" y="640.884"/>
      <point x="493.5" y="647.907" type="curve"/>
      <point x="56.8388" y="49.348" type="line" smooth="yes"/>
      <point x="29.6316" y="12.053"/>
      <point x="86.0546" y="-28.6345"/>
      <point x="112.839" y="8.34798" type="curve" smooth="yes"/>
      <point x="607.952" y="691.975" type="line"/>
      <point x="617.614" y="699.965"/>
      <point x="630.537" y="713.962"/>
      <point x="633.475" y="727.21" type="curve" smooth="yes"/>
      <point x="756.385" y="1281.48" type="line"/>
      <point x="846.484" y="1288.45" type="line"/>
      <point x="855.481" y="807.719" type="line" smooth="yes"/>
      <point x="856.586" y="748.696"/>
      <point x="888.564" y="719.71"/>
      <point x="932.062" y="704.595" type="curve" smooth="yes"/>
      <point x="977.427" y="688.831"/>
      <point x="1033.48" y="689.296"/>
      <point x="1075.08" y="691.813" type="curve" smooth="yes"/>
      <point x="1248.64" y="702.317"/>
      <point x="1323.47" y="901.742"/>
    </contour>
    <contour>
      <point x="1253.47" y="1111.83" type="curve" smooth="yes"/>
      <point x="1253.47" y="922.383"/>
      <point x="1213.27" y="742.332"/>
      <point x="991.019" y="760.916" type="curve" smooth="yes"/>
      <point x="967.26" y="762.903"/>
      <point x="924.874" y="759.702"/>
      <point x="924.472" y="795.827" type="curve" smooth="yes"/>
      <point x="918.929" y="1293.47" type="line"/>
      <point x="957.684" y="1291.67"/>
      <point x="996.212" y="1291.69"/>
      <point x="1034.99" y="1291.5" type="curve" smooth="yes"/>
      <point x="1160.76" y="1290.87"/>
      <point x="1253.47" y="1272.99"/>
    </contour>
    <contour>
      <point x="743" y="1312" type="curve" smooth="yes"/>
      <point x="743" y="1298.19"/>
      <point x="731.807" y="1287"/>
      <point x="718" y="1287" type="curve" smooth="yes"/>
      <point x="704.193" y="1287"/>
      <point x="693" y="1298.19"/>
      <point x="693" y="1312" type="curve" smooth="yes"/>
      <point x="693" y="1325.81"/>
      <point x="704.193" y="1337"/>
      <point x="718" y="1337" type="curve" smooth="yes"/>
      <point x="731.807" y="1337"/>
      <point x="743" y="1325.81"/>
    </contour>
    <contour>
      <point x="682.266" y="1278.94" type="curve"/>
      <point x="570.489" y="767.827" type="line" smooth="yes"/>
      <point x="558.5" y="713.008"/>
      <point x="471.197" y="717.068"/>
      <point x="430.13" y="715.799" type="curve" smooth="yes"/>
      <point x="306.989" y="711.991"/>
      <point x="222.429" y="770.977"/>
      <point x="222.429" y="855.846" type="curve" smooth="yes"/>
      <point x="222.429" y="1156.23"/>
      <point x="420.87" y="1255.99"/>
    </contour>
    <contour>
      <point x="1213.47" y="1111.83" type="curve" smooth="yes"/>
      <point x="1213.47" y="1246.98"/>
      <point x="1138.76" y="1250.98"/>
      <point x="1034.79" y="1251.5" type="curve" smooth="yes"/>
      <point x="1009.93" y="1251.63"/>
      <point x="984.505" y="1251.29"/>
      <point x="959.398" y="1251.84" type="curve"/>
      <point x="964.395" y="802.849" type="line"/>
      <point x="1170.87" y="770.171"/>
      <point x="1213.47" y="914.925"/>
    </contour>
    <contour>
      <point x="631.472" y="1233.91" type="line"/>
      <point x="403.458" y="1206.79"/>
      <point x="262.429" y="1095.62"/>
      <point x="262.429" y="855.846" type="curve" smooth="yes"/>
      <point x="262.429" y="805.24"/>
      <point x="314.615" y="752.246"/>
      <point x="428.894" y="755.78" type="curve" smooth="yes"/>
      <point x="445.371" y="756.289"/>
      <point x="526.737" y="754.992"/>
      <point x="531.412" y="776.373" type="curve" smooth="yes"/>
    </contour>
  </outline>
</glyph>
<glyph name="uni121E" format="2">
  <advance width="1321"/>
  <unicode hex="121E"/>
  <outline>
    <component base="bar"/>
    <contour>
      <point x="1260.98" y="1111.83" type="curve" smooth="yes"/>
      <point x="1260.98" y="903.57"/>
      <point x="1186.73" y="664.702"/>
      <point x="975.004" y="651.886" type="curve" smooth="yes"/>
      <point x="932.95" y="649.341"/>
      <point x="869.919" y="648.237"/>
      <point x="816.438" y="666.827" type="curve" smooth="yes"/>
      <point x="761.103" y="686.061"/>
      <point x="714.487" y="727.334"/>
      <point x="712.996" y="806.971" type="curve" smooth="yes"/>
      <point x="704.791" y="1245.3" type="line"/>
      <point x="686.932" y="1243.92" type="line"/>
      <point x="431.26" y="19.3993" type="line" smooth="yes"/>
      <point x="410.906" y="-78.0862"/>
      <point x="264.761" y="-46.5002"/>
      <point x="284.23" y="49.0878" type="curve" smooth="yes"/>
      <point x="398.639" y="610.779" type="line"/>
      <point x="238.471" y="585.222"/>
      <point x="10" y="646.992"/>
      <point x="10" y="857.368" type="curve" smooth="yes"/>
      <point x="10" y="1087.36"/>
      <point x="155.125" y="1368.88"/>
      <point x="533.193" y="1385.79" type="curve" smooth="yes"/>
      <point x="613.371" y="1389.37"/>
      <point x="842.469" y="1405.13"/>
      <point x="961.003" y="1403.43" type="curve" smooth="yes"/>
      <point x="1146.33" y="1400.77"/>
      <point x="1260.98" y="1323.43"/>
    </contour>
    <contour>
      <point x="1220.98" y="1111.83" type="curve" smooth="yes"/>
      <point x="1220.98" y="1385.56"/>
      <point x="1019.92" y="1367.51"/>
      <point x="829.535" y="1359" type="curve" smooth="yes"/>
      <point x="534.98" y="1345.83" type="line" smooth="yes"/>
      <point x="183.246" y="1330.1"/>
      <point x="50" y="1071.52"/>
      <point x="50" y="857.368" type="curve" smooth="yes"/>
      <point x="50" y="665.78"/>
      <point x="278.308" y="622.514"/>
      <point x="419.652" y="655.631" type="curve" smooth="yes"/>
      <point x="450.041" y="662.751" type="line"/>
      <point x="323.426" y="41.1048" type="line" smooth="yes"/>
      <point x="314.452" y="-2.95349"/>
      <point x="382.468" y="-18.5802"/>
      <point x="392.104" y="27.5743" type="curve" smooth="yes"/>
      <point x="653.907" y="1281.48" type="line"/>
      <point x="743.985" y="1288.45" type="line"/>
      <point x="752.989" y="807.72" type="line" smooth="yes"/>
      <point x="754.094" y="748.716"/>
      <point x="786.07" y="719.731"/>
      <point x="829.572" y="704.609" type="curve" smooth="yes"/>
      <point x="874.942" y="688.839"/>
      <point x="930.983" y="689.295"/>
      <point x="972.588" y="691.813" type="curve" smooth="yes"/>
      <point x="1146.15" y="702.319"/>
      <point x="1220.98" y="901.744"/>
    </contour>
    <contour>
      <point x="1150.98" y="1111.83" type="curve" smooth="yes"/>
      <point x="1150.98" y="922.386"/>
      <point x="1110.81" y="742.328"/>
      <point x="888.527" y="760.916" type="curve" smooth="yes"/>
      <point x="864.767" y="762.903"/>
      <point x="822.382" y="759.698"/>
      <point x="821.98" y="795.827" type="curve" smooth="yes"/>
      <point x="816.43" y="1293.47" type="line"/>
      <point x="855.187" y="1291.67"/>
      <point x="893.717" y="1291.69"/>
      <point x="932.501" y="1291.5" type="curve" smooth="yes"/>
      <point x="1058.26" y="1290.87"/>
      <point x="1150.98" y="1272.99"/>
    </contour>
    <contour>
      <point x="647" y="1315" type="curve" smooth="yes"/>
      <point x="647" y="1301.19"/>
      <point x="635.807" y="1290"/>
      <point x="622" y="1290" type="curve" smooth="yes"/>
      <point x="608.193" y="1290"/>
      <point x="597" y="1301.19"/>
      <point x="597" y="1315" type="curve" smooth="yes"/>
      <point x="597" y="1328.81"/>
      <point x="608.193" y="1340"/>
      <point x="622" y="1340" type="curve" smooth="yes"/>
      <point x="635.807" y="1340"/>
      <point x="647" y="1328.81"/>
    </contour>
    <contour>
      <point x="579.69" y="1278.57" type="curve"/>
      <point x="467.997" y="767.827" type="line" smooth="yes"/>
      <point x="456.011" y="713.016"/>
      <point x="368.706" y="717.068"/>
      <point x="327.638" y="715.799" type="curve" smooth="yes"/>
      <point x="204.488" y="711.991"/>
      <point x="119.937" y="770.996"/>
      <point x="119.937" y="855.846" type="curve" smooth="yes"/>
      <point x="119.937" y="1130.3"/>
      <point x="301.744" y="1261.64"/>
    </contour>
    <contour>
      <point x="1110.98" y="1111.83" type="curve" smooth="yes"/>
      <point x="1110.98" y="1246.98"/>
      <point x="1036.27" y="1250.98"/>
      <point x="932.3" y="1251.5" type="curve" smooth="yes"/>
      <point x="907.434" y="1251.63"/>
      <point x="882.009" y="1251.29"/>
      <point x="856.899" y="1251.84" type="curve"/>
      <point x="861.897" y="802.849" type="line"/>
      <point x="1068.39" y="770.168"/>
      <point x="1110.98" y="914.906"/>
    </contour>
    <contour>
      <point x="529.269" y="1235.22" type="line"/>
      <point x="205.007" y="1207.75"/>
      <point x="159.937" y="975.183"/>
      <point x="159.937" y="855.846" type="curve" smooth="yes"/>
      <point x="159.937" y="728.437"/>
      <point x="422.611" y="747.521"/>
      <point x="428.92" y="776.373" type="curve" smooth="yes"/>
    </contour>
  </outline>
</glyph>
<glyph name="uni121F" format="2">
  <advance width="1909"/>
  <unicode hex="121F"/>
  <outline>
    <contour>
      <point x="1887.43" y="1582.19" type="line"/>
      <point x="1539.01" y="1473.61" type="line"/>
      <point x="1773.94" y="1191.38" type="line"/>
      <point x="1449.25" y="1362.71" type="line"/>
      <point x="1415.19" y="999.556" type="line"/>
      <point x="1306.61" y="1347.99" type="line"/>
      <point x="1024.38" y="1113.05" type="line"/>
      <point x="1195.7" y="1437.76" type="line"/>
      <point x="832.528" y="1471.8" type="line"/>
      <point x="1180.99" y="1580.38" type="line"/>
      <point x="946.069" y="1862.61" type="line"/>
      <point x="1270.76" y="1691.3" type="line"/>
      <point x="1304.8" y="2054.46" type="line"/>
      <point x="1413.38" y="1706.02" type="line"/>
      <point x="1695.6" y="1940.91" type="line"/>
      <point x="1524.3" y="1616.25" type="line"/>
    </contour>
    <contour>
      <point x="1902.8" y="-121.155" type="curve"/>
      <point x="1841.04" y="-165.271"/>
      <point x="1809.94" y="-187"/>
      <point x="1729" y="-187" type="curve" smooth="yes"/>
      <point x="1602.9" y="-187"/>
      <point x="1479.91" y="-130.425"/>
      <point x="1446.02" y="9.945" type="curve"/>
      <point x="986.579" y="-30.425" type="line"/>
      <point x="981.847" y="-177.504"/>
      <point x="819.225" y="-282"/>
      <point x="678" y="-282" type="curve" smooth="yes"/>
      <point x="625.9" y="-282"/>
      <point x="573.361" y="-275.997"/>
      <point x="521.685" y="-271.863" type="curve"/>
      <point x="593.79" y="-181.73"/>
      <point x="626" y="-139.438"/>
      <point x="626" y="-14" type="curve" smooth="yes"/>
      <point x="626" y="8.557"/>
      <point x="602.242" y="81.0495"/>
      <point x="601.264" y="84.4722" type="curve"/>
      <point x="1039.12" y="124.174" type="line"/>
      <point x="1039.02" y="129.624"/>
      <point x="1039" y="135.243"/>
      <point x="1039" y="141" type="curve" smooth="yes"/>
      <point x="1039" y="184" type="line" smooth="yes"/>
      <point x="1039" y="338.152"/>
      <point x="1195.2" y="754.046"/>
      <point x="1208.34" y="795.165" type="curve"/>
      <point x="1141.87" y="783.979"/>
      <point x="1072.25" y="775"/>
      <point x="1044" y="775" type="curve" smooth="yes"/>
      <point x="932.667" y="775"/>
      <point x="843" y="822.288"/>
      <point x="843" y="952" type="curve" smooth="yes"/>
      <point x="843" y="973"/>
      <point x="841" y="982"/>
      <point x="841" y="994" type="curve" smooth="yes"/>
      <point x="841" y="1039.46"/>
      <point x="863.563" y="1133.42"/>
      <point x="868.843" y="1162.04" type="curve"/>
      <point x="815.481" y="1155.86" type="line"/>
      <point x="778.639" y="883.637" type="line" smooth="yes"/>
      <point x="758.339" y="733.644"/>
      <point x="689.297" y="638"/>
      <point x="557" y="638" type="curve" smooth="yes"/>
      <point x="537" y="638"/>
      <point x="492" y="646"/>
      <point x="457" y="646" type="curve" smooth="yes"/>
      <point x="374.768" y="646"/>
      <point x="309.731" y="568"/>
      <point x="209" y="568" type="curve" smooth="yes"/>
      <point x="83.8043" y="568"/>
      <point x="40" y="651.956"/>
      <point x="40" y="784" type="curve" smooth="yes"/>
      <point x="40" y="923.54"/>
      <point x="56.857" y="1045"/>
      <point x="167.597" y="1149.14" type="curve" smooth="yes"/>
      <point x="294.259" y="1268.25"/>
      <point x="437.858" y="1295.33"/>
      <point x="679.917" y="1307.95" type="curve" smooth="yes"/>
      <point x="817.254" y="1315.11"/>
      <point x="988.05" y="1330"/>
      <point x="1126" y="1330" type="curve" smooth="yes"/>
      <point x="1158.26" y="1330"/>
      <point x="1184.92" y="1319.92"/>
      <point x="1203.24" y="1310.24" type="curve"/>
      <point x="1275.15" y="1347.53"/>
      <point x="1342.77" y="1363"/>
      <point x="1386" y="1363" type="curve" smooth="yes"/>
      <point x="1534.35" y="1363"/>
      <point x="1637" y="1247.83"/>
      <point x="1637" y="1112" type="curve" smooth="yes"/>
      <point x="1637" y="1010.53"/>
      <point x="1580.23" y="838.548"/>
      <point x="1551.37" y="740.686" type="curve" smooth="yes"/>
      <point x="1418.37" y="289.686" type="line" smooth="yes"/>
      <point x="1405.05" y="244.534"/>
      <point x="1394" y="196.547"/>
      <point x="1394" y="168" type="curve" smooth="yes"/>
      <point x="1394" y="164.353"/>
      <point x="1393.86" y="160.645"/>
      <point x="1393.66" y="156.909" type="curve"/>
      <point x="1836.08" y="198.509" type="line"/>
      <point x="1829.73" y="149.317"/>
      <point x="1822" y="102.404"/>
      <point x="1822" y="53" type="curve" smooth="yes"/>
      <point x="1822" y="-41.2162"/>
      <point x="1836.37" y="-66.8062"/>
    </contour>
    <contour>
      <point x="1685" y="1561" type="line"/>
      <point x="1461" y="1582.01" type="line"/>
      <point x="1566" y="1781.01" type="line"/>
      <point x="1392.99" y="1637" type="line"/>
      <point x="1326.01" y="1852" type="line"/>
      <point x="1305" y="1628" type="line"/>
      <point x="1106" y="1733" type="line"/>
      <point x="1250" y="1560" type="line"/>
      <point x="1035.01" y="1492.99" type="line"/>
      <point x="1259.01" y="1472" type="line"/>
      <point x="1154.01" y="1273" type="line"/>
      <point x="1326.99" y="1417.01" type="line"/>
      <point x="1394" y="1202" type="line"/>
      <point x="1415.01" y="1426.01" type="line"/>
      <point x="1613.99" y="1321.01" type="line"/>
      <point x="1470" y="1493.99" type="line"/>
    </contour>
    <contour>
      <point x="1837.4" y="-118.26" type="curve"/>
      <point x="1791.87" y="-74.9552"/>
      <point x="1782" y="-6.8535"/>
      <point x="1782" y="53" type="curve" smooth="yes"/>
      <point x="1782" y="87.3507"/>
      <point x="1785.62" y="120.042"/>
      <point x="1790" y="153.993" type="curve"/>
      <point x="1351.26" y="112.738" type="line"/>
      <point x="1352.11" y="130.847"/>
      <point x="1354" y="149.822"/>
      <point x="1354" y="168" type="curve" smooth="yes" name=".hr01"/>
      <point x="1354" y="203.004"/>
      <point x="1366.75" y="256.078"/>
      <point x="1380" y="301" type="curve" smooth="yes"/>
      <point x="1513" y="752" type="line" smooth="yes"/>
      <point x="1540.18" y="844.173"/>
      <point x="1597" y="1016.47"/>
      <point x="1597" y="1112" type="curve" smooth="yes"/>
      <point x="1597" y="1227.03"/>
      <point x="1510.99" y="1323"/>
      <point x="1386" y="1323" type="curve" smooth="yes"/>
      <point x="1324.51" y="1323"/>
      <point x="1253.72" y="1292.28"/>
      <point x="1202.32" y="1264.34" type="curve"/>
      <point x="1177.75" y="1279.37"/>
      <point x="1156.19" y="1290"/>
      <point x="1126" y="1290" type="curve" smooth="yes"/>
      <point x="989.686" y="1290"/>
      <point x="817.597" y="1275.07"/>
      <point x="682" y="1268" type="curve" smooth="yes"/>
      <point x="440.911" y="1255.43"/>
      <point x="310.435" y="1228.56"/>
      <point x="195" y="1120" type="curve" smooth="yes"/>
      <point x="93.1858" y="1024.25"/>
      <point x="80" y="911.972"/>
      <point x="80" y="784" type="curve" smooth="yes"/>
      <point x="80" y="660.765"/>
      <point x="117.166" y="608"/>
      <point x="209" y="608" type="curve" smooth="yes"/>
      <point x="299.578" y="608"/>
      <point x="362.344" y="686"/>
      <point x="457" y="686" type="curve" smooth="yes"/>
      <point x="492" y="686"/>
      <point x="536.998" y="678"/>
      <point x="557" y="678" type="curve" smooth="yes"/>
      <point x="659.918" y="678"/>
      <point x="719.908" y="747.906"/>
      <point x="739" y="889" type="curve" smooth="yes"/>
      <point x="780" y="1192.01" type="line"/>
      <point x="917.997" y="1208.01" type="line"/>
      <point x="887" y="1040" type="line" smooth="yes"/>
      <point x="882.589" y="1016.09"/>
      <point x="881" y="1005"/>
      <point x="881" y="994" type="curve" smooth="yes"/>
      <point x="881" y="982"/>
      <point x="883" y="973"/>
      <point x="883" y="952" type="curve" smooth="yes"/>
      <point x="883" y="853.142"/>
      <point x="944.823" y="815"/>
      <point x="1044" y="815" type="curve" smooth="yes"/>
      <point x="1116.79" y="815"/>
      <point x="1194.56" y="833.068"/>
      <point x="1265.87" y="846.102" type="curve"/>
      <point x="1217.35" y="682.266"/>
      <point x="1160.58" y="514.297"/>
      <point x="1110" y="356" type="curve" smooth="yes"/>
      <point x="1092.38" y="300.861"/>
      <point x="1079" y="231"/>
      <point x="1079" y="184" type="curve" smooth="yes"/>
      <point x="1079" y="141" type="line" smooth="yes"/>
      <point x="1079" y="123.15"/>
      <point x="1080.06" y="105.647"/>
      <point x="1081.5" y="87.859" type="curve"/>
      <point x="653" y="49.0045" type="line"/>
      <point x="658.864" y="28.4753"/>
      <point x="666" y="7.64775"/>
      <point x="666" y="-14" type="curve" smooth="yes"/>
      <point x="666" y="-95.8798"/>
      <point x="648.453" y="-172.533"/>
      <point x="599.425" y="-237.961" type="curve"/>
      <point x="625.624" y="-240.05"/>
      <point x="651.693" y="-242"/>
      <point x="678" y="-242" type="curve" smooth="yes"/>
      <point x="814.277" y="-242"/>
      <point x="954.508" y="-143.754"/>
      <point x="945.133" y="6.092" type="curve"/>
      <point x="1478.42" y="52.949" type="line"/>
      <point x="1503.13" y="-85.4395"/>
      <point x="1593.42" y="-147"/>
      <point x="1729" y="-147" type="curve" smooth="yes"/>
      <point x="1767.38" y="-147"/>
      <point x="1805.27" y="-139.498"/>
    </contour>
    <contour>
      <point x="1313" y="1112" type="curve" smooth="yes"/>
      <point x="1313" y="1062.2" name=".hr02"/>
      <point x="1288.71" y="957.817"/>
      <point x="1279.82" y="912.047" type="curve"/>
      <point x="1269.59" y="910.684"/>
      <point x="1259.35" y="909"/>
      <point x="1249" y="909" type="curve" smooth="yes"/>
      <point x="1196.05" y="909"/>
      <point x="1141" y="949.946"/>
      <point x="1141" y="1038" type="curve" smooth="yes"/>
      <point x="1141" y="1081.02"/>
      <point x="1154.62" y="1129.47"/>
      <point x="1169.06" y="1169.18" type="curve"/>
      <point x="1171.98" y="1172.22" type="line" smooth="yes"/>
      <point x="1186.88" y="1187.77"/>
      <point x="1207.93" y="1200"/>
      <point x="1235" y="1200" type="curve" smooth="yes"/>
      <point x="1285.68" y="1200"/>
      <point x="1313" y="1161.37"/>
    </contour>
    <contour>
      <point x="541.581" y="1189.21" type="line"/>
      <point x="481" y="856" type="line" smooth="yes"/>
      <point x="470.505" y="798.271"/>
      <point x="454.957" y="745"/>
      <point x="387" y="745" type="curve" smooth="yes"/>
      <point x="370.978" y="745"/>
      <point x="357.364" y="756.364"/>
      <point x="349.11" y="769.249" type="curve" smooth="yes"/>
      <point x="339.812" y="783.765"/>
      <point x="334" y="804.277"/>
      <point x="334" y="831" type="curve" smooth="yes"/>
      <point x="334" y="941.052"/>
      <point x="384.873" y="1153.19" name=".hr03"/>
      <point x="511.992" y="1182.41" type="curve" smooth="yes"/>
    </contour>
    <contour>
      <point x="1273" y="1112" type="curve" smooth="yes"/>
      <point x="1273" y="1145.99"/>
      <point x="1257.44" y="1160"/>
      <point x="1235" y="1160" type="curve" smooth="yes"/>
      <point x="1222.49" y="1160"/>
      <point x="1212.22" y="1155.15"/>
      <point x="1203.7" y="1147.32" type="curve"/>
      <point x="1190.04" y="1108.69"/>
      <point x="1181" y="1068.23"/>
      <point x="1181" y="1038" type="curve" smooth="yes"/>
      <point x="1181" y="972.628"/>
      <point x="1217.26" y="950.373"/>
      <point x="1246.25" y="949.06" type="curve"/>
      <point x="1260.69" y="1024"/>
      <point x="1273" y="1092.6"/>
    </contour>
    <contour>
      <point x="490.291" y="1130.74" type="line"/>
      <point x="411.934" y="1082.6"/>
      <point x="374" y="915.954"/>
      <point x="374" y="831" type="curve" smooth="yes"/>
      <point x="374" y="809.822"/>
      <point x="378.624" y="797.333"/>
      <point x="382.793" y="790.825" type="curve" smooth="yes"/>
      <point x="384.883" y="787.56"/>
      <point x="386.771" y="785.918"/>
      <point x="387.832" y="785.21" type="curve"/>
      <point x="430.462" y="785.298"/>
      <point x="435.251" y="827.985"/>
      <point x="441.645" y="863.155" type="curve" smooth="yes"/>
    </contour>
  </outline>
</glyph>
<glyph name="uni1225" format="2">
  <advance width="1407"/>
  <unicode hex="1225"/>
  <outline>
    <component base="bar"/>
    <contour>
      <point x="1340.54" y="1267.6" type="curve" smooth="yes"/>
      <point x="1357.88" y="1124.88"/>
      <point x="1342.49" y="995.337"/>
      <point x="1273.07" y="864.142" type="curve" smooth="yes"/>
      <point x="1201.27" y="728.442"/>
      <point x="1063.11" y="705.616"/>
      <point x="939.38" y="697.859" type="curve" smooth="yes"/>
      <point x="855.903" y="692.626"/>
      <point x="797.209" y="719.633"/>
      <point x="756.826" y="766.394" type="curve"/>
      <point x="746.782" y="736.978"/>
      <point x="735.316" y="707.563"/>
      <point x="721.248" y="676.702" type="curve" smooth="yes"/>
      <point x="640.253" y="499.026"/>
      <point x="419.142" y="469.12"/>
      <point x="294.388" y="555.844" type="curve"/>
      <point x="157.117" y="21.0558" type="line" smooth="yes"/>
      <point x="132.556" y="-74.6312"/>
      <point x="-7.14877" y="-33.4212"/>
      <point x="11.5905" y="40.7928" type="curve" smooth="yes"/>
      <point x="303.116" y="1195.33" type="line" smooth="yes"/>
      <point x="325.816" y="1285.23"/>
      <point x="441.729" y="1257.66"/>
      <point x="449.905" y="1194.64" type="curve" smooth="yes"/>
      <point x="451.289" y="1183.97"/>
      <point x="451.789" y="1173.23"/>
      <point x="449.462" y="1162.51" type="curve" smooth="yes"/>
      <point x="358.462" y="743.511" type="line" smooth="yes"/>
      <point x="340.838" y="662.364"/>
      <point x="527.968" y="614.331"/>
      <point x="584.762" y="738.924" type="curve" smooth="yes"/>
      <point x="620.435" y="817.182"/>
      <point x="674.607" y="1027.19"/>
      <point x="677.009" y="1219.24" type="curve" smooth="yes"/>
      <point x="677.625" y="1268.52"/>
      <point x="717.161" y="1293.77"/>
      <point x="752.101" y="1293.84" type="curve" smooth="yes"/>
      <point x="787.165" y="1293.92"/>
      <point x="826.904" y="1268.61"/>
      <point x="827.005" y="1218.97" type="curve" smooth="yes"/>
      <point x="827.187" y="1129.67"/>
      <point x="781.292" y="839.888"/>
      <point x="929.282" y="847.508" type="curve" smooth="yes"/>
      <point x="1025.84" y="852.479"/>
      <point x="1106.87" y="869.486"/>
      <point x="1139.5" y="934.363" type="curve" smooth="yes"/>
      <point x="1198.28" y="1051.25"/>
      <point x="1203.91" y="1148.46"/>
      <point x="1191.64" y="1249.51" type="curve" smooth="yes"/>
      <point x="1179.66" y="1348.16"/>
      <point x="1328.57" y="1366.23"/>
    </contour>
    <contour>
      <point x="1300.83" y="1262.78" type="curve" smooth="yes"/>
      <point x="1295.21" y="1309.08"/>
      <point x="1225.72" y="1300.64"/>
      <point x="1231.35" y="1254.34" type="curve" smooth="yes"/>
      <point x="1244.33" y="1147.41"/>
      <point x="1238.35" y="1041.89"/>
      <point x="1175.23" y="916.391" type="curve" smooth="yes"/>
      <point x="1130.98" y="828.404"/>
      <point x="1025" y="812.384"/>
      <point x="931.339" y="807.561" type="curve" smooth="yes"/>
      <point x="736.784" y="797.544"/>
      <point x="787.242" y="1102.1"/>
      <point x="787.005" y="1218.89" type="curve" smooth="yes"/>
      <point x="786.958" y="1242.03"/>
      <point x="769.841" y="1253.88"/>
      <point x="752.188" y="1253.84" type="curve" smooth="yes"/>
      <point x="734.549" y="1253.8"/>
      <point x="717.295" y="1241.89"/>
      <point x="717.006" y="1218.74" type="curve" smooth="yes"/>
      <point x="714.542" y="1021.73"/>
      <point x="659.374" y="806.167"/>
      <point x="621.159" y="722.333" type="curve" smooth="yes"/>
      <point x="545.651" y="556.688"/>
      <point x="290.782" y="620.355"/>
      <point x="319.373" y="752" type="curve" smooth="yes"/>
      <point x="410.373" y="1171" type="line" smooth="yes"/>
      <point x="411.671" y="1176.98"/>
      <point x="411.626" y="1182.51"/>
      <point x="410.328" y="1188.46" type="curve"/>
      <point x="408.094" y="1212.58"/>
      <point x="353.188" y="1230.25"/>
      <point x="341.899" y="1185.54" type="curve" smooth="yes"/>
      <point x="50.3734" y="31" type="line" smooth="yes"/>
      <point x="45.0439" y="9.89275"/>
      <point x="106.416" y="-15.588"/>
      <point x="118.373" y="31" type="curve" smooth="yes"/>
      <point x="271.793" y="628.74" type="line"/>
      <point x="296.457" y="605.491" type="line" smooth="yes"/>
      <point x="395.516" y="512.117"/>
      <point x="610.213" y="529.561"/>
      <point x="684.852" y="693.294" type="curve" smooth="yes"/>
      <point x="709.467" y="747.292"/>
      <point x="726.767" y="802.773"/>
      <point x="743.989" y="859.356" type="curve"/>
      <point x="792.591" y="777.682"/>
      <point x="828.676" y="730.997"/>
      <point x="936.877" y="737.78" type="curve" smooth="yes"/>
      <point x="1060.34" y="745.52"/>
      <point x="1176.94" y="767.986"/>
      <point x="1237.71" y="882.849" type="curve" smooth="yes"/>
      <point x="1302.6" y="1005.48"/>
      <point x="1317.38" y="1126.52"/>
    </contour>
    <contour>
      <point x="399" y="1168" type="curve" smooth="yes"/>
      <point x="399" y="1154.19"/>
      <point x="387.807" y="1143"/>
      <point x="374" y="1143" type="curve" smooth="yes"/>
      <point x="360.193" y="1143"/>
      <point x="349" y="1154.19"/>
      <point x="349" y="1168" type="curve" smooth="yes"/>
      <point x="349" y="1181.81"/>
      <point x="360.193" y="1193"/>
      <point x="374" y="1193" type="curve" smooth="yes"/>
      <point x="387.807" y="1193"/>
      <point x="399" y="1181.81"/>
    </contour>
  </outline>
</glyph>
<glyph name="uni1227" format="2">
  <advance width="1802"/>
  <unicode hex="1227"/>
  <outline>
    <contour>
      <point x="1887.43" y="1582.19" type="line"/>
      <point x="1539.01" y="1473.61" type="line"/>
      <point x="1773.94" y="1191.38" type="line"/>
      <point x="1449.25" y="1362.71" type="line"/>
      <point x="1415.19" y="999.556" type="line"/>
      <point x="1306.61" y="1347.99" type="line"/>
      <point x="1024.38" y="1113.05" type="line"/>
      <point x="1195.7" y="1437.76" type="line"/>
      <point x="832.528" y="1471.8" type="line"/>
      <point x="1180.99" y="1580.38" type="line"/>
      <point x="946.069" y="1862.61" type="line"/>
      <point x="1270.76" y="1691.3" type="line"/>
      <point x="1304.8" y="2054.46" type="line"/>
      <point x="1413.38" y="1706.02" type="line"/>
      <point x="1695.6" y="1940.91" type="line"/>
      <point x="1524.3" y="1616.25" type="line"/>
    </contour>
    <contour>
      <point x="1717.63" y="-20.206" type="curve"/>
      <point x="1664.23" y="-64.7115"/>
      <point x="1638.13" y="-75"/>
      <point x="1565" y="-75" type="curve" smooth="yes"/>
      <point x="1451.49" y="-75"/>
      <point x="1312.57" y="-7.1005"/>
      <point x="1279.7" y="112.509" type="curve"/>
      <point x="779.387" y="90.7182" type="line"/>
      <point x="766.376" y="-40.8723"/>
      <point x="619.69" y="-157"/>
      <point x="475" y="-157" type="curve" smooth="yes"/>
      <point x="451.97" y="-157"/>
      <point x="427.332" y="-151.555"/>
      <point x="406.208" y="-143.229" type="curve" smooth="yes"/>
      <point x="382.341" y="-133.821"/>
      <point x="359.487" y="-120.029"/>
      <point x="337.11" y="-107.597" type="curve"/>
      <point x="379.759" y="-45.5635"/>
      <point x="415" y="5.95925"/>
      <point x="415" y="86" type="curve" smooth="yes"/>
      <point x="415" y="130.756"/>
      <point x="409.331" y="178.238"/>
      <point x="405.858" y="222.222" type="curve"/>
      <point x="868.729" y="241.681" type="line"/>
      <point x="914.417" y="444.147"/>
      <point x="958.541" y="647.009"/>
      <point x="1004.77" y="849.347" type="curve"/>
      <point x="942.913" y="851.935"/>
      <point x="892.058" y="868.874"/>
      <point x="842.58" y="897.401" type="curve"/>
      <point x="772.711" y="803.652"/>
      <point x="640.257" y="741"/>
      <point x="524" y="741" type="curve" smooth="yes"/>
      <point x="501" y="741"/>
      <point x="479" y="742"/>
      <point x="459" y="742" type="curve" smooth="yes"/>
      <point x="377.432" y="742"/>
      <point x="309.393" y="671"/>
      <point x="215" y="671" type="curve" smooth="yes"/>
      <point x="138.788" y="671"/>
      <point x="54" y="715.463"/>
      <point x="54" y="836" type="curve" smooth="yes"/>
      <point x="54" y="926.965"/>
      <point x="112" y="1038.95"/>
      <point x="112" y="1114" type="curve" smooth="yes"/>
      <point x="112" y="1153"/>
      <point x="112.6" y="1156.14"/>
      <point x="81" y="1169.44" type="curve"/>
      <point x="81" y="1252.91" type="line"/>
      <point x="127.521" y="1263.51"/>
      <point x="289.588" y="1310"/>
      <point x="373" y="1310" type="curve" smooth="yes"/>
      <point x="438.888" y="1310"/>
      <point x="486" y="1254.18"/>
      <point x="486" y="1192" type="curve" smooth="yes"/>
      <point x="486" y="1118.41"/>
      <point x="449.242" y="1044.57"/>
      <point x="427.676" y="974.986" type="curve" smooth="yes"/>
      <point x="421.572" y="955.293"/>
      <point x="419" y="942.1"/>
      <point x="419" y="934" type="curve" smooth="yes"/>
      <point x="419" y="908.233"/>
      <point x="417.661" y="896"/>
      <point x="444" y="896" type="curve" smooth="yes"/>
      <point x="555.046" y="896"/>
      <point x="603" y="1050.51"/>
      <point x="603" y="1126" type="curve" smooth="yes"/>
      <point x="603" y="1169.69"/>
      <point x="571.378" y="1188.35"/>
      <point x="535" y="1199.16" type="curve"/>
      <point x="535" y="1288.06" type="line"/>
      <point x="546.514" y="1290.27"/>
      <point x="754.05" y="1338"/>
      <point x="831" y="1338" type="curve" smooth="yes"/>
      <point x="904.066" y="1338"/>
      <point x="955" y="1289.1"/>
      <point x="955" y="1217" type="curve" smooth="yes"/>
      <point x="955" y="1180.31"/>
      <point x="945.8" y="1134.8"/>
      <point x="938.082" y="1103.35" type="curve"/>
      <point x="951.886" y="1045.59"/>
      <point x="983.62" y="1015.42"/>
      <point x="1040.37" y="1001.78" type="curve"/>
      <point x="1053.73" y="1060.67"/>
      <point x="1066" y="1107.37"/>
      <point x="1066" y="1167" type="curve" smooth="yes"/>
      <point x="1066" y="1221.21"/>
      <point x="1061.13" y="1227.94"/>
      <point x="1014.68" y="1241.54" type="curve"/>
      <point x="1009.02" y="1340.42" type="line"/>
      <point x="1096.64" y="1355.36"/>
      <point x="1176.4" y="1367.8"/>
      <point x="1260.5" y="1384.47" type="curve" smooth="yes"/>
      <point x="1274.02" y="1387.15"/>
      <point x="1290.18" y="1390"/>
      <point x="1305" y="1390" type="curve" smooth="yes"/>
      <point x="1417.98" y="1390"/>
      <point x="1431" y="1276.56"/>
      <point x="1431" y="1219" type="curve" smooth="yes"/>
      <point x="1431" y="1178.74"/>
      <point x="1410.85" y="1075.41"/>
      <point x="1404.97" y="1049.98" type="curve" smooth="yes"/>
      <point x="1343.8" y="785.691"/>
      <point x="1284.33" y="521.002"/>
      <point x="1224.75" y="256.344" type="curve"/>
      <point x="1672.09" y="285.039" type="line"/>
      <point x="1665.48" y="235.443"/>
      <point x="1659" y="193.905"/>
      <point x="1659" y="145" type="curve" smooth="yes"/>
      <point x="1659" y="71.3775"/>
      <point x="1679.83" y="39.2"/>
    </contour>
    <contour>
      <point x="1685" y="1561" type="line"/>
      <point x="1461" y="1582.01" type="line"/>
      <point x="1566" y="1781.01" type="line"/>
      <point x="1392.99" y="1637" type="line"/>
      <point x="1326.01" y="1852" type="line"/>
      <point x="1305" y="1628" type="line"/>
      <point x="1106" y="1733" type="line"/>
      <point x="1250" y="1560" type="line"/>
      <point x="1035.01" y="1492.99" type="line"/>
      <point x="1259.01" y="1472" type="line"/>
      <point x="1154.01" y="1273" type="line"/>
      <point x="1326.99" y="1417.01" type="line"/>
      <point x="1394" y="1202" type="line"/>
      <point x="1415.01" y="1426.01" type="line"/>
      <point x="1613.99" y="1321.01" type="line"/>
      <point x="1470" y="1493.99" type="line"/>
    </contour>
    <contour>
      <point x="1664.84" y="-11.436" type="curve"/>
      <point x="1632.19" y="42.163"/>
      <point x="1619" y="81.4252"/>
      <point x="1619" y="145" type="curve" smooth="yes"/>
      <point x="1619" y="178.257"/>
      <point x="1621.62" y="209.126"/>
      <point x="1626" y="242.008" type="curve"/>
      <point x="1174" y="212.999" type="line"/>
      <point x="1237.5" y="495.112"/>
      <point x="1300.8" y="777.28"/>
      <point x="1366" y="1059" type="curve" smooth="yes"/>
      <point x="1372.01" y="1084.99"/>
      <point x="1391" y="1183.99"/>
      <point x="1391" y="1219" type="curve" smooth="yes"/>
      <point x="1391" y="1282.39"/>
      <point x="1375.81" y="1350"/>
      <point x="1305" y="1350" type="curve" smooth="yes"/>
      <point x="1279.04" y="1350"/>
      <point x="1252.48" y="1341.34"/>
      <point x="1227" y="1337" type="curve" smooth="yes"/>
      <point x="1051" y="1307" type="line"/>
      <point x="1053.03" y="1271.32" type="line"/>
      <point x="1094.27" y="1254.8"/>
      <point x="1106" y="1224.69"/>
      <point x="1106" y="1167" type="curve" smooth="yes"/>
      <point x="1106" y="1089.58"/>
      <point x="1088.63" y="1033.71"/>
      <point x="1070.88" y="955.51" type="curve"/>
      <point x="975.21" y="971.44"/>
      <point x="919.109" y="1002.35"/>
      <point x="896.979" y="1103.87" type="curve"/>
      <point x="905.734" y="1138.66"/>
      <point x="915" y="1180.81"/>
      <point x="915" y="1217" type="curve" smooth="yes"/>
      <point x="915" y="1265.97"/>
      <point x="883.029" y="1298"/>
      <point x="831" y="1298" type="curve" smooth="yes"/>
      <point x="763.33" y="1298"/>
      <point x="591.864" y="1258.23"/>
      <point x="574.996" y="1255" type="curve"/>
      <point x="574.996" y="1228.03" type="line"/>
      <point x="616.299" y="1210.01"/>
      <point x="643" y="1171.13"/>
      <point x="643" y="1126" type="curve" smooth="yes"/>
      <point x="643" y="1053.78"/>
      <point x="595.904" y="856"/>
      <point x="444" y="856" type="curve" smooth="yes"/>
      <point x="391.886" y="856"/>
      <point x="379" y="886.919"/>
      <point x="379" y="934" type="curve" smooth="yes"/>
      <point x="379" y="1007.77"/>
      <point x="446" y="1101.49"/>
      <point x="446" y="1192" type="curve" smooth="yes"/>
      <point x="446" y="1235.09"/>
      <point x="413.916" y="1270"/>
      <point x="373" y="1270" type="curve" smooth="yes"/>
      <point x="300.188" y="1270"/>
      <point x="165.284" y="1231.09"/>
      <point x="120.996" y="1221" type="curve"/>
      <point x="120.996" y="1195.13" type="line"/>
      <point x="149.477" y="1178.08"/>
      <point x="152" y="1144.06"/>
      <point x="152" y="1114" type="curve" smooth="yes"/>
      <point x="152" y="1026.4"/>
      <point x="94" y="927.825"/>
      <point x="94" y="836" type="curve" smooth="yes"/>
      <point x="94" y="743.111"/>
      <point x="154.874" y="711"/>
      <point x="215" y="711" type="curve" smooth="yes"/>
      <point x="302.335" y="711"/>
      <point x="371.462" y="782"/>
      <point x="459" y="782" type="curve" smooth="yes"/>
      <point x="479.001" y="782"/>
      <point x="500.999" y="781"/>
      <point x="524" y="781" type="curve" smooth="yes"/>
      <point x="647.569" y="781"/>
      <point x="763.031" y="849.661"/>
      <point x="831.179" y="951.425" type="curve"/>
      <point x="895.426" y="910.97"/>
      <point x="944.161" y="888.927"/>
      <point x="1021.98" y="889" type="curve" smooth="yes"/>
      <point x="1054.96" y="889.031" type="line"/>
      <point x="1002.18" y="660.725"/>
      <point x="952.59" y="431.593"/>
      <point x="901.006" y="203.009" type="curve"/>
      <point x="449.003" y="183.992" type="line"/>
      <point x="451.57" y="151.452"/>
      <point x="455" y="118.685"/>
      <point x="455" y="86" type="curve" smooth="yes"/>
      <point x="455" y="18.6105"/>
      <point x="431.189" y="-39.1985"/>
      <point x="394.936" y="-93.8148" type="curve"/>
      <point x="408.897" y="-101.299"/>
      <point x="414.921" y="-103.973"/>
      <point x="420.975" y="-106.051" type="curve"/>
      <point x="435.891" y="-112.814"/>
      <point x="456.378" y="-117"/>
      <point x="475" y="-117" type="curve" smooth="yes"/>
      <point x="610.454" y="-117"/>
      <point x="740.536" y="-1.8585"/>
      <point x="740.316" y="109.864" type="curve"/>
      <point x="740.278" y="129.05" type="line"/>
      <point x="1312.04" y="153.958" type="line"/>
      <point x="1334.07" y="32.9345"/>
      <point x="1449.49" y="-35"/>
      <point x="1565" y="-35" type="curve" smooth="yes"/>
      <point x="1599.29" y="-35"/>
      <point x="1636.16" y="-32.0825"/>
    </contour>
  </outline>
</glyph>
<glyph name="uni1228" format="2">
  <advance width="965"/>
  <unicode hex="1228"/>
  <outline>
    <component base="bar"/>
    <contour>
      <point x="905.34" y="35" type="curve" smooth="yes"/>
      <point x="905.34" y="-1.265"/>
      <point x="880.204" y="-40"/>
      <point x="830.343" y="-40" type="curve" smooth="yes"/>
      <point x="377.343" y="-40" type="line" smooth="yes"/>
      <point x="159.195" y="-40"/>
      <point x="0.62878" y="79.1295"/>
      <point x="10.4253" y="305.982" type="curve" smooth="yes"/>
      <point x="24.1735" y="624.342"/>
      <point x="612.343" y="948.717"/>
      <point x="612.343" y="1183" type="curve" smooth="yes"/>
      <point x="612.343" y="1232.86"/>
      <point x="651.078" y="1258"/>
      <point x="687.343" y="1258" type="curve" smooth="yes"/>
      <point x="723.608" y="1258"/>
      <point x="762.343" y="1232.86"/>
      <point x="762.343" y="1183" type="curve" smooth="yes"/>
      <point x="762.343" y="863.287"/>
      <point x="171.961" y="539.347"/>
      <point x="160.297" y="299.766" type="curve" smooth="yes"/>
      <point x="154.303" y="176.643"/>
      <point x="224.013" y="110"/>
      <point x="377.343" y="110" type="curve" smooth="yes"/>
      <point x="830.343" y="110" type="line" smooth="yes"/>
      <point x="880.204" y="110"/>
      <point x="905.34" y="71.265"/>
    </contour>
    <contour>
      <point x="865.34" y="35" type="curve" smooth="yes"/>
      <point x="865.34" y="53.735"/>
      <point x="853.811" y="70"/>
      <point x="830.343" y="70" type="curve" smooth="yes"/>
      <point x="377.343" y="70" type="line" smooth="yes"/>
      <point x="207.82" y="70"/>
      <point x="112.939" y="149.593"/>
      <point x="120.345" y="301.711" type="curve" smooth="yes"/>
      <point x="133.119" y="564.09"/>
      <point x="722.343" y="884.205"/>
      <point x="722.343" y="1183" type="curve" smooth="yes"/>
      <point x="722.343" y="1206.47"/>
      <point x="706.078" y="1218"/>
      <point x="687.343" y="1218" type="curve" smooth="yes"/>
      <point x="668.608" y="1218"/>
      <point x="652.343" y="1206.47"/>
      <point x="652.343" y="1183" type="curve" smooth="yes"/>
      <point x="652.343" y="1040.79"/>
      <point x="453.785" y="856.974"/>
      <point x="356.197" y="758.59" type="curve" smooth="yes"/>
      <point x="248.805" y="650.323"/>
      <point x="57.441" y="467.581"/>
      <point x="50.3883" y="304.256" type="curve" smooth="yes"/>
      <point x="41.838" y="106.258"/>
      <point x="175.5" y="0"/>
      <point x="377.343" y="0" type="curve" smooth="yes"/>
      <point x="830.343" y="0" type="line" smooth="yes"/>
      <point x="853.811" y="0"/>
      <point x="865.34" y="16.265"/>
    </contour>
    <contour>
      <point x="712" y="1182" type="curve" smooth="yes"/>
      <point x="712" y="1168.19"/>
      <point x="700.807" y="1157"/>
      <point x="687" y="1157" type="curve" smooth="yes"/>
      <point x="673.193" y="1157"/>
      <point x="662" y="1168.19"/>
      <point x="662" y="1182" type="curve" smooth="yes"/>
      <point x="662" y="1195.81"/>
      <point x="673.193" y="1207"/>
      <point x="687" y="1207" type="curve" smooth="yes"/>
      <point x="700.807" y="1207"/>
      <point x="712" y="1195.81"/>
    </contour>
  </outline>
</glyph>
<glyph name="uni122B" format="2">
  <advance width="1142"/>
  <unicode hex="122B"/>
  <outline>
    <component base="bar"/>
    <contour>
      <point x="1081.91" y="431.293" type="curve" smooth="yes"/>
      <point x="1081.91" y="391.318"/>
      <point x="1054.91" y="359.099"/>
      <point x="1010" y="354.976" type="curve"/>
      <point x="1010" y="354.976"/>
      <point x="809.029" y="336.947"/>
      <point x="724.484" y="328.761" type="curve"/>
      <point x="688.964" y="79.2318" type="line" smooth="yes"/>
      <point x="685.692" y="56.2445"/>
      <point x="670.579" y="31.0608"/>
      <point x="641.99" y="24.0168" type="curve"/>
      <point x="641.99" y="24.0168"/>
      <point x="432.044" y="-27.2367"/>
      <point x="387.284" y="-38.741" type="curve" smooth="yes"/>
      <point x="157.669" y="-97.7572"/>
      <point x="1.09423" y="90.2333"/>
      <point x="10.4082" y="305.981" type="curve" smooth="yes"/>
      <point x="24.149" y="624.264"/>
      <point x="612.326" y="948.717"/>
      <point x="612.326" y="1183" type="curve" smooth="yes"/>
      <point x="612.326" y="1232.86"/>
      <point x="651.061" y="1258"/>
      <point x="687.326" y="1258" type="curve" smooth="yes"/>
      <point x="723.592" y="1258"/>
      <point x="762.326" y="1232.86"/>
      <point x="762.326" y="1183" type="curve" smooth="yes"/>
      <point x="762.326" y="863.28"/>
      <point x="171.948" y="539.487"/>
      <point x="160.281" y="299.766" type="curve" smooth="yes"/>
      <point x="153.735" y="165.281"/>
      <point x="237.692" y="74.138"/>
      <point x="367.011" y="108.647" type="curve" smooth="yes"/>
      <point x="554.254" y="158.614" type="line"/>
      <point x="584.611" y="410.369" type="line" smooth="yes"/>
      <point x="589.484" y="450.782"/>
      <point x="626.169" y="477.96"/>
      <point x="664.044" y="475.464" type="curve"/>
      <point x="770.393" y="485.077"/>
      <point x="991.01" y="508.077"/>
      <point x="991.01" y="508.077" type="curve"/>
      <point x="1045.49" y="513.51"/>
      <point x="1081.91" y="482.346"/>
    </contour>
    <contour>
      <point x="1041.91" y="431.293" type="curve" smooth="yes"/>
      <point x="1041.91" y="451.936"/>
      <point x="1025.76" y="472.059"/>
      <point x="999.016" y="469.341" type="curve"/>
      <point x="999.016" y="469.341"/>
      <point x="710.698" y="439.519"/>
      <point x="664.13" y="435.309" type="curve"/>
      <point x="642.844" y="437.294"/>
      <point x="621.138" y="422.335"/>
      <point x="618.221" y="394" type="curve"/>
      <point x="618.221" y="394"/>
      <point x="596.623" y="175.863"/>
      <point x="590.726" y="126.954" type="curve"/>
      <point x="377.326" y="70" type="line" smooth="yes"/>
      <point x="213.67" y="26.3225"/>
      <point x="112.908" y="149.245"/>
      <point x="120.328" y="301.711" type="curve" smooth="yes"/>
      <point x="133.099" y="564.1"/>
      <point x="722.326" y="884.197"/>
      <point x="722.326" y="1183" type="curve" smooth="yes"/>
      <point x="722.326" y="1206.47"/>
      <point x="706.061" y="1218"/>
      <point x="687.326" y="1218" type="curve" smooth="yes"/>
      <point x="668.592" y="1218"/>
      <point x="652.326" y="1206.47"/>
      <point x="652.326" y="1183" type="curve" smooth="yes"/>
      <point x="652.326" y="1040.78"/>
      <point x="453.762" y="856.964"/>
      <point x="356.179" y="758.586" type="curve" smooth="yes"/>
      <point x="248.809" y="650.341"/>
      <point x="57.4212" y="467.562"/>
      <point x="50.3712" y="304.256" type="curve" smooth="yes"/>
      <point x="41.816" y="106.085"/>
      <point x="182.158" y="-50.1632"/>
      <point x="377.326" y="0" type="curve" smooth="yes"/>
      <point x="638" y="67" type="line" smooth="yes"/>
      <point x="644.714" y="68.7255"/>
      <point x="648.199" y="76.6905"/>
      <point x="649.363" y="84.8688" type="curve" smooth="yes"/>
      <point x="689.321" y="365.552" type="line"/>
      <point x="1006.91" y="396.293" type="line" smooth="yes"/>
      <point x="1026.99" y="398.237"/>
      <point x="1041.91" y="412.469"/>
    </contour>
    <contour>
      <point x="712" y="1182" type="curve" smooth="yes"/>
      <point x="712" y="1168.19"/>
      <point x="700.807" y="1157"/>
      <point x="687" y="1157" type="curve" smooth="yes"/>
      <point x="673.193" y="1157"/>
      <point x="662" y="1168.19"/>
      <point x="662" y="1182" type="curve" smooth="yes"/>
      <point x="662" y="1195.81"/>
      <point x="673.193" y="1207"/>
      <point x="687" y="1207" type="curve" smooth="yes"/>
      <point x="700.807" y="1207"/>
      <point x="712" y="1195.81"/>
    </contour>
  </outline>
</glyph>
